<?xml version="1.0" standalone="no"?>
<!DOCTYPE svg PUBLIC "-//W3C//DTD SVG 20010904//EN"
 "http://www.w3.org/TR/2001/REC-SVG-20010904/DTD/svg10.dtd">
<svg version="1.0" xmlns="http://www.w3.org/2000/svg"
 width="640.000000pt" height="640.000000pt" viewBox="0 0 640.000000 640.000000"
 preserveAspectRatio="xMidYMid meet">

<g transform="translate(0.000000,640.000000) scale(0.100000,-0.100000)"
fill="white" stroke="none">
<path d="M0 3200 l0 -3200 3200 0 3200 0 0 3200 0 3200 -3200 0 -3200 0 0
-3200z m3684 2023 c164 -493 178 -530 211 -560 28 -27 43 -33 80 -33 45 0 45
0 45 -35 l0 -35 -262 2 -263 3 0 30 c0 28 3 30 42 33 72 5 73 12 18 203 l-49
169 -174 -2 -175 -3 -43 -125 c-49 -142 -56 -213 -25 -230 11 -5 40 -10 65
-10 46 0 46 0 46 -35 l0 -35 -457 3 -458 2 0 30 c0 25 4 30 28 33 16 2 31 10
33 17 5 12 -264 422 -302 460 -8 8 -22 15 -30 15 -12 0 -14 -38 -14 -233 0
-168 3 -236 12 -245 7 -7 29 -12 50 -12 37 0 38 -1 38 -35 l0 -35 -230 0 -230
0 0 35 c0 35 1 35 43 35 24 0 48 5 55 12 9 9 12 133 12 495 0 467 -1 483 -19
493 -11 5 -36 10 -55 10 -34 0 -36 2 -36 35 l0 35 230 0 230 0 0 -35 c0 -34
-1 -35 -38 -35 -71 0 -73 -8 -70 -246 3 -239 6 -246 76 -176 79 79 314 381
310 399 -2 13 -14 19 -41 21 -35 3 -37 5 -37 38 l0 34 198 -2 197 -3 0 -30 c0
-29 -2 -30 -50 -35 -27 -3 -66 -14 -85 -26 -47 -27 -342 -354 -336 -371 12
-30 431 -586 453 -600 15 -10 47 -15 97 -15 97 1 141 23 176 91 23 45 340 874
340 890 0 10 -5 22 -10 27 -15 15 3 26 70 47 30 9 73 28 95 42 22 13 45 25 52
25 6 0 88 -231 187 -527z m1051 452 c0 -29 -2 -30 -53 -35 -31 -3 -57 -12 -62
-20 -6 -9 -10 -214 -10 -487 0 -535 -5 -503 81 -503 l49 0 0 -35 0 -35 -260 0
-260 0 0 35 0 35 53 0 c29 0 58 5 65 12 18 18 17 971 -1 986 -7 6 -37 12 -67
14 -43 2 -56 7 -58 21 -9 47 -9 48 265 45 l258 -3 0 -30z m-3067 -1295 c4 -23
4 -23 27 6 13 16 26 26 30 22 4 -4 -2 -19 -14 -34 -20 -26 -20 -27 -2 -53 32
-47 33 -51 14 -51 -10 0 -26 12 -35 28 l-17 27 -1 -27 c0 -18 -5 -28 -15 -28
-12 0 -15 15 -15 71 0 52 3 70 13 67 6 -3 14 -15 15 -28z m196 8 c35 -50 6
-120 -49 -120 -57 0 -87 80 -45 122 27 27 75 26 94 -2z m116 7 c10 -12 10 -21
1 -42 -9 -21 -9 -30 4 -49 19 -29 19 -34 1 -34 -8 0 -24 12 -35 28 l-20 27 -1
-27 c0 -18 -5 -28 -15 -28 -12 0 -15 14 -15 70 l0 70 34 0 c18 0 39 -7 46 -15z
m120 5 c0 -5 -11 -10 -25 -10 -18 0 -25 -5 -25 -20 0 -13 7 -20 20 -20 11 0
20 -4 20 -10 0 -5 -9 -10 -20 -10 -13 0 -20 -7 -20 -20 0 -15 7 -20 25 -20 14
0 25 -4 25 -10 0 -5 -18 -10 -40 -10 l-40 0 0 70 0 70 40 0 c22 0 40 -4 40
-10z m107 -56 c12 -32 22 -62 22 -66 2 -16 -25 -7 -37 12 -13 21 -38 18 -59
-8 -7 -9 -15 -13 -18 -10 -5 5 27 108 40 129 13 20 30 1 52 -57z m180 0 c12
-32 22 -62 22 -66 2 -15 -27 -8 -33 7 -8 21 -53 19 -65 -2 -5 -10 -12 -15 -15
-12 -6 5 25 107 39 130 13 20 30 1 52 -57z m107 60 c10 -4 16 -18 16 -36 0
-24 -6 -32 -30 -41 -22 -8 -30 -18 -30 -35 0 -13 -5 -22 -11 -20 -9 3 -15 88
-10 133 1 7 46 6 65 -1z m120 -16 c13 -22 0 -48 -32 -63 -13 -6 -22 -19 -22
-32 0 -14 -6 -23 -15 -23 -12 0 -15 15 -15 71 l0 70 36 -3 c22 -2 42 -10 48
-20z m90 16 c18 -7 21 -45 5 -61 -8 -8 -7 -17 5 -34 19 -28 20 -39 3 -39 -8 0
-20 11 -27 25 -17 32 -30 32 -30 -1 0 -16 -5 -24 -12 -22 -14 5 -24 98 -14
124 6 14 42 19 70 8z m148 -11 c18 -16 25 -77 10 -99 -15 -23 -50 -34 -75 -25
-28 11 -37 29 -37 74 0 58 60 88 102 50z m74 -35 l17 -53 17 49 c9 28 22 52
30 54 8 3 11 -1 8 -9 -3 -8 -14 -40 -24 -71 -12 -40 -23 -58 -34 -58 -11 0
-22 18 -34 58 -10 31 -21 63 -23 70 -3 6 2 12 10 12 10 0 22 -20 33 -52z m172
-10 c12 -35 22 -66 22 -70 0 -16 -28 -7 -32 10 -7 24 -44 22 -62 -4 -24 -32
-28 -10 -8 42 10 27 22 57 25 67 12 34 34 16 55 -45z m72 2 c0 -57 1 -60 25
-60 14 0 25 -4 25 -10 0 -5 -18 -10 -40 -10 l-40 0 0 70 c0 56 3 70 15 70 12
0 15 -13 15 -60z m150 -10 c0 -56 -3 -70 -15 -70 -12 0 -15 14 -15 70 0 56 3
70 15 70 12 0 15 -14 15 -70z m80 27 l25 -42 3 43 c5 69 22 48 22 -28 0 -84
-14 -91 -51 -27 l-24 42 -3 -42 c-5 -70 -22 -49 -22 27 0 83 13 90 50 27z
m180 33 c0 -5 -9 -10 -20 -10 -18 0 -20 -7 -20 -60 0 -47 -3 -60 -15 -60 -12
0 -15 13 -15 60 0 53 -2 60 -20 60 -11 0 -20 5 -20 10 0 6 25 10 55 10 30 0
55 -4 55 -10z m100 0 c0 -5 -11 -10 -25 -10 -18 0 -25 -5 -25 -20 0 -13 7 -20
20 -20 11 0 20 -4 20 -10 0 -5 -9 -10 -20 -10 -13 0 -20 -7 -20 -20 0 -15 7
-20 25 -20 14 0 25 -4 25 -10 0 -5 -18 -10 -40 -10 l-40 0 0 70 0 70 40 0 c22
0 40 -4 40 -10z m100 -5 c10 -12 10 -21 1 -42 -9 -21 -9 -30 4 -49 19 -29 19
-34 1 -34 -8 0 -24 12 -35 28 l-20 27 -1 -27 c0 -18 -5 -28 -15 -28 -12 0 -15
14 -15 70 l0 70 34 0 c18 0 39 -7 46 -15z m87 -27 l28 -42 3 42 c5 69 22 47
22 -28 0 -84 -14 -91 -51 -27 l-24 42 -3 -42 c-5 -70 -22 -49 -22 27 0 39 4
70 10 70 5 0 22 -19 37 -42z m169 -28 c28 -77 27 -70 11 -70 -7 0 -18 9 -24
19 -15 23 -41 21 -59 -4 -25 -34 -27 -6 -3 60 15 44 28 65 37 63 8 -2 25 -32
38 -68z m144 61 c0 -5 -10 -11 -22 -13 -21 -3 -23 -9 -24 -57 -1 -76 -22 -79
-26 -4 -3 51 -6 58 -25 61 -47 7 -21 22 37 22 33 0 60 -4 60 -9z m40 -61 c0
-56 -3 -70 -15 -70 -12 0 -15 14 -15 63 0 35 3 67 7 70 17 18 23 1 23 -63z
m134 48 c35 -50 6 -120 -49 -120 -55 0 -84 70 -49 120 10 15 25 22 49 22 24 0
39 -7 49 -22z m87 -20 l24 -43 3 43 c5 69 22 48 22 -28 0 -83 -13 -90 -50 -27
l-25 42 -3 -42 c-5 -70 -22 -49 -22 27 0 84 14 91 51 28z m166 -24 c12 -32 22
-62 22 -66 2 -15 -27 -8 -33 7 -8 21 -53 19 -65 -2 -5 -10 -12 -15 -15 -12 -6
5 25 107 39 130 13 20 30 1 52 -57z m71 3 c3 -53 5 -57 27 -57 14 0 25 -4 25
-10 0 -5 -18 -10 -40 -10 l-40 0 0 71 c0 52 3 70 13 67 7 -3 13 -27 15 -61z
m52 -227 l0 -30 -1550 0 -1550 0 0 30 0 30 1550 0 1550 0 0 -30z m-1517 -272
l26 -93 -29 -29 -29 -30 -26 28 c-14 15 -25 32 -25 39 -1 20 44 177 50 177 4
0 18 -42 33 -92z m-60 -159 c30 -30 31 -31 46 -11 35 43 116 57 159 27 16 -12
34 -14 71 -9 57 7 98 -11 125 -56 23 -41 20 -80 -12 -131 -43 -66 -52 -71 -85
-45 l-28 23 35 42 c20 24 36 51 36 61 0 28 -29 51 -59 48 -22 -3 -26 -8 -29
-42 -2 -21 -10 -50 -19 -63 -15 -23 -15 -25 8 -40 13 -9 39 -32 57 -51 l32
-34 116 9 115 8 32 -34 c18 -18 52 -47 77 -63 42 -28 43 -30 15 -25 -16 3
-173 31 -347 63 l-318 57 -337 -61 c-186 -34 -343 -62 -348 -62 -6 1 6 10 26
20 21 11 54 36 75 57 l39 38 120 0 c115 0 121 1 145 25 14 14 39 35 55 47 30
21 30 22 13 51 -10 17 -18 46 -18 66 0 33 -2 36 -30 36 -20 0 -34 -8 -45 -24
-19 -28 -12 -50 29 -94 l31 -34 -30 -24 -30 -24 -32 37 c-61 71 -64 140 -9
192 27 26 94 38 122 23 15 -8 25 -6 43 9 16 13 39 19 73 19 42 0 54 -5 81 -31z
m-1150 -176 l87 -6 0 -39 c0 -22 -5 -48 -10 -58 -10 -18 -12 -18 -41 -2 -29
16 -31 16 -44 -2 -33 -44 -6 -87 44 -71 26 8 34 -8 26 -55 -4 -26 -14 -44 -28
-51 -18 -10 -24 -8 -44 16 -13 15 -27 25 -30 21 -6 -5 25 -37 111 -112 l47
-41 -2 -108 c-2 -102 -1 -109 20 -127 32 -25 73 -23 102 6 30 29 62 46 88 46
25 0 27 -13 6 -30 -23 -19 -18 -35 20 -61 19 -13 35 -27 35 -31 0 -5 -18 -8
-39 -8 l-39 0 19 -37 c27 -52 25 -69 -3 -49 -28 20 -38 20 -38 1 0 -12 -9 -11
-47 9 -27 13 -71 31 -99 39 -28 8 -68 24 -90 35 -65 33 -84 36 -84 15 0 -10
-27 -45 -61 -78 -63 -62 -89 -101 -89 -132 1 -10 7 -1 15 21 12 35 79 116 96
116 15 0 113 -80 130 -106 17 -27 17 -29 -3 -68 -11 -23 -32 -54 -46 -71 l-25
-30 66 -3 c37 -2 75 2 86 8 25 13 101 13 101 0 0 -5 -9 -10 -21 -10 -16 0 -19
-4 -14 -17 4 -10 10 -29 13 -42 4 -21 3 -22 -16 -12 -11 6 -28 11 -36 11 -14
0 -14 -4 1 -35 9 -19 15 -37 12 -39 -2 -3 -29 4 -59 15 -44 15 -70 18 -135 13
-61 -5 -90 -2 -118 9 -45 19 -46 35 -9 90 36 53 56 103 47 116 -3 6 -24 11
-46 11 l-39 0 0 -72 0 -73 -82 -78 -82 -78 49 -49 c48 -49 51 -50 108 -50 69
0 91 -10 113 -51 18 -36 14 -45 -15 -29 -20 10 -21 8 -21 -28 0 -47 -10 -59
-24 -30 -16 32 -36 34 -36 4 0 -14 -1 -26 -2 -26 -34 2 -88 37 -132 86 -53 58
-54 59 -74 41 -23 -21 -42 -15 -42 11 0 12 -3 13 -12 4 -19 -19 -28 -14 -28
14 0 14 -13 56 -30 94 -16 38 -30 80 -30 95 0 35 17 65 37 65 13 0 13 -3 3
-16 -11 -12 -11 -18 1 -30 13 -13 18 -12 37 8 20 22 20 28 12 122 -9 86 -13
100 -34 117 -63 50 -55 125 35 320 34 74 64 153 67 176 4 39 2 43 -23 53 -46
17 -79 -6 -83 -58 -2 -31 -9 -46 -27 -58 -15 -10 -26 -29 -30 -55 -4 -21 -15
-49 -25 -61 -19 -23 -19 -23 -34 -3 -8 11 -16 28 -16 37 0 9 -4 20 -10 23 -34
21 19 168 64 179 14 3 26 11 26 17 0 5 21 19 46 31 63 27 123 19 159 -23 41
-49 34 -89 -42 -262 -37 -84 -70 -171 -73 -194 l-7 -42 65 57 c36 31 71 71 78
88 7 18 16 69 20 115 4 46 13 99 20 118 18 44 18 47 -6 26 -20 -18 -20 -17
-20 68 l0 86 -32 3 c-38 4 -46 20 -16 33 15 7 25 22 28 45 4 19 11 44 17 55 9
16 7 23 -13 42 -24 22 -33 63 -14 63 6 0 10 -5 10 -10 0 -6 12 -15 26 -20 21
-8 33 -6 60 11 44 27 84 39 109 33 11 -3 59 -8 108 -11z m2547 -12 c43 -31 65
-33 93 -10 l27 20 0 -24 c0 -13 -9 -32 -20 -42 -13 -11 -18 -25 -14 -34 3 -9
11 -36 18 -61 8 -35 16 -46 34 -48 42 -6 17 -32 -32 -32 -21 0 -22 -4 -22 -85
1 -47 -1 -85 -4 -85 -3 0 -11 9 -18 21 -20 31 -26 16 -8 -19 8 -16 20 -75 25
-130 10 -104 26 -150 63 -176 12 -8 41 -34 65 -57 44 -42 44 -42 38 -13 -3 16
-9 40 -11 54 -3 14 -34 91 -70 171 -73 166 -81 218 -41 264 40 46 141 46 190
1 15 -14 36 -27 48 -31 38 -12 94 -175 60 -175 -5 0 -11 -14 -15 -30 -12 -64
-59 -45 -72 29 -4 20 -17 45 -31 56 -16 14 -25 32 -27 59 -3 42 -25 66 -61 66
-65 0 -59 -57 25 -242 61 -133 70 -160 70 -211 0 -61 -26 -117 -54 -117 -10 0
-16 -29 -21 -106 -7 -98 -6 -108 13 -126 24 -25 46 -15 39 18 -7 38 20 29 33
-10 10 -31 8 -43 -16 -98 -14 -35 -31 -82 -37 -105 -11 -40 -27 -58 -27 -30 0
6 -9 1 -19 -13 -18 -23 -20 -24 -38 -8 -18 16 -20 16 -45 -7 -15 -14 -39 -40
-54 -60 -17 -22 -35 -35 -50 -35 -12 0 -26 -4 -29 -10 -12 -19 -24 -10 -33 23
l-9 32 -17 -33 c-21 -41 -29 -36 -28 18 1 38 -10 52 -23 30 -10 -15 -25 -12
-25 6 0 8 13 29 29 45 26 25 37 29 88 29 55 0 61 3 112 48 l55 48 -88 86 -88
85 6 84 c3 46 3 76 0 67 -4 -13 -16 -18 -46 -18 l-41 0 6 -37 c4 -20 23 -61
43 -91 l37 -53 -22 -22 c-20 -20 -32 -22 -139 -23 -86 0 -127 -5 -156 -17 -38
-17 -38 -17 -33 6 2 12 8 30 12 40 5 13 2 17 -12 17 -10 0 -24 -5 -31 -12 -19
-19 -26 -1 -13 29 17 36 16 37 -11 44 l-23 6 25 10 c17 7 35 7 55 0 16 -6 66
-12 109 -15 l79 -4 -27 33 c-30 36 -66 101 -66 122 0 15 58 73 108 107 l34 22
35 -33 c19 -19 44 -47 54 -64 10 -16 19 -25 19 -19 0 16 -39 64 -93 114 -26
25 -50 54 -52 65 -2 11 -4 21 -4 23 -1 1 -18 -5 -38 -14 -21 -9 -80 -32 -132
-50 -52 -19 -105 -41 -117 -49 -29 -19 -34 -19 -34 0 0 19 -9 19 -32 -2 -28
-25 -32 -9 -9 41 l20 46 -35 0 c-43 0 -43 11 2 45 34 26 34 28 20 51 -9 13
-16 26 -16 30 0 16 65 -9 97 -36 40 -36 78 -38 110 -8 19 18 23 31 22 82 -1
50 -3 55 -8 26 l-6 -35 -30 42 c-29 41 -45 53 -45 33 0 -5 -4 -10 -10 -10 -5
0 -10 7 -10 15 0 8 -16 33 -36 54 l-35 40 -34 -16 c-31 -15 -83 -11 -59 5 20
13 36 54 30 77 -4 14 -16 25 -33 30 l-28 7 28 15 c18 9 26 20 23 29 -6 14 22
34 48 34 8 0 30 -26 49 -57 23 -40 49 -69 87 -94 30 -20 57 -45 60 -55 6 -16
8 -15 13 7 4 15 30 42 68 69 57 42 87 76 76 86 -2 3 -12 -7 -21 -21 -9 -14
-22 -25 -30 -25 -19 0 -42 31 -49 67 -7 37 9 55 41 46 24 -6 52 11 52 32 0 7
-9 23 -19 36 -18 22 -21 23 -46 9 -24 -13 -28 -13 -40 4 -8 10 -12 35 -11 55
l4 36 92 7 c50 3 94 9 98 12 10 10 64 -4 92 -23z m-1015 -196 c193 -36 351
-65 353 -65 1 0 2 -238 2 -529 l0 -528 -37 -74 c-52 -105 -223 -275 -388 -385
-159 -106 -263 -159 -295 -151 -36 9 -197 103 -303 177 -51 36 -142 114 -203
175 -88 88 -118 125 -147 184 l-37 74 0 528 0 529 23 5 c12 3 135 26 272 51
138 25 282 51 320 59 39 7 75 13 80 14 6 0 168 -28 360 -64z m-1177 -3 c7 -5
10 -16 6 -25 -4 -12 1 -20 20 -27 32 -12 33 -18 1 -30 -29 -11 -34 -54 -10
-86 8 -10 15 -22 15 -26 0 -13 -33 -9 -64 7 -28 15 -31 14 -57 -11 -15 -14
-33 -40 -40 -56 -9 -22 -14 -26 -21 -16 -9 14 -23 1 -59 -53 -17 -23 -17 -22
-20 59 l-4 84 35 20 c49 30 89 68 107 103 31 60 58 77 91 57z m12 -662 c62
-44 62 -118 3 -278 -35 -93 -36 -103 -37 -234 -1 -157 -6 -160 -57 -40 -28 66
-33 89 -33 162 -1 85 -1 85 52 175 49 86 60 123 46 159 -9 24 -33 19 -44 -9
-12 -31 -54 -34 -70 -6 -12 24 1 65 27 80 29 17 83 13 113 -9z m1751 9 c27
-14 42 -55 29 -80 -16 -28 -58 -25 -72 6 -14 32 -36 32 -44 0 -10 -41 2 -78
53 -161 48 -77 48 -78 47 -163 0 -74 -5 -97 -33 -163 -51 -120 -56 -117 -57
40 -1 131 -3 141 -37 234 -58 158 -58 232 0 278 28 22 82 26 114 9z m-130
-431 c17 -34 20 -55 17 -117 -4 -79 -19 -123 -62 -176 -30 -37 -39 -30 -24 18
11 35 9 40 -20 76 -44 55 -44 65 3 71 29 4 39 9 36 20 -11 49 -12 92 -1 124
14 42 23 39 51 -16z m-1547 -2 c7 -24 6 -51 -1 -76 -5 -22 -8 -42 -5 -45 3 -3
20 -5 39 -5 43 0 43 -19 1 -71 -29 -36 -31 -41 -20 -76 15 -48 6 -55 -24 -18
-51 63 -66 112 -62 199 5 121 51 178 72 92z m-281 -166 c14 -16 31 -46 37 -67
7 -21 33 -78 58 -127 146 -286 415 -507 731 -603 69 -21 108 -26 196 -27 98
-1 121 3 215 33 353 112 631 365 766 696 50 125 66 137 143 110 24 -8 63 -15
86 -15 69 0 71 -9 44 -170 -20 -122 -21 -148 -11 -197 6 -31 19 -67 27 -80
l16 -24 43 58 c82 109 182 182 291 211 59 15 68 15 93 2 20 -12 28 -26 34 -60
4 -25 17 -70 29 -102 24 -65 18 -87 -34 -118 -41 -25 -78 -25 -108 0 -29 23
-18 26 16 4 23 -15 27 -15 62 3 28 13 39 25 41 46 4 34 -15 43 -63 27 -59 -19
-130 -84 -194 -177 -79 -116 -87 -121 -157 -92 -49 21 -58 22 -104 10 -27 -7
-57 -10 -68 -7 -30 10 -79 67 -109 129 l-29 57 -37 -48 c-66 -88 -233 -240
-336 -307 -163 -107 -325 -175 -504 -211 -352 -71 -843 149 -1130 508 l-45 56
-31 -63 c-17 -35 -48 -78 -68 -95 -34 -30 -40 -32 -82 -25 -69 12 -97 10 -141
-10 -37 -17 -41 -17 -64 -1 -14 9 -49 51 -78 94 -28 42 -64 89 -80 104 l-29
27 -24 -25 c-30 -30 -78 -32 -122 -4 -41 25 -50 59 -29 113 8 23 20 67 26 97
15 82 45 95 148 65 101 -30 227 -132 304 -245 l16 -25 21 45 c26 56 28 153 5
270 -8 45 -14 98 -12 118 l3 37 65 6 c36 4 76 11 90 17 40 17 57 14 83 -18z
m487 -177 c14 -9 59 -46 100 -83 100 -88 159 -134 195 -153 25 -13 26 -16 9
-17 -20 0 -61 23 -212 120 -63 41 -94 54 -132 58 -46 4 -52 2 -85 -31 -19 -19
-35 -42 -35 -51 0 -9 -5 -16 -11 -16 -7 0 -10 17 -7 45 3 41 1 45 -19 45 -13
0 -33 10 -45 23 l-23 22 40 6 c22 3 56 15 75 27 43 27 115 29 150 5z m1230 -5
c19 -12 53 -24 75 -27 l40 -6 -22 -22 c-13 -13 -33 -23 -46 -23 -20 0 -22 -4
-19 -45 3 -28 0 -45 -7 -45 -6 0 -11 7 -11 16 0 9 -16 32 -35 51 -33 33 -39
35 -85 31 -38 -4 -69 -17 -132 -58 -149 -96 -192 -120 -211 -120 -13 0 1 14
39 39 32 21 102 77 155 124 54 46 105 90 115 96 33 18 106 13 144 -11z m-1180
-115 c65 -34 79 -57 28 -48 -22 4 -49 1 -76 -10 -39 -16 -44 -16 -61 -1 -10 9
-27 16 -39 16 -12 0 -22 4 -22 8 0 21 64 60 101 61 8 1 40 -11 69 -26z m1119
-1 c34 -25 38 -42 10 -42 -12 0 -30 -7 -40 -16 -17 -15 -22 -15 -61 1 -27 11
-54 14 -76 10 -51 -10 -37 14 28 48 60 31 96 31 139 -1z m-942 -111 c45 -28
61 -32 122 -32 39 0 73 -4 76 -8 13 -22 -98 -81 -151 -81 -29 0 -44 8 -77 41
-49 49 -69 60 -86 50 -10 -7 -10 -14 3 -39 14 -28 14 -32 0 -46 -19 -20 -23
-20 -46 1 -26 23 -24 92 4 128 18 24 27 27 62 23 23 -3 64 -19 93 -37z m778
19 c26 -29 32 -106 10 -130 -22 -24 -29 -25 -49 -4 -14 13 -14 19 -1 43 10 20
11 31 3 39 -16 16 -38 4 -84 -45 -34 -36 -47 -43 -78 -43 -53 0 -164 59 -151
81 3 4 37 8 76 8 63 0 76 4 127 35 66 41 119 47 147 16z m-475 -120 c0 -6 -10
-29 -21 -52 -16 -32 -20 -52 -15 -85 10 -78 -25 -123 -81 -103 -34 13 -54 37
-46 56 7 18 27 18 43 -1 7 -8 16 -15 21 -15 13 0 11 44 -2 74 -16 35 4 81 50
112 39 26 51 30 51 14z m55 -10 c18 -11 41 -32 50 -47 16 -23 16 -32 5 -80
-15 -59 -9 -74 18 -50 27 24 42 21 42 -9 0 -19 -8 -28 -36 -40 -32 -14 -38
-13 -60 1 -24 15 -26 15 -44 -7 -15 -19 -22 -21 -37 -12 -11 7 -17 21 -16 35
10 97 19 144 28 144 6 0 13 -26 16 -58 9 -81 24 -89 26 -15 1 44 -4 72 -18 99
-32 63 -26 71 26 39z m-1447 -777 c29 -31 28 -75 -2 -109 -67 -79 -189 19
-130 104 33 47 92 49 132 5z m92 -5 c0 -21 2 -20 30 7 16 16 33 25 37 22 4 -4
-9 -20 -28 -36 l-34 -29 33 -34 c44 -46 42 -71 -3 -28 l-35 34 0 -26 c0 -15
-4 -30 -10 -33 -6 -4 -10 23 -10 75 0 52 4 79 10 75 6 -3 10 -16 10 -27z m260
-49 c0 -39 -4 -69 -10 -69 -6 0 -10 32 -10 76 0 47 4 73 10 69 6 -3 10 -37 10
-76z m196 67 c10 -8 16 -18 11 -22 -4 -4 -13 -2 -19 4 -32 32 -98 0 -98 -46 0
-50 65 -83 98 -50 6 6 15 8 19 4 12 -12 -27 -36 -58 -36 -44 0 -79 35 -79 80
0 30 6 43 26 59 31 24 72 27 100 7z m254 -11 c0 -7 6 -16 13 -19 10 -5 10 -7
0 -12 -8 -3 -13 -24 -13 -50 0 -24 -4 -44 -10 -44 -5 0 -10 20 -10 45 0 41 -2
45 -24 45 -27 0 -36 -16 -36 -68 0 -25 -3 -33 -11 -25 -14 14 -7 108 9 109 6
1 23 2 37 3 18 1 25 7 25 22 0 11 5 17 10 14 6 -3 10 -12 10 -20z m50 15 c0
-5 -4 -10 -10 -10 -5 0 -10 5 -10 10 0 6 5 10 10 10 6 0 10 -4 10 -10z m60 1
c0 -5 -6 -12 -12 -14 -10 -4 -9 -8 2 -17 11 -9 12 -13 3 -17 -8 -3 -13 -23
-13 -49 0 -24 -4 -44 -9 -44 -12 0 -19 99 -9 128 7 21 38 32 38 13z m30 -1 c0
-5 -4 -10 -10 -10 -5 0 -10 5 -10 10 0 6 5 10 10 10 6 0 10 -4 10 -10z m324
-33 c8 -6 8 -10 -1 -14 -8 -3 -14 -26 -15 -56 l-2 -52 -3 50 c-3 27 -10 53
-16 58 -9 7 -9 10 1 14 6 2 13 14 13 26 1 21 2 21 6 2 3 -11 10 -24 17 -28z
m46 33 c0 -5 -7 -10 -15 -10 -8 0 -15 5 -15 10 0 6 7 10 15 10 8 0 15 -4 15
-10z m330 -71 c0 -51 -4 -78 -10 -74 -18 11 -12 155 7 155 2 0 3 -36 3 -81z
m486 67 c10 -8 16 -18 11 -22 -4 -4 -13 -2 -19 4 -32 32 -98 0 -98 -46 0 -50
65 -83 98 -50 6 6 15 8 19 4 12 -12 -27 -36 -58 -36 -73 0 -109 95 -53 139 31
24 72 27 100 7z m484 4 c0 -5 -7 -10 -15 -10 -8 0 -15 5 -15 10 0 6 7 10 15
10 8 0 15 -4 15 -10z m189 -34 c18 4 32 0 40 -10 17 -21 27 -96 12 -96 -6 0
-11 15 -11 33 -1 74 -48 79 -67 7 -11 -45 -11 -44 -11 35 1 44 3 68 5 53 4
-24 8 -27 32 -22z m111 19 c0 -7 6 -16 13 -19 10 -5 10 -7 0 -12 -8 -3 -13
-24 -13 -49 0 -24 -4 -47 -10 -50 -6 -4 -10 13 -10 44 0 30 -5 52 -12 55 -10
5 -10 7 0 12 6 3 12 15 12 25 0 11 5 17 10 14 6 -3 10 -12 10 -20z m-2629 -52
c16 -36 28 -71 26 -77 -3 -6 -10 1 -17 17 -11 21 -20 27 -47 27 -27 0 -36 -5
-45 -27 -8 -21 -12 -24 -15 -11 -4 16 52 138 63 138 2 0 18 -30 35 -67z m391
20 c32 -28 22 -43 -28 -43 -38 0 -45 -3 -42 -17 4 -21 45 -30 61 -14 20 20 31
11 12 -9 -34 -38 -95 -13 -95 38 0 53 54 79 92 45z m178 -44 c0 -27 -4 -49
-10 -49 -5 0 -10 25 -10 56 0 34 4 53 10 49 6 -3 10 -28 10 -56z m90 6 c0 -30
-4 -55 -10 -55 -11 0 -14 93 -3 103 12 12 13 8 13 -48z m120 40 c10 -12 6 -13
-26 -8 -42 7 -66 -13 -57 -47 6 -24 32 -33 70 -25 27 6 27 6 9 -9 -58 -46
-129 31 -79 86 19 22 66 24 83 3z m140 -45 l0 -55 -40 -2 c-32 -2 -43 2 -60
24 -37 47 -4 95 62 91 l38 -3 0 -55z m103 0 c-1 -28 -4 -54 -7 -57 -3 -4 -6
22 -6 57 0 35 3 60 7 57 3 -4 6 -30 6 -57z m109 48 c27 -22 30 -53 7 -81 -11
-15 -28 -27 -38 -27 -29 0 -61 30 -61 57 0 51 54 81 92 51z m125 1 c15 -13 18
-99 3 -99 -5 0 -10 20 -10 45 0 37 -3 45 -18 45 -27 0 -42 -20 -42 -57 0 -18
-4 -33 -10 -33 -9 0 -15 92 -6 101 10 9 71 8 83 -2z m210 0 c8 -7 12 -30 12
-58 -1 -25 -3 -35 -6 -21 -9 60 -14 70 -33 70 -24 0 -32 -14 -41 -65 -6 -37
-7 -35 -8 20 l-1 60 32 2 c17 1 38 -2 45 -8z m127 5 c28 -11 17 -24 -14 -18
-51 11 -81 -36 -44 -67 12 -10 22 -10 45 -2 32 13 40 0 10 -17 -29 -15 -49
-12 -71 10 -49 49 7 120 74 94z m378 -11 c34 -30 12 -103 -31 -103 -29 0 -61
30 -61 57 0 54 54 81 92 46z m144 -8 c19 -26 17 -52 -6 -75 -23 -23 -50 -26
-68 -8 -9 9 -12 6 -12 -15 0 -15 -4 -27 -10 -27 -6 0 -10 31 -10 74 l0 74 46
-2 c32 -1 50 -7 60 -21z m54 -17 l19 -43 17 43 c9 23 21 42 26 42 4 0 8 -2 8
-5 0 -14 -64 -145 -71 -145 -5 0 -4 11 1 26 8 19 5 34 -10 64 -11 22 -20 44
-20 50 0 21 12 9 30 -32z m150 -19 c0 -37 -4 -58 -10 -54 -5 3 -10 26 -10 51
0 57 -26 62 -35 7 -11 -68 -13 -69 -14 -8 l-1 60 35 2 35 3 0 -61z m132 -10
c-1 -46 -7 -67 -19 -76 -25 -19 -57 -16 -78 7 -10 11 -13 20 -7 20 6 0 14 -4
17 -10 9 -14 48 -13 63 2 20 20 14 28 -13 16 -54 -25 -100 48 -58 94 12 14 27
18 57 15 l41 -4 -3 -64z m-792 -34 c0 -8 -4 -15 -10 -15 -5 0 -10 7 -10 15 0
8 5 15 10 15 6 0 10 -7 10 -15z"/>
<path d="M3257 5318 c-43 -121 -76 -223 -73 -225 2 -2 68 -2 148 -1 l145 3
-47 165 c-76 263 -81 280 -89 280 -4 0 -42 -100 -84 -222z"/>
<path d="M1788 4365 c-8 -19 -8 -31 0 -50 19 -42 62 -25 62 25 0 50 -43 67
-62 25z"/>
<path d="M1930 4370 c0 -13 5 -20 13 -17 6 2 12 10 12 17 0 7 -6 15 -12 18 -8
2 -13 -5 -13 -18z"/>
<path d="M2156 4355 c-9 -23 -8 -25 9 -25 17 0 19 9 6 28 -7 11 -10 10 -15 -3z"/>
<path d="M2336 4355 c-9 -23 -8 -25 9 -25 17 0 19 9 6 28 -7 11 -10 10 -15 -3z"/>
<path d="M2456 4383 c-12 -12 -6 -33 9 -33 8 0 15 6 15 14 0 17 -14 28 -24 19z"/>
<path d="M2560 4363 c0 -25 1 -26 16 -11 9 9 13 21 10 27 -13 20 -26 11 -26
-16z"/>
<path d="M2666 4383 c-12 -12 -6 -33 9 -33 8 0 15 6 15 14 0 17 -14 28 -24 19z"/>
<path d="M2784 4376 c-3 -8 -4 -29 -2 -48 2 -28 7 -33 28 -33 27 0 37 26 26
71 -7 27 -43 34 -52 10z"/>
<path d="M3046 4345 c-3 -9 0 -15 9 -15 8 0 15 7 15 15 0 8 -4 15 -9 15 -5 0
-11 -7 -15 -15z"/>
<path d="M3730 4370 c0 -13 5 -20 13 -17 6 2 12 10 12 17 0 7 -6 15 -12 18 -8
2 -13 -5 -13 -18z"/>
<path d="M3987 4355 c-8 -20 -4 -29 11 -24 5 2 6 13 2 23 -6 19 -7 19 -13 1z"/>
<path d="M4278 4365 c-8 -19 -8 -31 0 -50 19 -42 62 -25 62 25 0 50 -43 67
-62 25z"/>
<path d="M4557 4351 c-3 -14 0 -21 9 -21 16 0 18 9 5 28 -6 10 -10 9 -14 -7z"/>
<path d="M3045 3646 c-25 -18 -23 -66 5 -106 l23 -32 -29 -24 -29 -24 55 21
c67 25 66 24 45 45 -41 42 -38 104 7 104 17 0 18 2 8 15 -16 19 -60 19 -85 1z"/>
<path d="M3240 3650 c-8 -5 -12 -10 -10 -12 3 -2 14 -8 25 -14 29 -16 29 -45
1 -86 l-24 -36 56 -20 56 -21 -26 26 -26 25 24 36 c28 41 30 59 8 90 -16 23
-57 29 -84 12z"/>
<path d="M1914 3475 c-18 -14 -18 -14 4 -8 12 3 22 9 22 14 0 12 -3 11 -26 -6z"/>
<path d="M4410 3485 c0 -2 10 -10 23 -16 20 -11 21 -11 8 4 -13 16 -31 23 -31
12z"/>
<path d="M2940 3299 c-113 -21 -258 -48 -323 -60 l-118 -21 3 -517 3 -516 34
-65 c24 -48 64 -95 150 -180 121 -121 238 -207 400 -297 l95 -52 79 41 c267
139 530 374 586 523 20 54 21 73 21 560 0 278 -3 505 -8 505 -4 0 -156 27
-337 60 -181 33 -341 59 -355 59 -14 -1 -117 -19 -230 -40z m431 -24 c375 -68
414 -76 437 -85 l23 -10 -3 -497 -3 -498 -28 -53 c-32 -62 -143 -181 -242
-262 -127 -103 -332 -230 -371 -230 -25 0 -213 112 -312 186 -118 88 -263 238
-298 309 l-29 60 -3 497 -3 497 23 6 c18 4 583 110 609 114 3 1 93 -15 200
-34z"/>
<path d="M2845 3057 c-12 -10 -14 -16 -7 -21 21 -12 13 -23 -38 -56 -27 -18
-50 -36 -50 -40 0 -14 18 -21 25 -10 12 19 24 10 65 -49 40 -61 48 -81 30 -81
-5 0 -10 -7 -10 -15 0 -22 16 -18 66 16 46 31 64 31 64 -1 0 -11 11 -27 25
-36 14 -9 24 -22 23 -28 -1 -6 21 -46 50 -89 l51 -78 -73 -112 c-135 -208
-128 -199 -150 -192 -12 4 -42 9 -68 12 -43 5 -50 3 -78 -25 -32 -33 -36 -54
-19 -99 24 -64 135 -143 202 -143 35 0 82 24 91 45 17 45 3 99 -37 143 l-21
22 87 129 c47 70 92 133 100 139 11 9 31 -14 103 -120 49 -73 90 -136 92 -140
2 -4 -8 -23 -22 -41 -52 -68 -47 -139 11 -163 114 -48 299 103 251 203 -24 49
-78 62 -164 37 -18 -5 -34 14 -118 143 -53 81 -96 153 -96 158 0 6 21 44 47
85 26 41 47 80 45 86 -1 6 9 19 23 28 14 9 25 25 25 36 0 32 18 32 65 0 29
-20 52 -29 63 -25 16 6 16 7 0 19 -10 7 -18 16 -18 20 0 13 81 126 90 126 5 0
12 -5 15 -10 7 -11 25 -4 25 10 0 5 -21 23 -47 41 -27 18 -50 34 -52 35 -2 2
1 10 7 17 12 15 -2 38 -22 36 -6 0 -45 -52 -86 -115 -41 -64 -82 -120 -92
-125 -10 -5 -18 -21 -18 -34 0 -13 -8 -29 -18 -34 -11 -6 -36 -35 -57 -65 -24
-34 -42 -53 -51 -49 -8 3 -30 31 -50 63 -20 32 -42 61 -50 64 -8 3 -14 15 -14
26 0 11 -7 23 -16 27 -8 3 -51 59 -95 124 -44 66 -81 119 -82 119 -2 0 -11 -6
-22 -13z m10 -848 c-6 -19 -4 -21 15 -16 29 7 69 -18 82 -52 9 -25 10 -25 23
-7 13 17 14 17 21 -9 6 -23 2 -32 -16 -47 -12 -10 -31 -18 -41 -18 -57 0 -139
68 -139 115 0 27 24 55 46 55 11 0 13 -6 9 -21z m686 11 c23 -13 25 -50 4 -89
-16 -31 -86 -71 -125 -71 -31 0 -60 27 -60 56 0 28 18 41 26 20 8 -20 24 -11
24 12 0 23 51 53 78 45 24 -6 29 6 10 25 -9 9 -8 12 6 12 9 0 26 -5 37 -10z"/>
<path d="M4343 1791 c-28 -58 -62 -123 -74 -143 -22 -36 -22 -38 -5 -81 22
-58 72 -133 94 -142 18 -7 43 19 76 79 18 34 18 35 -3 64 -12 17 -28 62 -37
102 -14 59 -14 83 -5 147 6 42 10 77 9 78 -2 2 -26 -45 -55 -104z"/>
<path d="M1987 1835 c16 -120 2 -211 -42 -270 l-22 -30 34 -57 c19 -32 40 -58
47 -58 22 0 64 54 96 123 l31 69 -30 46 c-16 26 -51 90 -76 142 l-46 95 8 -60z"/>
<path d="M2176 1849 c5 -22 0 -29 -30 -47 -20 -12 -36 -26 -36 -32 0 -15 6
-13 50 15 34 22 41 23 46 10 4 -8 10 -15 15 -15 10 0 -10 43 -35 75 -16 19
-16 19 -10 -6z"/>
<path d="M4194 1858 c3 -10 9 -25 12 -33 5 -11 -1 -15 -19 -15 -14 0 -29 -4
-32 -10 -4 -6 8 -10 30 -10 20 0 45 -5 57 -11 30 -16 34 -2 7 25 -13 13 -32
34 -42 47 -12 16 -16 18 -13 7z"/>
<path d="M4117 1741 c-25 -37 -27 -68 -2 -34 11 14 15 13 50 -10 21 -14 43
-23 49 -20 5 4 -1 13 -14 22 -58 39 -65 48 -51 65 7 9 9 16 4 16 -6 0 -22 -18
-36 -39z"/>
<path d="M2187 1735 c-20 -14 -37 -30 -37 -35 0 -14 14 -12 28 2 17 17 25 3
12 -21 -6 -12 -8 -26 -4 -33 4 -7 12 -1 21 16 7 14 22 26 33 26 28 0 34 18 16
45 -20 31 -23 31 -69 0z m59 -6 c10 -17 -13 -36 -27 -22 -12 12 -4 33 11 33 5
0 12 -5 16 -11z"/>
<path d="M2247 1655 c-42 -39 -44 -44 -19 -75 21 -26 42 -22 86 16 40 35 24
43 -19 10 -35 -27 -65 -29 -65 -5 0 7 17 26 37 44 20 17 32 34 27 38 -6 3 -27
-9 -47 -28z"/>
<path d="M4070 1673 c1 -14 89 -73 95 -64 3 5 -12 23 -34 40 -38 30 -61 39
-61 24z"/>
<path d="M1426 1644 c-21 -54 86 -101 128 -55 20 21 11 31 -47 56 -47 19 -73
19 -81 -1z"/>
<path d="M4026 1611 c-6 -9 60 -71 75 -71 3 0 16 11 29 25 25 27 17 35 -10 10
-14 -13 -20 -11 -52 15 -20 17 -39 26 -42 21z"/>
<path d="M2330 1585 c-7 -8 -10 -25 -6 -39 8 -32 -10 -43 -35 -20 -10 9 -19
13 -19 7 0 -17 38 -45 57 -41 13 2 18 13 19 38 2 54 3 54 25 34 15 -13 20 -14
17 -5 -2 8 -13 20 -25 28 -17 12 -22 11 -33 -2z"/>
<path d="M3990 1562 c0 -13 64 -72 78 -72 19 0 15 7 -25 45 -38 34 -53 42 -53
27z"/>
<path d="M2403 1522 c16 -17 15 -20 -18 -52 -19 -18 -32 -37 -28 -42 3 -6 22
7 43 27 23 23 40 33 44 26 4 -6 12 -11 19 -11 6 0 -4 16 -23 35 -34 35 -67 50
-37 17z"/>
<path d="M3935 1510 c-18 -20 -18 -21 21 -61 l39 -40 23 26 c18 21 20 30 11
41 -6 8 -17 14 -24 14 -7 0 -15 9 -18 20 -7 26 -29 26 -52 0z m35 -15 c0 -8
-4 -15 -9 -15 -13 0 -22 16 -14 24 11 11 23 6 23 -9z m40 -41 c0 -17 -22 -14
-28 4 -2 7 3 12 12 12 9 0 16 -7 16 -16z"/>
<path d="M3864 1427 c9 -35 36 -97 42 -97 3 0 3 7 0 16 -10 25 22 55 50 48 36
-9 29 2 -19 31 -56 32 -81 33 -73 2z m47 -30 c-9 -9 -14 -8 -21 3 -16 24 -11
31 11 19 16 -8 18 -14 10 -22z"/>
<path d="M2450 1405 c0 -9 5 -15 11 -13 6 2 11 8 11 13 0 5 -5 11 -11 13 -6 2
-11 -4 -11 -13z"/>
<path d="M3810 1407 c0 -5 10 -23 22 -40 l22 -30 -25 7 c-42 14 -79 19 -79 11
0 -12 62 -86 68 -81 2 3 -3 17 -13 32 -19 30 -23 29 53 8 15 -4 22 -2 22 7 0
15 -69 99 -70 86z"/>
<path d="M2526 1385 c-3 -8 0 -26 6 -40 14 -31 4 -43 -22 -27 -29 18 -35 15
-15 -8 11 -12 28 -20 39 -18 18 3 21 9 19 46 -1 30 2 42 12 42 7 0 15 -6 18
-12 2 -7 8 -9 13 -5 11 10 -23 37 -47 37 -9 0 -19 -7 -23 -15z"/>
<path d="M2596 1323 c-14 -20 -26 -45 -26 -55 0 -18 28 -38 53 -38 17 0 72 79
62 88 -4 4 -12 -2 -19 -12 -27 -46 -51 -66 -66 -56 -13 8 -12 16 9 55 30 57
21 69 -13 18z"/>
<path d="M3731 1280 c17 -28 35 -47 40 -44 6 3 5 14 -4 27 -8 12 -20 32 -28
45 -8 12 -19 22 -26 22 -8 0 -1 -20 18 -50z"/>
<path d="M3646 1291 c-9 -14 5 -121 15 -121 5 0 9 11 9 24 0 28 33 44 55 26 7
-6 15 -7 18 -3 3 5 -11 22 -31 39 -50 41 -60 46 -66 35z m38 -52 c-10 -16 -24
-9 -24 12 0 18 2 19 15 9 8 -7 12 -16 9 -21z"/>
<path d="M2709 1277 c-13 -7 -28 -25 -34 -41 -8 -25 -6 -31 18 -52 30 -25 47
-31 47 -14 0 6 -7 10 -15 10 -8 0 -19 9 -25 21 -9 16 -8 26 5 45 18 28 32 30
63 8 12 -8 22 -10 22 -5 0 6 -13 17 -28 25 -23 12 -33 12 -53 3z"/>
<path d="M3558 1249 c-43 -22 -49 -32 -15 -24 20 5 26 0 42 -34 10 -23 22 -41
27 -41 12 0 10 15 -9 55 -16 34 -16 36 3 50 29 22 -3 18 -48 -6z"/>
<path d="M2786 1218 c-9 -12 -16 -33 -16 -45 0 -25 42 -58 62 -50 8 4 5 8 -9
12 -27 9 -38 37 -23 65 12 22 49 27 68 8 9 -9 12 -9 12 0 0 14 -32 32 -59 32
-11 0 -27 -10 -35 -22z"/>
<path d="M3469 1212 c-29 -24 -20 -48 20 -57 36 -8 41 -30 9 -40 -13 -3 -18
-9 -11 -11 7 -3 21 0 33 6 32 17 22 53 -17 65 -38 11 -42 22 -11 34 12 4 17
10 11 14 -6 4 -21 -1 -34 -11z"/>
<path d="M2886 1163 c-21 -61 -21 -59 15 -72 38 -13 39 -13 39 -2 0 5 -12 12
-26 15 -30 8 -27 31 5 30 25 -1 27 5 4 21 -23 17 -7 36 25 29 l27 -5 -25 15
c-39 24 -47 20 -64 -31z"/>
<path d="M3413 1169 c13 -70 13 -74 -8 -74 -15 0 -24 11 -33 43 -16 50 -37 57
-27 10 14 -69 55 -99 85 -63 14 17 5 101 -12 111 -8 5 -9 -3 -5 -27z"/>
<path d="M2987 1173 c-13 -12 -7 -40 13 -58 29 -26 25 -38 -10 -31 -36 7 -41
-9 -6 -18 54 -13 73 20 35 60 -25 26 -18 45 13 36 14 -3 19 -2 14 6 -8 13 -48
16 -59 5z"/>
<path d="M3268 1159 c-29 -16 -22 -49 12 -60 34 -12 41 -39 10 -39 -11 0 -20
-4 -20 -10 0 -17 29 -11 50 10 24 24 18 43 -20 57 -34 13 -40 33 -10 33 11 0
20 5 20 10 0 13 -20 12 -42 -1z"/>
<path d="M3073 1144 c-3 -8 4 -25 16 -38 29 -31 27 -50 -4 -44 -29 6 -34 -8
-5 -17 23 -7 60 10 60 29 0 7 -11 23 -25 36 -27 25 -24 44 6 35 11 -4 19 -2
19 4 0 17 -60 13 -67 -5z"/>
<path d="M3190 1095 c0 -9 5 -15 11 -13 6 2 11 8 11 13 0 5 -5 11 -11 13 -6 2
-11 -4 -11 -13z"/>
<path d="M1710 762 c-54 -17 -67 -77 -24 -111 33 -26 45 -26 78 0 17 13 26 30
26 48 0 39 -45 75 -80 63z m46 -27 c18 -15 18 -15 -9 -9 -26 6 -57 -8 -57 -27
0 -4 7 -15 16 -23 12 -12 20 -14 36 -5 23 12 39 2 18 -11 -55 -35 -107 24 -63
72 20 22 33 23 59 3z"/>
<path d="M2027 723 c-12 -12 -7 -33 8 -33 17 0 19 9 7 28 -5 7 -11 9 -15 5z"/>
<path d="M2397 714 c-15 -16 -5 -24 29 -24 24 0 34 4 32 13 -5 13 -50 22 -61
11z"/>
<path d="M2900 701 c-21 -40 20 -77 58 -52 8 5 12 21 10 37 -2 23 -9 30 -30
32 -19 2 -30 -3 -38 -17z"/>
<path d="M3137 713 c-11 -11 -8 -48 5 -61 32 -32 87 18 58 53 -13 15 -51 20
-63 8z"/>
<path d="M3977 713 c-13 -13 -7 -61 9 -67 42 -16 74 16 54 54 -10 19 -49 27
-63 13z"/>
<path d="M4110 705 c-26 -32 13 -81 48 -59 34 22 22 74 -18 74 -10 0 -23 -7
-30 -15z"/>
<path d="M4437 713 c-12 -12 -7 -50 8 -63 32 -27 82 23 55 55 -13 15 -51 20
-63 8z"/>
</g>
</svg>
