<?xml version="1.0" standalone="no"?>
<!DOCTYPE svg PUBLIC "-//W3C//DTD SVG 20010904//EN"
 "http://www.w3.org/TR/2001/REC-SVG-20010904/DTD/svg10.dtd">
<svg version="1.0" xmlns="http://www.w3.org/2000/svg"
 width="2362.000000pt" height="984.000000pt" viewBox="0 0 2362.000000 984.000000"
 preserveAspectRatio="xMidYMid meet">

<g transform="translate(0.000000,984.000000) scale(0.100000,-0.100000)"
fill="white" stroke="none">
<path d="M0 4920 l0 -4920 11810 0 11810 0 0 4920 0 4920 -11810 0 -11810 0 0
-4920z m4450 2955 c133 -401 254 -754 267 -783 16 -34 40 -64 66 -83 34 -25
49 -29 104 -29 l63 0 0 -50 0 -50 -381 0 -380 0 3 48 3 47 60 5 c33 3 66 9 73
13 22 15 12 69 -56 302 l-67 230 -252 3 c-237 2 -253 1 -262 -16 -6 -10 -37
-99 -70 -198 -95 -281 -86 -334 60 -334 l69 0 0 -50 0 -50 -307 2 -308 3 0 45
0 45 71 6 c82 6 118 27 164 94 32 47 509 1266 517 1321 3 20 -1 42 -12 57 -19
30 -21 28 75 57 83 24 172 67 209 99 20 17 27 19 37 9 6 -7 121 -341 254 -743z
m2878 -3020 c1 -2046 0 -3725 -2 -3731 -2 -6 -20 -8 -40 -6 l-36 4 0 3730 0
3729 38 -3 37 -3 3 -3720z m-5188 3655 l0 -50 -53 0 c-31 0 -61 -6 -75 -16
-22 -15 -22 -16 -22 -341 l0 -325 28 7 c41 10 64 27 124 97 116 132 409 504
414 526 10 35 -12 52 -68 52 l-49 0 3 48 3 47 285 0 285 0 0 -45 0 -45 -70 -5
c-120 -9 -144 -28 -411 -323 l-224 -248 22 -32 c127 -181 639 -856 654 -862
10 -5 44 -11 74 -14 l55 -6 0 -45 0 -45 -348 -3 -348 -2 3 47 c3 46 4 48 37
49 18 1 40 9 49 17 18 19 35 -9 -250 409 -104 153 -197 282 -208 288 -10 5
-28 10 -39 10 -21 0 -21 -3 -21 -340 0 -327 1 -341 20 -360 15 -15 33 -20 75
-20 l55 0 0 -50 0 -50 -332 2 -333 3 0 45 0 45 61 3 c104 5 94 -62 101 739 l6
699 -28 22 c-21 16 -41 22 -81 22 l-54 0 0 50 0 50 330 0 330 0 0 -50z m3860
1 l0 -49 -76 -4 c-60 -3 -79 -7 -90 -23 -12 -16 -14 -134 -14 -717 0 -815 -12
-738 115 -738 l75 0 0 -50 0 -50 -377 2 -378 3 0 45 0 45 82 5 c45 3 85 9 90
13 16 17 21 194 22 803 1 726 14 656 -123 664 l-81 5 -3 33 c-6 66 -29 62 383
62 l375 0 0 -49z m8813 1 c85 -46 127 -121 127 -224 0 -74 -22 -129 -71 -177
-134 -134 -371 -77 -424 103 -19 63 -19 90 1 155 20 70 92 143 160 165 66 21
144 13 207 -22z m-4474 -27 c265 -63 450 -313 451 -608 1 -377 -260 -646 -626
-647 -284 0 -517 181 -590 460 -23 87 -23 253 0 340 59 225 221 392 436 451
82 22 242 24 329 4z m3677 -335 c237 -662 264 -731 304 -772 27 -27 47 -38 83
-43 47 -7 47 -7 47 -46 l0 -39 -252 2 -253 3 0 33 c0 32 3 35 50 50 44 15 50
21 53 47 1 17 -17 83 -41 150 l-44 120 -189 0 -189 0 -37 -110 c-38 -113 -47
-178 -26 -191 7 -4 35 -13 63 -19 48 -11 50 -13 50 -46 l0 -34 -210 0 -210 0
-3 36 c-3 35 -2 36 39 43 62 10 96 31 123 79 13 23 113 269 221 547 109 278
202 510 207 517 5 6 19 14 31 16 59 12 53 22 183 -343z m-5241 290 c0 -34 -1
-35 -45 -40 -63 -8 -88 -25 -100 -68 -5 -20 -10 -124 -10 -230 l0 -192 43 21
c72 36 397 391 397 434 0 19 -18 28 -65 35 -38 5 -40 7 -40 40 l0 35 238 3
237 2 0 -38 0 -39 -57 -6 c-111 -12 -170 -51 -356 -240 -93 -94 -166 -176
-163 -183 19 -49 380 -508 450 -572 50 -45 103 -72 144 -72 9 0 12 -12 10 -37
l-3 -38 -167 -3 -168 -2 -210 282 c-116 156 -223 291 -238 300 -54 35 -54 38
-50 -212 4 -267 3 -265 105 -285 57 -11 58 -12 58 -46 l0 -34 -265 0 -265 0 0
35 c0 30 4 35 25 38 74 10 102 23 116 57 20 50 21 909 0 959 -15 36 -54 56
-112 56 -33 0 -34 1 -34 40 l0 40 263 -2 262 -3 0 -35z m2825 30 c142 -18 256
-101 289 -210 14 -46 14 -143 1 -192 -18 -62 -71 -130 -137 -174 -34 -23 -67
-44 -74 -46 -25 -8 229 -406 301 -472 22 -20 57 -44 76 -53 30 -15 35 -21 32
-48 -3 -29 -5 -30 -53 -33 -69 -5 -169 15 -224 43 -76 39 -131 109 -250 320
-84 149 -104 167 -181 173 l-60 4 0 -186 c0 -216 6 -238 68 -255 20 -6 50 -11
65 -11 26 0 28 -2 25 -37 l-3 -38 -265 0 -265 0 -3 36 -3 36 52 6 c67 8 96 28
108 74 15 52 15 875 0 926 -12 44 -52 67 -114 67 -34 0 -35 1 -35 40 l0 40
288 0 c158 0 321 -5 362 -10z m1434 -12 c3 -13 7 -77 8 -143 l3 -120 -36 -3
c-34 -3 -37 -1 -43 30 -4 18 -19 56 -34 83 -41 76 -67 85 -244 85 l-147 0 -6
-32 c-3 -18 -5 -121 -3 -228 l3 -195 65 -3 c36 -2 98 0 139 3 86 8 113 27 131
94 10 38 13 41 45 41 l35 0 0 -190 0 -190 -34 0 c-32 0 -35 2 -46 49 -6 28
-22 59 -37 72 -23 22 -34 24 -164 27 l-139 4 0 -181 c0 -99 5 -203 11 -231 16
-74 35 -83 179 -88 200 -7 247 17 317 165 34 71 35 72 66 66 18 -3 34 -8 37
-10 6 -6 -48 -271 -61 -294 -9 -18 -27 -19 -472 -17 l-462 3 -3 36 -3 36 57 7
c128 15 124 -2 124 528 0 431 -4 493 -35 518 -8 7 -38 15 -67 19 -53 6 -53 6
-56 44 l-3 37 435 0 436 0 4 -22z m-11494 -1816 l5 -42 30 45 c17 24 36 45 43
45 18 0 15 -11 -13 -52 -14 -20 -25 -40 -25 -44 0 -4 16 -29 35 -55 19 -27 35
-51 35 -54 0 -3 -11 -5 -24 -5 -17 0 -32 13 -55 48 l-31 47 0 -47 c0 -41 -3
-48 -20 -48 -19 0 -20 7 -20 106 0 95 2 105 18 102 12 -2 18 -16 22 -46z m281
19 c23 -23 29 -38 29 -71 0 -72 -31 -109 -93 -110 -58 0 -87 34 -87 103 0 44
5 59 25 81 34 37 87 36 126 -3z m169 9 c24 -24 25 -34 3 -70 -16 -28 -16 -30
10 -69 33 -49 33 -51 5 -51 -16 0 -29 11 -43 37 -29 52 -45 54 -45 4 0 -34 -3
-41 -20 -41 -19 0 -20 7 -20 98 0 54 3 102 7 105 15 15 83 7 103 -13z m180 -1
c0 -17 -5 -20 -32 -18 -35 3 -38 1 -38 -31 0 -16 7 -20 30 -20 20 0 30 -5 30
-15 0 -10 -10 -15 -33 -15 -29 0 -33 -3 -32 -27 2 -25 6 -28 43 -31 29 -2 42
-8 42 -18 0 -12 -12 -14 -62 -12 l-63 3 -3 89 c-2 49 -1 95 2 103 4 9 24 13
61 13 49 0 55 -2 55 -21z m157 -74 c18 -50 33 -96 33 -102 0 -24 -30 -13 -45
17 -12 23 -22 30 -45 30 -23 0 -33 -7 -45 -30 -14 -28 -35 -41 -35 -22 0 11
57 179 65 192 18 29 41 1 72 -85z m263 3 c18 -51 35 -99 38 -105 2 -8 -4 -13
-17 -13 -15 0 -25 9 -32 30 -9 26 -16 30 -45 30 -30 0 -37 -4 -45 -30 -6 -16
-18 -30 -26 -30 -16 0 -16 2 29 128 41 112 55 111 98 -10z m170 72 c11 -11 20
-28 20 -39 0 -29 -39 -71 -66 -71 -21 0 -24 -4 -24 -40 0 -33 -3 -40 -20 -40
-19 0 -20 7 -20 98 0 54 3 102 7 105 15 15 83 7 103 -13z m148 4 c43 -30 15
-114 -37 -114 -16 0 -20 -8 -23 -37 -2 -27 -8 -39 -20 -41 -16 -3 -18 7 -18
102 l0 106 38 0 c21 0 48 -7 60 -16z m156 3 c23 -17 24 -62 3 -85 -15 -16 -14
-21 13 -62 30 -45 30 -45 8 -48 -22 -4 -28 1 -63 60 l-20 33 -3 -47 c-3 -40
-6 -48 -23 -48 -18 0 -19 8 -19 105 l0 105 43 0 c24 0 51 -6 61 -13z m203 -2
c33 -23 48 -83 33 -129 -14 -45 -44 -66 -91 -66 -30 0 -43 7 -64 32 -24 28
-27 39 -22 82 3 38 11 55 31 73 32 27 81 30 113 8z m114 -52 c12 -38 24 -72
27 -77 2 -5 16 26 29 68 16 51 29 76 39 76 10 0 13 -6 10 -17 -60 -185 -61
-188 -81 -188 -16 0 -26 17 -52 90 -38 107 -39 115 -14 115 15 0 24 -15 42
-67z m255 -33 c19 -52 34 -98 34 -102 0 -5 -9 -8 -19 -8 -12 0 -23 11 -30 30
-8 26 -15 30 -45 30 -29 0 -36 -4 -45 -30 -5 -16 -17 -30 -25 -30 -13 0 -10
16 15 88 17 48 35 95 41 105 19 36 40 13 74 -83z m102 7 l3 -87 39 0 c29 0 40
-4 40 -15 0 -12 -13 -15 -60 -15 l-60 0 0 106 c0 95 2 105 18 102 14 -3 17
-17 20 -91z m222 -12 c0 -98 -1 -105 -20 -105 -19 0 -20 7 -20 105 0 98 1 105
20 105 19 0 20 -7 20 -105z m117 39 l38 -66 3 66 c2 50 7 66 17 66 12 0 15
-20 15 -106 0 -95 -2 -105 -17 -102 -10 2 -34 31 -53 65 -19 35 -37 63 -40 63
-3 0 -3 -29 -2 -65 3 -60 2 -65 -17 -65 -20 0 -21 5 -21 98 0 54 3 102 7 105
16 17 34 2 70 -59z m268 46 c0 -10 -10 -15 -30 -15 l-30 -1 -3 -87 c-3 -79 -5
-87 -22 -87 -18 0 -20 7 -20 88 l0 89 -30 -5 c-25 -4 -30 -1 -30 17 0 21 4 22
83 19 65 -2 82 -6 82 -18z m140 0 c0 -11 -11 -15 -38 -15 -34 0 -37 -2 -37
-27 0 -24 4 -28 30 -28 20 0 30 -5 30 -15 0 -10 -10 -15 -30 -15 -27 0 -30 -3
-30 -30 0 -28 2 -30 40 -30 29 0 40 -4 40 -15 0 -12 -13 -15 -60 -15 l-60 0 0
105 0 106 58 -3 c43 -2 57 -7 57 -18z m136 10 c23 -13 26 -66 5 -89 -13 -14
-11 -22 15 -64 l29 -47 -25 0 c-18 0 -29 9 -41 33 -32 62 -39 64 -44 16 -4
-31 -10 -45 -22 -47 -16 -3 -18 7 -18 102 l0 106 41 0 c22 0 49 -5 60 -10z
m142 -57 l42 -68 3 68 c2 51 6 67 17 67 12 0 15 -20 15 -105 0 -94 -2 -105
-18 -105 -11 0 -32 24 -57 68 l-40 67 -3 -67 c-2 -52 -6 -68 -17 -68 -12 0
-15 20 -15 105 0 129 12 135 73 38z m243 -28 c39 -106 40 -115 15 -115 -12 0
-23 11 -30 31 -9 27 -14 30 -43 27 -24 -2 -36 -10 -46 -30 -7 -16 -20 -28 -27
-28 -11 0 -7 22 20 96 19 52 37 100 41 105 16 26 39 -2 70 -86z m209 75 c0
-10 -10 -15 -30 -15 l-30 -1 -3 -87 c-3 -79 -5 -87 -22 -87 -18 0 -20 7 -20
88 l0 89 -30 -5 c-25 -4 -30 -1 -30 17 0 21 4 22 83 19 65 -2 82 -6 82 -18z
m65 -85 c0 -98 -1 -105 -20 -105 -19 0 -20 7 -20 105 0 98 1 105 20 105 19 0
20 -7 20 -105z m177 90 c33 -23 48 -83 33 -129 -14 -45 -44 -66 -90 -66 -56 0
-85 37 -85 107 0 48 4 58 28 79 33 28 82 32 114 9z m143 -52 c19 -35 37 -63
40 -63 3 0 5 28 5 62 0 49 3 63 15 63 12 0 16 -19 18 -102 3 -96 1 -103 -17
-103 -13 0 -31 21 -58 66 l-38 66 -3 -66 c-2 -50 -7 -66 -17 -66 -12 0 -15 20
-15 106 0 95 2 105 17 102 10 -2 34 -31 53 -65z m238 -15 c47 -131 46 -128 24
-128 -13 0 -24 10 -31 30 -9 26 -15 30 -46 30 -31 0 -37 -4 -46 -30 -6 -16
-18 -30 -26 -30 -8 0 -13 6 -11 13 3 6 20 54 38 105 43 121 57 122 98 10z
m104 -5 l3 -88 43 -3 c66 -5 47 -26 -26 -30 l-62 -3 0 99 c0 100 3 112 26 112
10 0 14 -24 16 -87z m3016 -239 c303 -849 325 -905 363 -943 16 -16 44 -32 61
-36 66 -13 68 -15 68 -51 l0 -34 -250 0 -250 0 0 34 c0 36 1 37 62 50 52 12
53 35 7 169 -23 67 -46 130 -51 140 -8 15 -28 17 -192 17 l-184 0 -17 -47
c-33 -94 -65 -207 -65 -229 0 -29 17 -41 78 -55 50 -10 52 -12 52 -45 l0 -34
-215 0 -215 0 0 34 c0 34 1 35 53 46 58 12 101 47 129 105 8 17 104 258 213
537 l198 507 36 9 c20 6 40 9 46 8 5 -1 38 -83 73 -182z m4790 170 c181 -36
333 -154 410 -315 53 -112 66 -173 66 -304 -1 -186 -54 -331 -168 -452 -70
-75 -144 -122 -251 -159 -70 -24 -95 -28 -200 -28 -105 0 -130 4 -200 28 -158
54 -275 157 -345 301 -169 349 -16 772 325 901 121 45 237 54 363 28z m2772
-429 c242 -676 241 -674 291 -704 17 -10 48 -22 70 -25 37 -6 39 -8 39 -41 l0
-35 -250 0 -250 0 0 34 c0 33 3 36 48 48 44 13 47 16 50 48 1 22 -15 81 -42
155 l-43 120 -183 3 c-140 2 -186 -1 -192 -10 -15 -24 -78 -231 -78 -258 0
-36 15 -47 78 -61 50 -10 52 -12 52 -45 l0 -34 -215 0 -215 0 0 35 c0 32 3 35
38 41 74 13 117 49 149 124 8 19 100 253 205 520 104 267 192 490 195 497 4
11 69 33 87 29 4 -1 79 -200 166 -441z m-6290 405 c72 -14 158 -54 198 -93
138 -131 125 -395 -24 -527 -102 -89 -280 -131 -400 -95 -83 25 -78 37 -71
-167 3 -101 9 -191 12 -201 10 -26 51 -44 118 -52 57 -7 57 -7 57 -41 l0 -34
-280 0 -280 0 0 34 c0 33 2 34 47 41 62 9 99 29 108 57 11 32 19 709 10 847
-9 136 -20 154 -103 166 -51 7 -52 8 -52 41 l0 34 304 0 c167 0 327 -5 356
-10z m1104 -1 c209 -38 325 -202 287 -406 -7 -38 -24 -89 -38 -116 -83 -151
-311 -242 -477 -192 -27 8 -53 15 -58 15 -4 0 -8 -84 -8 -186 l0 -186 28 -28
c22 -22 41 -29 90 -35 l62 -7 0 -34 0 -34 -281 0 -280 0 3 32 c3 31 6 33 61
44 69 14 85 27 97 80 12 51 12 857 0 909 -11 50 -38 72 -95 81 -43 6 -45 8
-45 40 l0 34 298 0 c168 0 323 -5 356 -11z m1190 -18 c76 -30 147 -96 176
-163 19 -44 22 -65 18 -137 -7 -128 -56 -205 -176 -273 l-52 -30 32 -57 c136
-242 273 -423 349 -462 32 -16 39 -25 39 -50 0 -16 -6 -32 -14 -35 -8 -3 -56
-1 -107 5 -70 8 -110 18 -157 42 -77 38 -121 93 -243 306 -44 78 -90 150 -100
159 -14 12 -41 19 -85 22 l-66 4 4 -197 3 -197 26 -22 c16 -14 47 -26 78 -30
50 -7 51 -7 51 -41 l0 -35 -270 0 -270 0 0 34 c0 34 1 35 48 42 129 19 123 -6
120 555 l-3 461 -27 23 c-16 14 -47 26 -77 30 -50 7 -51 7 -51 42 l0 34 348
-3 c338 -3 349 -4 406 -27z m2336 -4 c0 -32 -2 -33 -57 -47 -57 -15 -58 -16
-57 -50 1 -31 245 -704 279 -770 l13 -25 10 25 c167 439 262 713 262 756 0 40
-13 51 -78 65 -50 10 -52 12 -52 45 l0 34 220 0 220 0 0 -33 c0 -33 -2 -34
-54 -46 -66 -15 -96 -36 -130 -96 -22 -37 -265 -640 -390 -967 l-38 -98 -42 0
-43 0 -78 208 c-139 372 -307 806 -327 847 -33 65 -65 93 -125 106 -51 12 -53
13 -53 46 l0 33 260 0 260 0 0 -33z m2710 -1 c0 -32 -2 -34 -46 -41 -63 -9
-90 -23 -103 -52 -8 -16 -11 -168 -11 -483 l0 -459 23 -26 c17 -19 37 -28 87
-36 66 -11 174 -5 220 13 44 16 86 67 125 148 36 78 37 79 68 73 18 -3 34 -7
36 -9 4 -4 -12 -91 -41 -221 l-21 -93 -444 0 -443 0 0 34 c0 34 0 34 63 45 46
8 68 17 85 36 l22 26 0 464 c0 319 -3 472 -11 488 -13 29 -40 43 -103 52 -44
7 -46 9 -46 41 l0 34 270 0 270 0 0 -34z m-11542 -268 l-3 -83 -2279 -3
c-1337 -1 -2284 2 -2289 7 -5 5 -6 43 -2 85 l7 76 2285 0 2284 0 -3 -82z
m-2334 -363 l38 -135 -38 -42 c-21 -24 -40 -44 -43 -44 -3 -1 -23 17 -44 41
l-37 43 37 136 c21 75 41 136 44 136 3 0 22 -61 43 -135z m-124 -225 c21 -11
48 -34 60 -51 l23 -31 18 28 c48 74 162 97 234 48 37 -25 41 -25 96 -14 95 20
172 -19 205 -105 27 -72 6 -134 -80 -239 l-24 -29 -41 29 c-22 16 -41 33 -41
38 0 5 20 30 45 57 24 26 47 60 51 75 14 57 -50 119 -100 96 -22 -10 -26 -18
-26 -55 0 -28 -9 -62 -25 -92 -29 -54 -36 -41 63 -112 39 -28 51 -43 48 -57
-5 -18 1 -19 180 -13 l185 7 57 -59 c31 -32 81 -70 111 -85 29 -15 51 -29 49
-32 -3 -2 -230 37 -506 88 l-502 91 -502 -92 c-276 -50 -503 -89 -505 -87 -3
2 23 19 57 37 33 18 82 56 109 84 l47 52 187 -5 c167 -4 187 -3 181 11 -4 11
16 32 71 73 l76 57 -20 21 c-27 29 -41 70 -41 121 0 40 -2 44 -30 50 -57 12
-108 -44 -94 -102 4 -14 29 -49 55 -76 27 -28 46 -53 44 -57 -12 -19 -87 -62
-94 -54 -46 51 -93 123 -102 156 -27 104 63 218 174 218 10 0 34 -7 54 -15 34
-14 38 -14 57 4 47 44 132 54 196 21z m-1652 -286 l122 -6 0 -59 c0 -54 -16
-113 -29 -106 -82 42 -79 42 -101 22 -11 -10 -24 -34 -30 -54 -9 -32 -7 -38
13 -53 15 -12 36 -17 67 -15 l45 2 -1 -59 c-1 -49 -6 -63 -24 -78 -35 -28 -57
-22 -87 24 -24 36 -28 39 -31 20 -5 -33 5 -44 107 -123 121 -93 123 -100 115
-275 l-7 -135 28 -29 c15 -15 38 -31 51 -34 38 -10 101 11 124 42 29 37 58 51
103 52 44 0 46 -8 12 -40 -14 -13 -25 -27 -25 -31 0 -5 25 -27 55 -50 30 -23
55 -46 55 -51 0 -6 -24 -8 -55 -6 -30 1 -55 2 -55 2 0 -1 11 -26 24 -55 13
-30 27 -65 31 -79 l8 -24 -36 27 c-42 32 -57 34 -57 7 0 -26 -6 -25 -71 9 -30
16 -88 39 -129 52 -41 12 -112 39 -157 61 -97 44 -128 49 -118 17 6 -17 -11
-39 -88 -117 -131 -134 -132 -138 -129 -297 l3 -130 -120 -116 c-67 -65 -121
-121 -121 -127 0 -6 33 -40 74 -76 l73 -66 86 0 c78 0 88 -2 118 -27 30 -26
66 -90 55 -100 -2 -3 -15 2 -28 11 -38 27 -48 21 -42 -26 3 -24 1 -54 -4 -68
l-10 -25 -12 30 c-6 16 -19 38 -28 48 -16 18 -17 18 -23 0 -4 -10 -8 -33 -8
-50 -1 -36 -11 -42 -31 -18 -7 8 -26 15 -42 15 -21 0 -37 9 -56 32 -15 18 -54
60 -86 95 l-60 64 -23 -26 c-32 -34 -41 -32 -60 12 l-15 37 -16 -29 -15 -30
-12 55 c-6 30 -28 93 -50 140 -45 99 -53 174 -21 209 20 22 46 28 46 11 0 -5
-4 -10 -10 -10 -15 0 -12 -46 4 -59 18 -15 49 -1 71 33 13 20 13 39 0 173 -24
244 -24 258 16 299 19 20 64 60 101 90 82 68 95 97 109 256 10 123 37 227 67
261 8 9 10 17 4 17 -6 0 -25 -17 -44 -39 l-33 -39 0 123 c0 94 3 126 15 140
14 17 14 17 -7 7 -30 -16 -85 -15 -109 3 -19 14 -19 14 2 15 37 0 65 31 69 76
2 23 12 59 23 80 l19 38 -33 32 c-25 23 -34 40 -34 64 l0 32 35 -31 c40 -34
58 -38 95 -16 93 54 126 66 170 60 25 -3 100 -8 168 -11z m3740 -28 c69 -43
97 -43 137 0 18 20 24 22 29 9 8 -22 -3 -45 -37 -83 l-31 -32 22 -45 c12 -25
22 -57 22 -71 0 -39 17 -62 52 -69 30 -7 31 -8 12 -22 -13 -10 -35 -13 -66
-10 -33 3 -45 1 -40 -7 4 -6 7 -65 7 -131 l1 -120 -39 40 -38 40 16 -34 c34
-68 46 -118 55 -226 15 -186 18 -194 129 -292 53 -47 102 -97 109 -111 11 -23
10 -58 -6 -217 -16 -162 -17 -194 -5 -217 13 -27 41 -48 63 -48 20 0 29 43 14
68 -11 17 -12 22 -2 22 33 -1 58 -42 58 -95 0 -21 -19 -80 -45 -139 -26 -60
-45 -119 -45 -140 0 -41 -21 -49 -37 -14 -9 22 -11 21 -22 -15 -15 -44 -32
-47 -60 -11 l-21 27 -58 -59 c-31 -33 -71 -77 -88 -97 -22 -27 -39 -37 -59
-37 -16 0 -36 -7 -46 -16 -17 -15 -18 -13 -24 23 -11 62 -13 67 -30 53 -8 -7
-20 -27 -27 -46 -6 -19 -15 -34 -19 -34 -11 0 -20 62 -13 97 7 36 1 39 -36 18
-14 -8 -28 -14 -33 -15 -16 0 25 77 55 103 30 25 39 27 119 27 l87 0 71 66
c39 36 71 74 71 83 0 9 -21 33 -47 53 -27 20 -79 69 -118 108 l-70 71 3 124
c4 159 -5 179 -127 300 -71 70 -91 96 -91 117 0 38 -19 36 -116 -8 -44 -20
-119 -49 -169 -66 -49 -16 -109 -40 -132 -54 -53 -30 -63 -30 -63 2 l0 26 -42
-31 c-23 -17 -43 -29 -46 -27 -2 3 11 37 30 75 l34 71 -59 0 c-32 0 -57 4 -55
9 2 5 27 27 56 50 28 23 52 45 52 50 0 4 -11 21 -25 37 l-25 29 26 3 c43 6 72
-6 114 -47 49 -48 95 -59 145 -35 55 26 60 42 56 197 -2 91 1 148 9 167 7 17
50 58 105 100 94 72 105 85 105 122 0 17 -6 12 -30 -20 -33 -46 -59 -53 -89
-23 -21 21 -37 100 -27 127 5 12 15 14 49 9 34 -5 48 -3 66 12 29 23 24 57
-14 100 l-24 28 -40 -23 -40 -22 -16 24 c-11 17 -15 42 -13 83 l3 58 122 5
c67 3 125 9 130 14 19 19 109 -1 171 -38z m-1484 -276 c270 -50 497 -93 504
-95 10 -4 12 -156 10 -767 l-3 -763 -26 -63 c-47 -109 -91 -172 -209 -295
-123 -128 -256 -240 -400 -337 -131 -88 -371 -220 -399 -220 -31 0 -229 108
-379 207 -162 107 -291 214 -422 350 -118 123 -162 186 -209 295 l-26 63 -3
763 c-2 693 -1 763 14 769 35 13 962 181 1008 182 26 1 269 -40 540 -89z
m-1745 -9 c21 -11 30 -21 22 -25 -22 -14 -10 -36 32 -54 l42 -19 -41 -12 c-31
-8 -43 -18 -48 -35 -9 -36 4 -83 30 -111 l23 -25 -40 0 c-22 0 -54 7 -72 16
l-31 17 -53 -57 c-34 -37 -53 -66 -53 -81 0 -30 -16 -33 -23 -5 -8 30 -19 25
-49 -23 -15 -24 -37 -52 -48 -62 -20 -18 -20 -18 -20 88 0 59 -1 110 -2 115
-1 4 28 25 65 47 87 53 109 75 147 147 32 60 63 98 78 98 4 -1 22 -9 41 -19z
m2490 -7 c11 -14 29 -45 41 -69 29 -60 86 -117 156 -154 l59 -31 0 -115 c0
-72 -4 -114 -10 -112 -5 2 -27 28 -48 58 -21 30 -42 55 -46 57 -4 1 -12 -8
-18 -20 -10 -22 -10 -21 -22 13 -6 19 -33 57 -60 83 -48 47 -50 48 -72 32 -13
-9 -43 -16 -66 -16 l-42 0 25 37 c18 28 24 48 22 77 -3 38 -6 42 -46 56 l-43
16 41 17 c38 14 42 19 36 41 -5 21 -1 28 21 40 39 21 49 20 72 -10z m1153 -95
c21 -11 45 -30 53 -43 9 -13 29 -26 45 -30 41 -8 90 -105 97 -190 3 -45 2 -57
-6 -46 -9 12 -11 10 -11 -10 -1 -36 -36 -110 -53 -110 -22 0 -45 41 -61 111
-8 35 -20 65 -27 68 -7 2 -23 14 -36 27 -18 18 -23 34 -23 77 0 63 -11 76 -68
84 -77 10 -110 -32 -88 -113 7 -27 52 -133 99 -237 48 -103 92 -207 98 -232
18 -69 8 -164 -20 -202 -40 -54 -51 -50 -50 17 1 32 -2 64 -7 71 -4 8 -11 36
-15 64 -4 30 -46 138 -104 270 -75 169 -99 233 -103 276 -5 65 15 118 54 144
58 38 156 40 226 4z m-4662 -1 c60 -31 83 -74 77 -148 -4 -42 -28 -108 -102
-274 -54 -120 -99 -237 -102 -260 -3 -23 -12 -60 -20 -84 -11 -28 -14 -57 -9
-89 l6 -47 -34 33 c-43 42 -59 105 -47 182 11 64 30 113 106 274 133 280 138
345 26 345 -68 0 -83 -15 -87 -86 -3 -53 -6 -62 -38 -89 -27 -23 -38 -42 -46
-81 -6 -27 -20 -65 -31 -83 -17 -28 -22 -31 -35 -20 -23 19 -44 64 -45 96 0
15 -3 22 -6 16 -2 -7 -9 -13 -15 -13 -19 0 1 101 34 172 24 52 37 69 62 79 17
7 47 27 66 44 64 59 161 72 240 33z m8812 -333 l30 -25 418 0 418 0 30 25 c32
27 60 32 67 13 4 -12 24 -341 21 -345 0 0 -16 -3 -35 -5 l-34 -3 -22 70 c-42
136 -70 155 -229 155 l-106 0 0 -490 c0 -342 3 -497 11 -514 14 -30 50 -46
121 -55 53 -6 53 -6 53 -41 l0 -35 -292 -3 -293 -2 0 38 0 39 53 6 c71 7 104
24 117 60 6 19 10 202 10 513 l0 484 -94 0 c-51 0 -108 -3 -126 -6 -49 -10
-82 -52 -111 -140 -26 -78 -26 -79 -62 -82 -30 -3 -37 0 -37 15 0 37 22 328
25 341 7 19 35 14 67 -13z m5758 0 l23 -25 423 0 422 0 31 26 c55 46 65 33 73
-86 16 -257 16 -250 -8 -250 -12 0 -29 -3 -37 -6 -11 -4 -18 8 -27 48 -19 77
-34 109 -70 143 -31 29 -34 30 -151 33 l-119 4 0 -489 c0 -268 3 -498 6 -510
9 -33 47 -53 114 -60 l60 -6 0 -38 0 -39 -290 0 -290 0 0 39 0 38 57 6 c63 7
104 31 114 68 4 13 7 241 8 507 l1 482 -94 0 c-51 0 -108 -3 -125 -6 -52 -11
-88 -56 -114 -142 -23 -77 -24 -77 -60 -80 -36 -3 -37 -2 -37 30 0 51 20 311
25 326 7 20 40 14 65 -13z m-533 -355 c198 -556 264 -730 291 -762 29 -34 77
-58 117 -58 23 0 25 -4 25 -40 l0 -40 -250 0 -250 0 0 39 c0 36 2 39 36 44 78
13 81 43 21 207 l-42 115 -189 0 -189 0 -39 -115 c-39 -118 -47 -173 -26 -186
7 -4 35 -13 63 -19 48 -11 50 -13 50 -46 l0 -34 -210 0 -210 0 0 34 c0 32 3
34 47 46 65 16 94 38 121 93 13 26 111 270 217 542 106 272 197 500 202 507 5
6 19 14 31 16 59 12 54 23 184 -343z m2948 335 c152 -39 302 -149 372 -275 62
-110 78 -179 78 -340 -1 -132 -3 -152 -29 -225 -38 -109 -84 -181 -163 -255
-114 -107 -255 -160 -423 -160 -216 0 -393 91 -506 261 -73 110 -97 190 -102
339 -5 150 8 214 69 339 75 153 215 267 381 311 91 24 241 26 323 5z m2475 12
c0 -6 267 -749 330 -921 73 -195 97 -228 177 -242 47 -9 48 -10 48 -44 l0 -35
-252 -3 -253 -2 0 40 c0 34 3 40 20 40 11 0 36 7 55 14 46 20 45 34 -10 186
-25 68 -45 125 -45 127 0 2 -84 3 -188 3 l-187 0 -28 -77 c-42 -122 -58 -193
-47 -213 11 -20 60 -40 96 -40 21 0 24 -5 24 -40 l0 -40 -210 0 -210 0 0 39
c0 38 1 39 45 45 62 10 102 47 140 131 18 38 115 283 216 543 177 455 185 473
214 481 31 10 65 13 65 8z m-12085 -57 c0 -35 0 -35 -55 -42 -42 -5 -60 -13
-77 -33 l-23 -26 0 -474 0 -474 23 -25 c16 -19 37 -28 77 -34 55 -7 55 -7 55
-42 l0 -35 -267 -3 -268 -2 0 40 c0 37 2 40 28 40 61 0 103 20 118 55 21 50
21 909 0 959 -15 36 -54 56 -112 56 -33 0 -34 1 -34 40 l0 40 268 -2 267 -3 0
-35z m691 -377 c191 -230 355 -427 366 -438 20 -20 20 -19 15 315 -5 362 -10
397 -58 432 -14 11 -50 23 -80 26 -54 7 -54 7 -57 45 l-3 37 233 -2 233 -3 0
-35 c0 -33 -2 -35 -41 -40 -51 -7 -91 -33 -107 -68 -8 -19 -12 -181 -15 -559
l-3 -533 -47 0 -47 0 -375 467 -375 466 -3 -39 c-2 -21 -2 -190 0 -374 4 -358
7 -374 55 -406 14 -8 49 -18 79 -21 l54 -6 0 -39 0 -38 -232 2 -233 3 0 35 c0
33 2 35 44 42 49 8 85 29 101 57 20 38 31 278 28 586 -3 291 -4 312 -23 345
-25 41 -68 68 -127 78 -41 7 -43 9 -46 45 l-3 37 160 0 161 0 346 -417z m2648
345 c3 -40 7 -104 9 -143 l2 -70 -36 -3 c-34 -3 -36 -1 -48 40 -22 76 -57 124
-101 142 -58 23 -315 23 -324 0 -3 -9 -6 -112 -6 -230 l0 -214 108 0 c174 1
215 19 228 101 6 38 8 39 45 39 l39 0 0 -191 0 -190 -36 3 c-35 3 -38 6 -49
51 -7 27 -19 55 -27 64 -23 23 -83 33 -200 33 l-108 0 0 -192 c0 -296 3 -301
195 -306 73 -3 138 1 165 8 57 15 103 64 147 155 30 64 36 70 61 67 15 -2 31
-7 36 -12 8 -8 -35 -235 -54 -285 l-10 -25 -465 0 -465 0 0 39 0 38 61 7 c83
10 105 32 114 117 4 35 5 246 3 469 -2 320 -6 411 -17 432 -15 30 -56 48 -107
48 -33 0 -34 1 -34 40 l0 40 434 0 434 0 6 -72z m761 62 c149 -18 241 -73 291
-177 39 -79 39 -186 1 -266 -31 -62 -94 -125 -159 -158 -23 -12 -44 -23 -46
-24 -10 -8 216 -360 280 -437 59 -71 93 -88 151 -77 58 11 83 23 102 52 23 36
37 281 33 607 -3 275 -4 297 -23 330 -25 41 -68 68 -127 78 -41 7 -43 9 -46
45 l-3 38 162 -3 162 -3 361 -435 361 -434 3 209 c3 236 -10 492 -27 524 -18
33 -56 53 -113 60 -53 6 -53 6 -56 44 l-3 37 230 0 231 0 0 -39 c0 -38 0 -38
-46 -44 -66 -7 -93 -37 -104 -118 -5 -35 -10 -283 -10 -551 l0 -488 -48 0 -48
0 -379 470 c-208 259 -378 469 -379 468 0 -2 2 -172 5 -378 3 -247 9 -384 17
-402 15 -37 48 -56 112 -65 55 -8 55 -9 55 -43 l0 -35 -270 -7 c-301 -8 -374
-1 -450 40 -66 36 -122 108 -230 297 -50 86 -101 163 -114 172 -13 8 -50 18
-82 20 l-59 6 0 -174 c0 -243 8 -264 111 -276 l49 -6 0 -39 0 -38 -267 2 -268
3 0 35 c0 32 3 35 30 38 17 2 47 8 68 13 67 18 67 18 67 528 0 261 -4 460 -10
475 -11 31 -39 46 -99 55 -38 5 -47 10 -49 29 -8 53 -13 52 275 52 147 0 308
-5 358 -10z m4655 -30 c0 -39 -1 -40 -35 -40 -62 0 -102 -23 -114 -67 -16 -56
-14 -897 2 -943 13 -38 52 -58 115 -59 31 -1 32 -3 32 -41 l0 -40 -267 2 -268
3 0 35 c0 34 0 35 55 43 38 5 63 15 80 32 l25 25 0 475 0 475 -26 26 c-19 19
-41 28 -80 32 -47 6 -54 10 -57 30 -8 53 -13 52 273 52 l265 0 0 -40z m2015
-381 c192 -232 355 -429 363 -438 10 -13 12 45 10 334 -3 306 -6 354 -20 381
-19 36 -79 64 -133 64 -34 0 -35 1 -35 40 l0 40 231 0 230 0 -3 -37 c-3 -32
-7 -38 -28 -41 -56 -7 -91 -24 -106 -53 -25 -49 -34 -226 -34 -682 l0 -428
-47 3 -47 3 -376 467 -375 466 -3 -266 c-3 -303 9 -491 33 -529 20 -30 72 -53
120 -53 34 0 35 -1 35 -40 l0 -40 -230 0 -230 0 0 40 c0 38 2 40 31 40 50 0
100 29 117 69 14 31 17 98 20 461 l4 425 -24 34 c-33 49 -69 72 -122 78 -46 6
-46 6 -46 44 l0 39 158 0 157 0 350 -421z m2435 381 c0 -40 0 -40 -37 -40 -51
0 -106 -29 -114 -60 -4 -14 -7 -227 -8 -473 -1 -503 -2 -497 67 -516 48 -14
196 -14 244 -1 58 17 94 54 140 147 41 82 43 85 72 79 16 -4 32 -9 35 -12 7
-7 -47 -272 -60 -296 -9 -17 -40 -18 -449 -18 l-440 0 0 40 c0 38 1 40 33 40
55 0 106 19 125 48 15 23 17 65 21 391 1 201 0 412 -4 469 -9 130 -22 150
-107 159 l-58 6 0 38 0 39 270 0 270 0 0 -40z m-20120 -357 c75 -50 150 -129
150 -157 0 -25 -53 -117 -100 -173 l-31 -38 78 -8 c71 -8 85 -7 160 18 72 24
86 26 113 15 40 -17 38 -30 -5 -30 -40 0 -42 -7 -15 -52 11 -18 20 -40 20 -49
0 -15 -5 -14 -40 3 -22 11 -47 17 -55 14 -14 -5 -13 -11 5 -45 25 -51 27 -76
3 -66 -102 44 -202 57 -317 40 -53 -8 -117 8 -153 39 l-27 24 32 48 c46 71 92
166 92 192 0 20 -4 22 -60 22 -58 0 -60 1 -60 26 0 41 29 92 88 155 30 33 57
59 61 59 3 0 31 -17 61 -37z m3652 -20 c63 -66 88 -108 88 -153 l0 -30 -60 0
c-44 0 -60 -4 -60 -14 0 -31 33 -105 76 -169 25 -37 44 -75 42 -84 -5 -25 -74
-56 -127 -56 -25 0 -89 1 -141 2 -91 3 -136 -6 -222 -44 -24 -10 -23 10 2 60
11 22 20 43 20 48 0 14 -61 -1 -82 -20 -31 -28 -34 -4 -7 47 15 27 24 52 21
55 -3 3 -21 5 -40 5 -28 0 -32 2 -23 14 22 27 60 27 136 1 67 -23 84 -26 155
-19 44 3 80 9 80 11 0 2 -18 25 -39 51 -48 58 -94 148 -86 170 10 33 177 180
205 182 3 0 31 -26 62 -57z m-3120 -63 c46 -13 105 -77 114 -126 12 -65 -4
-159 -45 -266 -68 -177 -66 -168 -66 -380 0 -109 -3 -198 -6 -198 -10 0 -75
130 -99 200 -27 76 -38 224 -21 285 6 22 27 67 48 100 98 158 118 220 90 275
-20 39 -45 37 -62 -4 -16 -37 -42 -51 -75 -41 -48 15 -49 84 -2 127 42 39 64
44 124 28z m2630 -28 c39 -38 46 -84 18 -112 -33 -33 -71 -24 -93 23 -28 56
-62 45 -74 -26 -7 -47 11 -98 63 -179 87 -136 89 -141 89 -263 0 -89 -4 -123
-24 -180 -25 -74 -89 -205 -100 -205 -4 0 -5 72 -3 160 5 191 -3 240 -65 405
-36 95 -47 137 -51 202 -4 71 -2 86 19 122 50 90 158 115 221 53z m-205 -615
c49 -97 39 -259 -22 -362 -30 -51 -81 -112 -89 -105 -3 3 2 26 10 50 19 54 12
84 -31 131 -18 21 -38 47 -45 58 -9 18 -7 22 15 31 15 6 42 10 62 10 l36 0 -7
38 c-17 93 -17 112 -2 166 15 50 19 56 32 45 9 -7 27 -35 41 -62z m-2269 12
c12 -42 12 -79 -3 -160 l-7 -36 52 -5 c84 -8 83 -12 -12 -131 -22 -27 -22 -29
-6 -90 9 -34 15 -64 13 -65 -9 -9 -98 119 -117 168 -33 82 -33 237 1 300 45
85 58 88 79 19z m-416 -247 c13 -16 46 -80 73 -143 58 -135 101 -217 168 -319
255 -384 672 -663 1120 -751 118 -23 168 -24 282 -4 194 34 446 136 624 252
205 133 408 336 534 534 46 73 127 234 163 328 32 84 71 131 106 131 14 0 51
-9 83 -20 34 -12 84 -20 121 -20 69 0 94 -15 94 -55 0 -14 -14 -107 -30 -209
-27 -163 -29 -192 -20 -253 10 -67 53 -173 70 -173 4 0 20 21 35 46 37 62 156
187 231 240 105 75 186 107 281 112 104 6 118 -4 127 -86 3 -31 20 -96 37
-144 28 -79 30 -91 19 -119 -15 -35 -70 -76 -117 -85 -47 -9 -83 3 -118 41
l-31 34 -43 -42 c-24 -23 -79 -95 -122 -159 -43 -64 -88 -123 -101 -132 -28
-20 -62 -20 -91 -2 -47 31 -117 38 -193 20 -66 -15 -73 -15 -102 0 -18 9 -51
40 -73 69 -41 51 -99 160 -99 185 0 25 -18 10 -86 -74 -90 -113 -289 -304
-393 -378 -263 -188 -576 -324 -857 -372 -457 -78 -1094 188 -1509 628 -47 51
-107 121 -133 156 -44 60 -47 62 -56 40 -37 -98 -80 -169 -131 -217 -52 -49
-59 -53 -93 -47 -20 4 -69 9 -109 12 -62 5 -79 3 -126 -19 -52 -24 -56 -24
-87 -9 -22 11 -52 45 -92 106 -87 133 -126 183 -159 207 l-30 21 -39 -36 c-30
-27 -49 -36 -75 -36 -79 0 -155 57 -155 115 0 18 11 63 25 99 14 37 29 97 35
134 12 88 22 95 125 90 64 -3 95 -11 147 -35 140 -66 277 -183 355 -303 21
-33 42 -58 48 -57 21 7 58 100 68 172 10 69 8 93 -22 271 -30 180 -31 197 -17
219 14 21 23 24 78 23 40 -1 85 7 123 20 83 29 108 28 137 -6z m703 -262 c23
-11 97 -70 164 -131 156 -140 212 -184 275 -216 28 -15 45 -28 39 -30 -27 -9
-88 22 -225 114 -188 126 -254 157 -318 151 -62 -6 -112 -43 -144 -106 -20
-38 -26 -44 -31 -29 -4 10 -5 40 -2 68 6 49 6 49 -23 49 -30 0 -90 43 -90 64
0 8 14 10 41 8 32 -3 51 2 97 31 31 19 64 37 72 40 34 12 106 6 145 -13z
m1832 -24 c51 -31 69 -38 102 -34 27 2 41 0 41 -8 0 -22 -60 -64 -91 -64 l-29
0 6 -59 c8 -74 -8 -87 -34 -28 -26 60 -80 99 -142 105 -64 6 -130 -25 -318
-151 -137 -92 -198 -123 -225 -114 -6 2 11 16 40 30 52 27 156 110 313 251
109 98 148 118 220 114 43 -3 69 -13 117 -42z m-1725 -164 c40 -22 74 -46 76
-56 3 -15 -3 -16 -55 -11 -49 6 -68 3 -112 -15 l-52 -23 -28 27 c-22 21 -33
25 -59 20 -38 -8 -40 3 -10 41 52 66 135 72 240 17z m1592 24 c32 -13 76 -59
76 -78 0 -6 -14 -8 -33 -4 -27 5 -38 2 -57 -19 -28 -30 -35 -31 -85 -4 -33 17
-51 19 -103 14 -56 -5 -63 -4 -60 11 2 10 36 35 76 56 80 41 129 48 186 24z
m-1357 -182 l78 -49 113 -3 c130 -4 139 -13 62 -62 -65 -42 -114 -59 -168 -60
-57 0 -76 11 -143 82 -42 45 -62 59 -79 56 -35 -5 -48 -33 -27 -56 22 -24 22
-78 1 -86 -52 -20 -84 13 -84 87 0 60 24 113 59 133 44 24 101 12 188 -42z
m1117 44 c38 -17 57 -54 63 -119 7 -76 -13 -112 -60 -107 -28 3 -32 7 -35 35
-2 18 4 43 14 57 13 21 14 29 4 41 -23 28 -53 16 -110 -44 -66 -71 -85 -81
-145 -81 -52 0 -98 17 -167 62 -75 47 -65 56 65 60 l112 3 69 44 c104 64 138
73 190 49z m7568 -13 l30 -25 404 0 c343 0 409 2 434 15 17 9 30 20 30 25 0 6
13 10 29 10 l29 0 6 -90 c3 -49 9 -130 12 -180 l6 -90 -39 0 -39 0 -18 71
c-33 129 -79 158 -253 159 l-83 0 0 -484 c0 -328 4 -493 11 -515 14 -39 46
-57 122 -66 57 -7 57 -7 57 -41 l0 -34 -295 0 -295 0 0 34 0 33 68 11 c51 9
72 17 90 37 l22 26 0 501 0 501 -108 -5 c-159 -8 -182 -24 -222 -157 l-22 -71
-40 0 -41 0 6 48 c4 26 10 107 13 180 7 132 7 132 32 132 13 0 37 -11 54 -25z
m6126 3 c24 -23 24 -23 442 -26 l418 -3 30 26 c16 14 41 25 55 25 l25 0 7
-172 c4 -95 7 -175 7 -178 -1 -3 -17 -6 -35 -8 -34 -3 -34 -3 -51 61 -37 135
-69 158 -228 165 l-108 5 0 -501 0 -501 23 -26 c17 -20 38 -28 90 -37 l67 -11
0 -33 0 -34 -290 0 -290 0 0 34 c0 34 1 34 53 41 70 10 103 28 116 66 7 22 11
187 11 515 l0 484 -74 0 c-175 0 -219 -26 -258 -155 l-23 -75 -39 0 -39 0 7
103 c16 253 17 257 39 257 11 0 31 -10 45 -22z m-8795 -24 c48 -9 94 -22 101
-29 12 -13 39 -179 40 -257 1 -40 -1 -42 -32 -49 -26 -5 -35 -3 -39 10 -39
116 -95 191 -171 228 -51 25 -67 28 -162 28 -95 0 -111 -3 -167 -29 -164 -75
-263 -263 -263 -496 1 -257 94 -442 268 -527 71 -36 82 -38 166 -38 74 0 101
5 144 24 62 28 144 112 186 192 16 29 30 56 32 57 7 9 74 -21 74 -33 0 -20
-80 -247 -95 -271 -20 -31 -192 -58 -360 -58 -104 0 -146 5 -210 23 -116 33
-210 85 -285 161 -115 115 -170 258 -170 439 0 233 105 421 301 542 65 41 193
85 284 99 81 12 250 5 358 -16z m7122 0 c44 -9 87 -20 96 -25 13 -6 21 -41 34
-143 10 -74 15 -141 12 -149 -3 -8 -19 -16 -36 -19 -29 -4 -31 -2 -52 55 -32
86 -86 149 -156 183 -53 26 -68 29 -163 29 -99 0 -110 -2 -172 -33 -173 -85
-265 -277 -255 -532 9 -242 108 -416 283 -497 52 -24 71 -28 154 -28 83 1 101
4 145 27 65 34 127 97 177 181 22 37 41 67 43 67 18 0 65 -25 65 -35 0 -22
-91 -280 -101 -286 -6 -3 -58 -15 -117 -25 -152 -27 -341 -25 -445 4 -212 60
-351 186 -422 382 -35 98 -44 250 -21 358 48 226 222 408 456 476 133 39 318
43 475 10z m974 -96 c24 -68 95 -266 158 -441 209 -582 210 -586 309 -608 52
-12 54 -13 54 -46 l0 -33 -255 0 -255 0 0 33 c0 31 3 34 47 48 72 22 74 32 29
162 -61 177 -32 158 -247 158 l-184 0 -18 -48 c-34 -88 -67 -216 -62 -234 6
-18 38 -33 93 -44 29 -6 32 -10 32 -41 l0 -34 -210 0 -210 0 0 35 c0 32 3 35
38 41 53 10 87 29 113 66 13 17 116 268 229 557 l206 525 39 12 c22 7 42 13
45 13 3 1 25 -54 49 -121z m3332 86 c141 -45 271 -155 338 -287 99 -198 93
-458 -16 -656 -70 -125 -206 -232 -353 -275 -211 -63 -463 -2 -613 148 -119
119 -180 275 -180 461 -1 330 212 586 528 634 85 14 207 3 296 -25z m-10257
-130 c4 -75 5 -138 2 -141 -2 -3 -19 -6 -36 -6 -30 -2 -33 1 -55 62 -31 85
-65 118 -134 131 -63 12 -250 13 -268 2 -9 -6 -13 -69 -15 -230 l-3 -222 128
0 c169 0 189 10 213 113 6 25 10 28 43 25 l36 -3 3 -187 2 -188 -39 0 c-34 0
-40 3 -45 28 -24 101 -44 112 -213 112 l-128 0 5 -220 c5 -204 6 -221 26 -240
28 -28 128 -43 237 -36 139 9 178 39 246 184 25 54 33 58 74 43 l25 -10 -28
-133 c-16 -73 -32 -141 -35 -150 -7 -17 -39 -18 -476 -18 l-469 0 0 34 c0 34
1 34 53 41 75 10 104 28 117 73 8 25 10 183 8 490 l-3 454 -26 22 c-16 14 -47
26 -78 30 -50 7 -51 7 -51 41 l0 35 439 0 438 0 7 -136z m898 122 c80 -17 116
-35 170 -84 62 -56 88 -120 88 -218 0 -70 -4 -89 -31 -142 -32 -65 -83 -114
-157 -151 l-42 -22 15 -30 c29 -55 127 -213 187 -301 61 -89 161 -191 198
-203 25 -8 28 -62 4 -72 -24 -9 -195 14 -239 33 -89 37 -154 118 -285 353 -73
131 -97 151 -178 151 l-53 0 3 -196 3 -196 27 -23 c16 -14 47 -26 77 -30 50
-7 51 -8 51 -41 l0 -34 -270 0 -270 0 0 33 c0 33 1 34 62 45 111 21 103 -22
103 533 l0 481 -26 22 c-16 14 -47 26 -78 30 -50 7 -51 7 -51 41 l0 35 313 0
c230 0 329 -4 379 -14z m2238 -21 c0 -34 -1 -34 -51 -41 -31 -4 -62 -16 -78
-30 l-26 -22 0 -482 0 -482 27 -23 c16 -14 47 -26 77 -30 50 -7 51 -8 51 -41
l0 -34 -270 0 -270 0 0 34 c0 33 2 34 47 41 65 10 101 30 110 63 11 36 10 886
0 934 -9 44 -36 62 -109 72 -47 7 -48 8 -48 42 l0 34 270 0 270 0 0 -35z
m1020 18 c0 -10 5 -72 10 -137 6 -66 7 -123 3 -127 -5 -4 -21 -9 -37 -11 -26
-3 -30 1 -42 42 -21 68 -55 122 -93 144 -29 16 -57 20 -170 23 -82 3 -142 0
-151 -6 -12 -9 -16 -50 -18 -242 l-3 -231 156 4 157 3 24 28 c13 15 24 36 24
47 0 39 11 50 51 50 l39 0 0 -185 0 -185 -39 0 c-38 0 -39 1 -51 49 -19 82
-28 86 -206 89 l-154 3 0 -173 c1 -270 10 -291 123 -310 l67 -11 0 -33 0 -34
-280 0 -280 0 0 35 c0 34 1 34 51 41 31 4 62 16 78 30 l26 22 0 482 0 482 -26
22 c-16 14 -47 26 -78 30 -50 7 -51 7 -51 41 l0 35 435 0 c408 0 435 -1 435
-17z m690 -17 c0 -34 -1 -35 -47 -41 -64 -9 -90 -28 -102 -72 -7 -24 -11 -198
-11 -463 0 -265 4 -439 11 -463 12 -44 38 -63 102 -72 46 -6 47 -7 47 -41 l0
-34 -265 0 -265 0 0 34 c0 33 1 34 60 45 101 20 95 -11 95 531 0 423 -2 468
-17 492 -10 15 -30 29 -48 32 -16 3 -43 9 -60 12 -26 5 -30 10 -30 40 l0 34
265 0 265 0 0 -34z m4430 0 c0 -34 -1 -35 -47 -42 -57 -8 -98 -27 -107 -49 -3
-9 -6 -230 -6 -490 0 -546 -7 -508 98 -527 61 -11 62 -12 62 -45 l0 -33 -270
0 -270 0 0 35 c0 34 1 34 51 41 31 4 62 16 78 30 l26 22 0 482 0 482 -26 22
c-16 14 -47 26 -78 30 -50 7 -51 7 -51 41 l0 35 270 0 270 0 0 -34z m2190
-397 c195 -236 357 -429 360 -429 11 0 -5 695 -17 715 -22 38 -51 56 -112 67
-60 11 -61 12 -61 45 l0 33 230 0 230 0 0 -34 c0 -31 -3 -34 -36 -41 -56 -10
-84 -26 -102 -59 -15 -28 -18 -90 -22 -566 l-5 -535 -46 0 -47 0 -362 450
c-200 248 -368 458 -374 468 -6 9 -14 17 -18 17 -11 0 -9 -411 2 -601 5 -86
15 -168 21 -183 16 -34 51 -53 117 -62 51 -6 52 -7 52 -40 l0 -34 -235 0 -235
0 0 34 c0 32 2 34 46 41 28 4 57 17 75 33 46 42 52 105 53 537 1 342 -1 383
-16 412 -25 45 -62 70 -124 84 -52 12 -54 13 -54 46 l0 33 163 -1 162 0 355
-430z m-18226 214 c-26 -43 -28 -56 -29 -151 0 -98 -1 -105 -25 -124 -49 -40
-166 2 -158 57 5 32 47 32 72 0 20 -25 23 -26 36 -10 12 14 10 25 -8 82 l-22
66 21 44 c19 40 78 91 119 105 25 8 23 -19 -6 -69z m159 -2 c41 -45 49 -94 22
-141 -19 -32 -19 -74 -1 -89 12 -10 18 -7 31 13 21 32 60 35 68 6 9 -36 -32
-72 -89 -77 -46 -5 -53 -3 -72 22 -19 24 -22 41 -22 122 0 80 -4 101 -25 143
-14 27 -25 56 -25 65 0 24 68 -15 113 -64z m-107 -124 c1 -43 7 -75 18 -91 21
-33 20 -56 -3 -83 -25 -30 -34 -29 -65 8 l-26 30 20 39 c13 26 20 59 20 98 0
32 3 62 7 66 18 17 28 -6 29 -67z m-2069 -961 c73 -80 20 -206 -87 -206 -92 0
-149 89 -112 173 37 85 137 101 199 33z m133 -12 l0 -36 46 41 c26 23 51 41
55 41 20 0 6 -21 -36 -56 -25 -20 -45 -41 -45 -47 0 -6 23 -35 52 -64 28 -29
49 -56 45 -60 -4 -4 -32 18 -62 47 l-55 54 0 -46 c0 -26 -4 -50 -10 -53 -6 -4
-10 35 -10 110 0 75 4 114 10 110 6 -3 10 -22 10 -41z m380 -70 c0 -63 -4
-104 -10 -104 -6 0 -10 44 -10 111 0 71 4 108 10 104 6 -3 10 -52 10 -111z
m289 95 c25 -15 31 -23 23 -31 -9 -9 -17 -7 -31 6 -20 18 -62 23 -99 12 -23
-8 -52 -53 -52 -81 0 -34 30 -73 65 -85 31 -10 41 -9 75 8 50 24 63 10 18 -18
-78 -50 -178 3 -178 94 0 95 95 146 179 95z m371 -9 c0 -20 5 -30 15 -30 8 0
15 -4 15 -10 0 -5 -7 -10 -15 -10 -12 0 -15 -14 -15 -69 0 -39 -4 -73 -10 -76
-6 -4 -10 22 -10 69 l0 76 -27 0 c-46 0 -56 -14 -61 -79 -6 -88 -22 -75 -22
19 0 47 4 80 10 80 6 0 10 -5 10 -12 0 -9 3 -9 12 0 7 7 27 12 45 12 30 0 33
3 33 30 0 17 5 30 10 30 6 0 10 -13 10 -30z m80 15 c0 -8 -6 -15 -14 -15 -17
0 -28 14 -19 24 12 12 33 6 33 -9z m90 5 c0 -5 -7 -10 -15 -10 -8 0 -15 -9
-15 -20 0 -11 7 -20 15 -20 8 0 15 -4 15 -10 0 -5 -7 -10 -15 -10 -12 0 -15
-14 -15 -69 0 -39 -4 -73 -10 -76 -6 -4 -10 20 -10 64 0 56 -3 72 -17 80 -17
9 -17 10 0 16 9 4 17 17 17 29 0 13 3 26 7 29 10 11 43 8 43 -3z m50 -5 c0 -8
-6 -15 -14 -15 -17 0 -28 14 -19 24 12 12 33 6 33 -9z m450 -15 c0 -20 5 -30
15 -30 8 0 15 -4 15 -10 0 -5 -7 -10 -15 -10 -12 0 -15 -14 -15 -69 0 -39 -4
-73 -10 -76 -6 -4 -10 20 -10 65 0 54 -4 72 -15 76 -8 4 -15 10 -15 15 0 5 7
9 15 9 10 0 15 10 15 30 0 17 5 30 10 30 6 0 10 -13 10 -30z m80 15 c0 -8 -6
-15 -14 -15 -17 0 -28 14 -19 24 12 12 33 6 33 -9z m488 -103 c-4 -132 -22
-135 -26 -5 -3 103 2 133 19 116 6 -6 9 -53 7 -111z m709 94 c37 -32 26 -40
-22 -16 -69 35 -135 -1 -135 -75 0 -72 66 -110 133 -76 34 17 47 17 47 0 0
-11 -66 -39 -95 -39 -60 0 -115 55 -115 115 0 93 118 151 187 91z m703 9 c0
-8 -7 -15 -15 -15 -8 0 -15 7 -15 15 0 8 7 15 15 15 8 0 15 -7 15 -15z m241
-17 c1 -18 1 -36 0 -40 -2 -12 17 -10 24 2 10 16 57 12 77 -7 14 -13 18 -31
18 -85 0 -44 -4 -67 -10 -63 -5 3 -10 32 -10 64 0 69 -16 90 -58 75 -24 -8
-28 -17 -37 -78 -5 -37 -13 -64 -17 -60 -12 11 -10 224 2 224 6 0 11 -15 11
-32z m199 2 c0 -20 5 -30 15 -30 8 0 15 -4 15 -10 0 -5 -7 -10 -15 -10 -11 0
-15 -17 -17 -72 -2 -40 -7 -73 -13 -73 -5 0 -11 33 -13 73 -2 39 -7 72 -12 72
-6 0 -10 5 -10 10 0 6 7 10 15 10 9 0 12 6 9 15 -8 19 2 45 16 45 5 0 10 -13
10 -30z m-3845 -80 c47 -101 55 -131 31 -111 -8 6 -19 25 -26 41 -11 27 -17
30 -56 30 -41 0 -45 -2 -65 -41 -13 -27 -24 -38 -30 -32 -11 11 80 213 94 210
4 -1 28 -45 52 -97z m560 44 c16 -6 45 -54 45 -73 0 -6 -34 -11 -77 -13 l-78
-3 28 -28 c29 -30 55 -30 90 1 9 8 20 12 25 8 11 -12 -47 -56 -74 -56 -31 0
-84 50 -84 80 0 26 25 77 42 83 19 8 64 8 83 1z m265 -80 c0 -54 -4 -83 -10
-79 -5 3 -10 42 -10 86 0 46 4 79 10 79 6 0 10 -35 10 -86z m140 0 c0 -54 -4
-83 -10 -79 -5 3 -10 42 -10 86 0 46 4 79 10 79 6 0 10 -35 10 -86z m174 71
c29 -22 10 -36 -23 -17 -39 22 -82 8 -95 -31 -12 -34 -1 -56 38 -75 22 -11 31
-11 58 2 17 9 33 14 36 11 10 -10 -22 -35 -53 -41 -85 -16 -141 81 -80 141 28
29 88 34 119 10z m167 5 c13 -7 19 -7 19 0 0 5 5 10 10 10 6 0 10 -35 9 -87 0
-67 -3 -84 -11 -72 -10 15 -14 15 -38 1 -36 -21 -76 -9 -101 31 -45 74 35 158
112 117z m189 -76 c0 -54 -4 -83 -10 -79 -5 3 -10 42 -10 86 0 46 4 79 10 79
6 0 10 -35 10 -86z m175 54 c32 -38 29 -81 -11 -115 -78 -70 -184 48 -109 122
36 37 86 34 120 -7z m75 21 c0 -8 4 -8 14 0 25 21 79 9 93 -19 15 -29 13 -130
-2 -130 -5 0 -11 26 -13 57 -3 61 -14 83 -42 83 -30 0 -49 -33 -52 -90 -2 -30
-7 -55 -13 -55 -11 0 -20 128 -11 152 6 16 26 18 26 2z m310 1 c0 -7 7 -7 20
0 33 18 73 8 87 -20 15 -28 13 -129 -2 -133 -6 -1 -11 27 -13 65 -3 63 -5 68
-28 74 -40 10 -63 -19 -66 -82 -2 -30 -7 -55 -13 -57 -11 -2 -20 126 -11 150
6 15 26 18 26 3z m288 -6 c12 -8 20 -20 17 -25 -4 -5 -15 -3 -28 6 -45 32
-107 6 -107 -45 0 -53 54 -83 97 -55 17 11 28 14 35 7 13 -13 -40 -42 -76 -42
-34 0 -75 38 -82 76 -9 46 35 94 85 94 20 0 47 -7 59 -16z m549 -6 c32 -30 32
-90 -2 -123 -43 -44 -106 -29 -131 30 -15 38 -11 59 19 93 27 29 82 30 114 0z
m76 10 c4 -10 7 -10 18 0 22 21 77 15 104 -13 35 -34 33 -78 -4 -116 -32 -32
-65 -37 -98 -14 -21 14 -21 14 -16 -25 5 -33 3 -40 -11 -40 -14 0 -16 15 -16
110 0 97 9 135 23 98z m209 -50 l26 -63 27 63 c24 54 45 79 45 54 0 -13 -80
-196 -91 -206 -17 -18 -20 2 -5 33 15 29 15 33 -3 68 -39 78 -51 113 -37 113
7 0 24 -28 38 -62z m138 50 c0 -9 3 -9 12 0 13 13 38 16 38 4 0 -4 -10 -12
-22 -17 -19 -8 -24 -20 -28 -73 -3 -34 -9 -63 -15 -65 -11 -2 -20 126 -11 150
7 16 26 17 26 1z m85 -71 c0 -106 -19 -104 -23 1 -2 65 0 83 10 80 9 -3 13
-28 13 -81z m154 71 c11 -10 14 -10 18 0 13 35 23 3 23 -74 0 -81 -1 -87 -29
-115 -16 -16 -40 -29 -53 -29 -27 0 -88 35 -88 50 0 14 7 13 35 -6 35 -23 87
-15 102 16 14 28 9 40 -9 22 -7 -7 -29 -12 -49 -12 -71 0 -105 85 -54 135 27
28 82 34 104 13z m-1123 -129 c10 -17 -13 -36 -27 -22 -12 12 -4 33 11 33 5 0
12 -5 16 -11z"/>
<path d="M3953 8308 c-6 -7 -59 -152 -118 -323 -59 -170 -110 -315 -112 -322
-4 -10 41 -13 216 -13 176 0 221 3 221 13 0 21 -181 641 -189 650 -4 4 -13 2
-18 -5z"/>
<path d="M14644 8490 c-176 -41 -215 -284 -60 -375 47 -27 131 -34 183 -14 88
33 138 139 117 248 -11 52 -77 118 -137 136 -55 16 -57 16 -103 5z m125 -74
c40 -21 57 -44 43 -58 -9 -9 -16 -7 -30 6 -73 65 -192 19 -192 -75 0 -92 119
-143 186 -80 22 19 44 17 44 -5 0 -27 -61 -54 -123 -54 -53 0 -61 3 -98 38
-33 31 -42 46 -46 82 -11 114 113 199 216 146z"/>
<path d="M10050 8403 c-59 -21 -148 -111 -183 -185 -45 -95 -60 -179 -60 -323
2 -206 53 -363 154 -470 179 -189 436 -132 532 119 76 200 54 515 -49 694 -39
69 -116 138 -180 162 -65 24 -150 25 -214 3z"/>
<path d="M13699 7983 c-41 -114 -76 -211 -77 -215 -2 -5 65 -7 150 -6 95 2
152 7 151 13 -7 34 -139 415 -144 415 -3 0 -39 -93 -80 -207z"/>
<path d="M11348 8385 l-28 -16 0 -256 0 -256 88 5 c124 7 191 46 238 138 22
43 30 170 15 226 -16 61 -63 118 -116 144 -60 29 -159 37 -197 15z"/>
<path d="M1727 6642 c-19 -21 -22 -83 -7 -113 15 -27 56 -24 76 6 18 28 14 85
-7 111 -16 19 -43 18 -62 -4z"/>
<path d="M1926 6653 c-9 -10 -7 -51 3 -58 10 -6 41 21 41 35 0 12 -36 31 -44
23z"/>
<path d="M2256 6608 c-9 -37 -7 -44 14 -44 11 0 20 5 20 11 0 21 -13 55 -20
55 -4 0 -10 -10 -14 -22z"/>
<path d="M2521 6602 c-16 -37 -14 -41 16 -33 19 5 20 9 9 35 l-12 30 -13 -32z"/>
<path d="M2696 6653 c-12 -12 -6 -63 7 -63 17 0 37 20 37 37 0 14 -34 35 -44
26z"/>
<path d="M2849 6655 c-8 -7 2 -65 11 -65 18 0 34 32 24 48 -11 17 -27 25 -35
17z"/>
<path d="M3000 6624 c0 -32 2 -34 20 -24 11 6 20 19 20 29 0 10 -9 21 -20 24
-17 4 -20 0 -20 -29z"/>
<path d="M3179 6643 c-8 -9 -14 -35 -14 -58 0 -49 18 -75 51 -75 29 0 44 27
44 79 0 61 -48 94 -81 54z"/>
<path d="M3562 6602 c-9 -28 -8 -30 15 -35 22 -4 24 -2 18 22 -10 41 -22 45
-33 13z"/>
<path d="M4560 6624 c0 -32 2 -34 20 -24 11 6 20 19 20 29 0 10 -9 21 -20 24
-17 4 -20 0 -20 -29z"/>
<path d="M4933 6601 c-10 -27 -9 -30 14 -34 22 -4 24 -2 18 22 -10 40 -20 44
-32 12z"/>
<path d="M5370 6644 c-8 -8 -13 -35 -13 -59 0 -51 16 -75 49 -75 29 0 44 27
44 79 0 61 -48 94 -80 55z"/>
<path d="M5771 6600 c-9 -28 -8 -30 14 -30 22 0 23 2 14 30 -6 17 -12 30 -14
30 -2 0 -8 -13 -14 -30z"/>
<path d="M8756 6182 c-10 -31 -44 -128 -76 -214 l-57 -158 154 0 c120 0 154 3
150 13 -3 6 -36 103 -74 215 -37 111 -70 202 -73 202 -3 0 -13 -26 -24 -58z"/>
<path d="M13517 6456 c-180 -50 -288 -268 -274 -551 13 -248 105 -436 252
-513 43 -23 62 -27 140 -27 80 0 95 3 137 27 92 54 152 150 183 291 24 110 17
350 -15 457 -42 145 -112 240 -213 289 -75 36 -145 45 -210 27z"/>
<path d="M16197 6102 c-27 -75 -61 -172 -77 -214 l-29 -78 154 0 154 0 -72
215 c-40 118 -74 214 -77 215 -3 0 -27 -62 -53 -138z"/>
<path d="M9962 6431 c-24 -15 -32 -84 -32 -308 0 -259 -6 -247 115 -247 76 -1
129 20 172 66 59 63 87 199 64 310 -25 117 -115 188 -240 188 -37 0 -72 -4
-79 -9z"/>
<path d="M11057 6422 c-15 -16 -17 -50 -17 -274 0 -208 3 -257 14 -261 39 -15
110 -18 157 -7 39 10 64 24 100 59 62 61 83 128 77 250 -6 127 -43 187 -138
230 -61 28 -170 29 -193 3z"/>
<path d="M12162 6424 c-22 -15 -22 -18 -22 -271 l0 -256 83 7 c136 11 217 64
253 163 18 52 17 170 -2 226 -19 56 -86 121 -140 136 -58 16 -146 14 -172 -5z"/>
<path d="M1470 6180 l0 -40 2270 0 2270 0 0 40 0 40 -2270 0 -2270 0 0 -40z"/>
<path d="M3446 5534 c-37 -38 -34 -79 10 -145 l35 -53 -24 -18 c-75 -55 -76
-58 -7 -33 36 13 78 28 93 34 l28 11 -30 38 c-43 53 -50 96 -21 127 13 14 33
25 44 25 20 1 20 1 -3 20 -35 30 -92 26 -125 -6z"/>
<path d="M3731 5543 l-24 -16 34 -11 c61 -20 65 -86 8 -151 -28 -32 -29 -35
-12 -42 10 -3 52 -19 93 -35 l75 -28 -45 39 c-39 34 -43 42 -33 58 59 86 67
140 28 178 -29 30 -88 34 -124 8z"/>
<path d="M1778 5280 l-33 -31 35 20 c22 13 36 17 41 10 3 -6 9 -2 12 10 8 31
-17 26 -55 -9z"/>
<path d="M5440 5294 c0 -9 6 -14 13 -11 6 2 24 -5 40 -15 15 -11 27 -15 27 -9
0 11 -53 51 -69 51 -6 0 -11 -7 -11 -16z"/>
<path d="M3620 5092 c-14 -2 -233 -41 -487 -88 -255 -46 -467 -84 -473 -84 -7
0 -10 -239 -8 -752 l3 -753 23 -57 c39 -97 100 -177 237 -313 180 -179 397
-335 641 -462 l94 -48 93 48 c240 121 470 288 657 476 136 137 180 198 226
308 l24 58 0 743 c0 585 -3 744 -12 747 -12 4 -821 152 -943 172 -27 5 -61 7
-75 5z m490 -137 c255 -46 467 -88 472 -93 5 -5 7 -324 6 -728 l-3 -719 -31
-65 c-44 -91 -107 -171 -227 -286 -161 -156 -403 -328 -612 -437 l-69 -36 -76
41 c-282 155 -527 342 -699 534 -75 84 -118 150 -143 221 -17 49 -18 99 -18
768 0 393 1 715 3 715 1 0 205 38 452 84 248 46 457 84 466 85 9 1 225 -37
479 -84z"/>
<path d="M3635 4951 c-3 -2 -5 -202 -5 -444 l0 -439 -60 91 c-33 50 -66 91
-74 91 -14 0 -29 29 -24 46 4 13 -24 49 -44 57 -10 3 -68 83 -130 176 -62 94
-115 170 -118 170 -3 0 -16 -9 -29 -20 -23 -19 -23 -20 -5 -40 12 -13 15 -23
8 -27 -155 -101 -150 -96 -135 -121 8 -12 13 -12 35 2 l26 17 65 -97 65 -97
-26 -21 c-24 -19 -25 -22 -10 -34 14 -12 26 -7 86 33 38 25 74 46 80 46 5 0
14 -9 20 -20 8 -14 8 -20 0 -20 -7 0 -4 -13 7 -30 10 -17 23 -28 30 -26 14 6
37 -30 28 -44 -3 -5 26 -55 65 -111 38 -56 70 -105 70 -108 0 -3 -173 -5 -385
-3 l-385 2 0 -247 c0 -236 2 -251 24 -304 93 -228 377 -484 734 -663 l92 -46
2 571 3 571 135 -198 c74 -108 137 -201 138 -206 2 -4 -11 -25 -28 -45 -42
-47 -60 -92 -60 -145 0 -79 50 -118 148 -118 138 0 301 139 302 258 0 45 -24
89 -60 107 -37 19 -130 19 -177 0 -30 -13 -39 -13 -48 -3 -13 14 -290 440
-290 445 0 2 185 5 410 6 l410 2 0 415 0 415 -95 18 c-337 63 -791 142 -795
138z m485 -94 l395 -72 3 -402 2 -403 -400 0 c-318 0 -400 3 -394 13 4 6 37
54 72 104 35 51 61 97 57 103 -8 14 14 52 26 44 12 -7 43 33 45 56 4 52 6 52
94 -6 60 -40 72 -45 86 -33 15 12 14 15 -10 34 l-26 21 65 97 65 97 26 -17
c22 -14 27 -14 35 -2 14 23 13 24 -65 75 -73 48 -75 50 -60 72 14 21 13 24 -8
42 -13 11 -25 19 -28 19 -3 1 -57 -78 -120 -174 -68 -103 -122 -175 -131 -175
-17 0 -46 -46 -36 -56 10 -10 -12 -44 -28 -44 -8 0 -43 -43 -76 -95 -34 -52
-63 -95 -65 -95 -2 0 -4 198 -4 441 l0 440 43 -6 c23 -4 220 -39 437 -78z
m-540 -895 c0 -4 -36 -60 -173 -269 l-126 -192 -42 14 c-54 19 -142 19 -179 0
-114 -59 -53 -240 112 -331 47 -25 63 -29 136 -29 82 0 84 1 113 33 50 56 37
148 -31 226 l-33 37 134 198 134 198 3 -550 c1 -303 0 -552 -2 -554 -6 -6
-112 49 -235 122 -141 84 -267 182 -371 291 -99 103 -137 155 -185 256 l-35
72 0 241 0 240 390 0 c215 0 390 -1 390 -3z m-400 -506 c0 -8 -4 -18 -10 -21
-22 -14 -9 -27 21 -21 41 8 123 -45 114 -74 -9 -28 16 -36 36 -11 21 26 31 15
32 -36 2 -53 -31 -76 -103 -71 -93 7 -176 77 -187 158 -5 32 -1 40 27 63 34
29 70 36 70 13z m979 -1 c52 -27 56 -84 9 -146 -84 -109 -258 -123 -258 -20 0
16 3 36 6 45 5 13 9 12 23 -6 20 -24 45 -16 36 12 -4 14 6 26 41 50 39 27 50
31 70 22 28 -13 39 -1 24 27 -5 11 -10 22 -10 25 0 11 31 6 59 -9z"/>
<path d="M15134 4083 c-39 -109 -75 -206 -79 -215 -7 -17 4 -18 150 -18 121 0
156 3 152 13 -3 6 -36 103 -74 215 -37 111 -70 202 -73 202 -3 0 -37 -89 -76
-197z"/>
<path d="M18129 4497 c-126 -47 -207 -155 -245 -325 -21 -92 -15 -326 10 -417
69 -252 259 -396 448 -341 105 30 193 137 234 286 27 96 25 356 -4 461 -58
216 -177 336 -340 346 -41 2 -81 -2 -103 -10z"/>
<path d="M20746 4264 c-14 -36 -146 -406 -146 -410 0 -2 68 -4 150 -4 83 0
150 4 150 9 0 11 -129 392 -139 410 -6 10 -10 9 -15 -5z"/>
<path d="M12663 4480 c-40 -16 -43 -39 -43 -289 l0 -241 68 0 c183 0 282 93
283 264 1 100 -17 152 -67 203 -60 60 -174 90 -241 63z"/>
<path d="M1864 3014 c17 -56 36 -197 36 -264 0 -120 -24 -196 -92 -291 -9 -14
-3 -30 35 -92 62 -99 71 -106 105 -80 42 30 105 130 131 208 l24 70 -52 85
c-56 91 -127 234 -156 315 -18 50 -43 90 -31 49z"/>
<path d="M5420 2993 c-21 -64 -116 -260 -170 -347 l-51 -83 26 -69 c14 -38 37
-87 50 -109 33 -56 98 -117 117 -110 8 3 38 44 66 91 l51 86 -29 40 c-35 48
-57 111 -70 204 -8 57 -6 96 9 200 11 71 18 130 16 132 -2 2 -9 -14 -15 -35z"/>
<path d="M2165 2930 c-4 -7 -2 -17 4 -23 21 -21 11 -36 -44 -69 -30 -18 -55
-38 -55 -45 0 -20 19 -16 72 17 58 36 61 36 81 8 8 -13 18 -20 22 -16 4 3 -10
35 -30 70 -44 76 -41 72 -50 58z"/>
<path d="M5120 2931 c0 -6 9 -26 21 -45 l21 -36 -45 0 c-31 0 -47 -5 -51 -15
-4 -12 5 -15 52 -15 31 -1 68 -7 82 -15 32 -18 40 -18 40 -1 0 8 -13 22 -28
32 -16 9 -39 36 -53 60 -22 41 -39 56 -39 35z"/>
<path d="M5012 2745 c-40 -63 -43 -102 -5 -49 l20 26 57 -37 c43 -29 60 -35
68 -27 14 14 17 11 -55 56 -55 36 -57 38 -42 59 17 24 19 37 6 37 -5 0 -27
-29 -49 -65z"/>
<path d="M2188 2739 c-39 -26 -55 -44 -52 -54 5 -13 11 -12 34 5 35 25 46 11
25 -30 -10 -19 -13 -40 -9 -53 6 -20 9 -18 25 20 15 35 23 42 51 45 23 2 34 9
37 23 4 23 -27 85 -43 84 -6 0 -37 -18 -68 -40z m77 -38 c-13 -14 -17 -13 -32
2 -16 16 -16 18 2 31 18 13 21 13 33 -2 10 -13 9 -19 -3 -31z"/>
<path d="M2273 2624 c-29 -25 -53 -54 -53 -64 0 -28 39 -70 66 -70 23 0 124
66 124 82 0 20 -21 13 -67 -23 -57 -43 -65 -46 -83 -24 -18 21 -4 46 46 83 42
31 52 51 28 59 -5 1 -33 -18 -61 -43z"/>
<path d="M4952 2657 c-8 -10 5 -25 56 -64 55 -42 69 -49 75 -37 5 9 7 17 5 18
-1 1 -31 23 -64 49 -48 36 -64 44 -72 34z"/>
<path d="M1083 2629 c-20 -20 -15 -64 10 -86 57 -52 111 -57 159 -14 32 29 33
30 13 45 -60 47 -161 77 -182 55z"/>
<path d="M6129 2625 c-49 -18 -109 -58 -106 -70 2 -5 19 -20 38 -33 53 -36
126 -17 165 44 14 20 15 30 6 49 -13 29 -45 32 -103 10z"/>
<path d="M4877 2556 c-5 -12 96 -106 115 -106 13 0 68 79 59 85 -6 3 -20 -8
-32 -24 l-22 -31 -53 45 c-58 50 -60 51 -67 31z"/>
<path d="M2397 2522 c-13 -14 -16 -29 -11 -65 6 -43 5 -47 -14 -47 -13 0 -27
11 -35 26 -10 19 -16 23 -22 14 -12 -20 28 -65 63 -68 40 -4 54 20 42 74 -5
21 -5 43 -1 47 12 12 39 -2 46 -24 6 -18 25 -18 25 0 0 14 -49 61 -63 61 -8 0
-21 -8 -30 -18z"/>
<path d="M4822 2497 c-8 -10 4 -27 52 -70 51 -45 66 -54 75 -43 9 10 -3 26
-53 70 -50 43 -66 53 -74 43z"/>
<path d="M2490 2453 c0 -3 7 -15 16 -25 16 -17 14 -21 -30 -73 -64 -74 -49
-92 20 -24 l54 53 25 -24 c48 -45 27 4 -23 53 -45 45 -62 55 -62 40z"/>
<path d="M4745 2410 l-29 -31 57 -56 56 -57 31 29 c43 41 39 80 -8 80 -23 0
-31 4 -27 13 7 20 -13 52 -33 52 -10 0 -31 -14 -47 -30z m53 -28 c4 -25 -19
-30 -37 -9 -8 10 -7 17 1 25 17 17 32 10 36 -16z m46 -28 c19 -7 21 -25 4 -42
-17 -17 -53 15 -37 35 13 15 12 15 33 7z"/>
<path d="M4643 2319 c-7 -7 -1 -35 20 -94 29 -79 53 -107 41 -47 -8 39 34 79
66 62 16 -8 25 -9 33 -1 13 13 16 12 -70 55 -83 41 -76 39 -90 25z m52 -41
c29 -13 31 -21 10 -38 -17 -14 -17 -15 -33 23 -13 31 -12 31 23 15z"/>
<path d="M2569 2274 c-10 -13 -10 -17 2 -25 19 -12 25 -11 37 4 8 9 6 16 -8
24 -14 10 -21 9 -31 -3z"/>
<path d="M4567 2254 c-3 -4 7 -26 24 -50 16 -24 28 -44 25 -44 -3 0 -30 9 -60
21 -84 31 -97 17 -45 -51 22 -30 44 -62 49 -70 6 -11 12 -12 19 -4 8 7 3 22
-19 50 -16 21 -30 42 -30 46 0 4 27 -4 60 -18 93 -38 101 -24 38 66 -43 60
-49 65 -61 54z"/>
<path d="M2692 2238 c-15 -15 -15 -33 0 -75 9 -26 9 -36 0 -45 -9 -9 -18 -6
-41 16 -23 22 -29 24 -34 12 -8 -20 42 -56 77 -56 36 0 48 33 29 84 -17 51 -3
69 30 38 30 -29 44 -16 15 15 -23 25 -57 30 -76 11z"/>
<path d="M2781 2136 c-39 -64 -39 -103 0 -125 39 -22 70 -7 107 49 34 54 39
70 20 70 -7 0 -26 -23 -42 -50 -31 -52 -46 -63 -71 -54 -23 9 -18 43 16 95 27
43 31 69 11 69 -4 0 -23 -24 -41 -54z"/>
<path d="M4414 2146 c-3 -8 14 -44 38 -80 33 -48 48 -62 58 -56 11 7 4 23 -33
79 -26 39 -50 71 -52 71 -3 0 -8 -6 -11 -14z"/>
<path d="M4317 2093 c-8 -12 16 -183 25 -183 4 0 8 13 8 29 0 37 44 70 72 52
21 -13 48 -15 48 -3 0 11 -125 112 -138 112 -6 0 -13 -3 -15 -7z m73 -71 c6
-4 -23 -22 -37 -22 -8 0 -13 13 -13 32 l0 31 23 -19 c12 -10 24 -20 27 -22z"/>
<path d="M2925 2054 c-33 -36 -34 -92 -2 -122 27 -25 72 -38 81 -23 4 6 -1 11
-11 11 -60 0 -83 71 -38 115 29 30 45 31 78 5 28 -22 37 -25 37 -10 0 16 -62
50 -93 50 -17 0 -37 -10 -52 -26z"/>
<path d="M4215 2039 c-33 -16 -64 -31 -70 -33 -5 -2 -7 -7 -3 -11 5 -5 19 -3
34 3 25 12 26 10 55 -53 16 -36 33 -65 39 -65 21 0 19 23 -10 80 l-30 60 25
12 c14 6 25 17 25 25 0 7 -1 13 -2 12 -2 0 -30 -14 -63 -30z"/>
<path d="M3094 2010 c-54 -21 -72 -100 -31 -138 24 -23 87 -41 87 -25 0 5 -15
13 -32 18 -46 14 -60 55 -31 93 23 31 64 40 83 18 14 -18 30 -21 30 -6 0 25
-74 53 -106 40z"/>
<path d="M4057 1972 c-37 -41 -18 -71 56 -86 45 -10 30 -49 -23 -58 -22 -4
-23 -5 -7 -13 12 -5 31 -2 53 8 28 14 34 22 34 47 0 32 -14 42 -73 55 -34 7
-34 38 1 43 12 2 22 8 22 13 0 16 -46 10 -63 -9z"/>
<path d="M3208 1903 c-12 -38 -23 -72 -23 -77 0 -13 93 -47 100 -36 6 9 -34
30 -57 30 -6 0 -7 11 -3 27 9 36 9 37 35 23 14 -8 26 -8 32 -2 6 6 -2 13 -22
20 -28 10 -30 14 -20 33 11 20 21 21 63 4 10 -4 17 -3 17 4 0 11 -62 41 -85
41 -8 0 -24 -30 -37 -67z"/>
<path d="M3970 1943 c0 -5 7 -30 15 -57 20 -66 19 -83 -5 -91 -30 -10 -45 8
-60 70 -14 60 -19 68 -38 56 -8 -5 -6 -24 9 -74 17 -56 24 -68 46 -73 31 -8
72 5 86 27 13 21 -20 149 -39 149 -8 0 -14 -3 -14 -7z"/>
<path d="M3356 1908 c-17 -23 -11 -41 23 -72 12 -11 21 -28 21 -39 0 -17 -5
-19 -40 -13 -51 8 -53 -9 -3 -23 29 -8 42 -7 60 4 31 21 29 46 -7 80 -16 16
-30 34 -30 41 0 20 18 26 41 14 27 -15 39 -2 15 16 -29 20 -63 17 -80 -8z"/>
<path d="M3770 1897 c-18 -9 -25 -21 -25 -42 0 -25 6 -31 40 -44 22 -8 43 -20
47 -25 11 -17 -12 -36 -44 -36 -17 0 -27 -4 -23 -10 10 -16 61 -11 85 8 34 28
21 67 -27 82 -21 7 -42 16 -47 21 -13 11 12 39 35 39 11 0 19 5 19 10 0 14
-30 12 -60 -3z"/>
<path d="M3492 1888 c-21 -21 -14 -46 22 -79 43 -39 38 -64 -10 -56 -19 3 -36
2 -39 -3 -13 -20 83 -28 103 -8 22 22 13 55 -25 85 -42 35 -38 59 9 49 21 -4
28 -2 26 7 -6 16 -70 21 -86 5z"/>
<path d="M3653 1814 c-6 -17 5 -34 23 -34 8 0 14 10 14 23 0 25 -28 33 -37 11z"/>
<path d="M17140 2326 c0 -2 -34 -97 -75 -212 -41 -115 -75 -210 -75 -211 0 -2
68 -3 151 -3 117 0 150 3 147 13 -3 6 -35 103 -72 215 -57 171 -76 220 -76
198z"/>
<path d="M20285 2527 c-167 -81 -257 -317 -225 -590 27 -230 112 -385 253
-459 58 -31 202 -33 262 -3 86 42 154 140 191 275 27 96 24 346 -4 452 -41
153 -120 268 -218 318 -73 37 -191 40 -259 7z"/>
<path d="M10970 2510 c-19 -19 -20 -33 -20 -271 l0 -252 86 7 c95 7 133 20
183 62 53 44 81 115 81 203 0 102 -16 147 -70 201 -51 52 -99 70 -184 70 -43
0 -61 -5 -76 -20z"/>
<path d="M1457 1309 c-29 -17 -49 -68 -43 -105 19 -98 173 -98 192 0 11 61
-35 116 -96 115 -19 0 -43 -4 -53 -10z m108 -32 c11 -9 14 -16 7 -21 -6 -3
-13 -2 -17 4 -18 29 -95 0 -95 -36 0 -35 68 -71 85 -44 3 6 14 10 23 10 28 -1
-26 -40 -55 -40 -29 0 -73 41 -73 68 0 11 9 31 21 46 23 29 72 35 104 13z"/>
<path d="M1946 1251 c-21 -39 -18 -43 22 -39 l30 3 -18 34 -17 35 -17 -33z"/>
<path d="M2497 1242 c-10 -10 -17 -20 -17 -23 0 -2 25 -4 55 -4 58 0 64 4 39
29 -21 21 -57 20 -77 -2z"/>
<path d="M3242 1244 c-22 -15 -30 -57 -14 -80 16 -24 51 -35 75 -23 29 16 37
28 37 61 0 28 -31 58 -60 58 -9 0 -26 -7 -38 -16z"/>
<path d="M3580 1240 c-40 -40 -12 -102 46 -102 52 0 75 76 32 106 -30 21 -54
20 -78 -4z"/>
<path d="M4812 1244 c-22 -15 -30 -57 -14 -80 16 -24 51 -35 75 -23 43 23 50
66 17 99 -24 24 -48 25 -78 4z"/>
<path d="M5001 1234 c-12 -15 -21 -33 -21 -41 0 -19 45 -63 65 -63 18 0 65 43
65 60 0 16 -21 53 -34 62 -22 15 -55 7 -75 -18z"/>
<path d="M5480 1240 c-50 -50 6 -120 75 -94 37 15 38 82 1 106 -20 14 -56 8
-76 -12z"/>
</g>
</svg>
