<?xml version="1.0" standalone="no"?>
<!DOCTYPE svg PUBLIC "-//W3C//DTD SVG 20010904//EN"
 "http://www.w3.org/TR/2001/REC-SVG-20010904/DTD/svg10.dtd">
<svg version="1.0" xmlns="http://www.w3.org/2000/svg"
 width="160" height="26" viewBox="0 0 1181.000000 1604.000000"
 preserveAspectRatio="xMidYMid meet">

<g transform="translate(0.000000,1604.000000) scale(0.100000,-0.100000)"
fill="white" stroke="none">
<path d="M0 8020 l0 -8020 5905 0 5905 0 0 8020 0 8020 -5905 0 -5905 0 0
-8020z m6842 5943 c9 -10 194 -556 413 -1213 219 -657 410 -1222 425 -1256 31
-69 84 -132 138 -166 30 -19 56 -24 142 -28 l105 -5 3 -70 c2 -56 0 -72 -14
-82 -13 -10 -151 -12 -598 -13 -320 0 -591 3 -603 6 -19 5 -22 14 -25 72 -2
36 2 71 7 78 6 8 43 14 103 16 88 3 95 5 118 31 13 15 24 37 24 48 0 25 -219
791 -229 802 -10 10 -822 10 -832 0 -8 -9 -169 -472 -194 -558 -23 -81 -31
-215 -15 -254 21 -52 52 -65 180 -71 l115 -5 3 -76 c3 -72 2 -77 -20 -83 -30
-8 -926 -8 -956 0 -22 6 -23 11 -20 83 l3 76 107 5 c102 6 110 8 157 40 53 38
109 100 146 164 13 23 69 158 123 301 55 143 178 460 272 705 95 245 206 533
247 640 42 107 96 247 121 310 56 142 63 191 32 232 -35 48 -25 60 71 85 143
38 348 133 393 182 23 26 38 26 58 4z m-3383 -89 l32 -7 -3 -76 -3 -76 -96 -5
c-104 -5 -124 -14 -144 -65 -8 -22 -10 -165 -7 -532 l4 -503 29 0 c53 0 93 26
180 117 95 100 678 822 703 871 40 77 9 115 -100 120 l-74 4 0 67 c0 39 5 72
12 79 9 9 121 12 443 12 236 0 440 -3 453 -6 20 -6 22 -12 22 -80 l0 -74 -79
0 c-145 0 -236 -42 -365 -167 -95 -93 -696 -761 -696 -774 0 -15 1021 -1388
1057 -1420 46 -43 73 -53 163 -59 l85 -5 3 -73 c3 -70 2 -72 -23 -82 -42 -16
-1077 -13 -1099 3 -14 10 -16 25 -14 77 l3 65 55 6 c73 8 100 23 100 55 0 30
-680 1038 -736 1092 -28 26 -42 32 -79 32 l-45 0 0 -539 c0 -367 4 -548 11
-570 16 -44 41 -55 144 -61 l90 -5 3 -70 c2 -57 0 -72 -14 -82 -26 -19 -1032
-19 -1058 0 -14 10 -16 25 -14 82 l3 70 101 5 c103 5 124 13 145 52 7 13 13
407 16 1143 7 1197 7 1170 -41 1198 -11 7 -64 14 -116 17 l-95 5 -3 74 c-2 53
1 77 10 82 15 10 990 12 1037 3z m6296 -4 c25 -10 26 -12 23 -82 l-3 -73 -118
-5 -119 -5 -29 -33 -29 -32 0 -284 c0 -155 3 -669 7 -1141 l6 -858 23 -26 c21
-25 27 -26 151 -31 l128 -5 3 -70 c2 -56 0 -72 -14 -82 -25 -18 -1182 -19
-1207 0 -15 10 -17 25 -15 82 l3 70 128 5 c191 7 172 -49 180 540 4 266 7 780
7 1143 l0 659 -34 34 -34 34 -130 0 c-149 0 -140 -6 -141 93 -1 51 2 59 22 67
31 12 1159 13 1192 0z m-6806 -3067 c45 -34 65 -80 65 -148 0 -100 -50 -163
-135 -172 -104 -10 -180 85 -163 205 13 89 81 147 163 139 24 -3 55 -14 70
-24z m2370 0 c45 -34 66 -81 66 -148 0 -106 -56 -170 -150 -170 -100 0 -148
62 -143 182 4 82 22 116 79 146 42 22 110 18 148 -10z m3570 0 c45 -34 66 -81
66 -148 0 -98 -52 -163 -136 -172 -108 -11 -183 90 -159 216 10 54 36 90 81
114 42 22 110 18 148 -10z m-6381 -58 c-2 -41 -2 -75 -1 -75 1 0 25 34 53 75
40 59 56 75 75 75 14 0 25 -2 25 -5 0 -3 -21 -36 -46 -74 l-46 -69 61 -91 62
-91 -41 0 c-40 0 -42 2 -88 74 -26 41 -49 75 -52 75 -3 1 -4 -33 -2 -74 l4
-75 -36 0 -36 0 0 165 0 165 36 0 36 0 -4 -75z m737 50 c34 -33 33 -84 -1
-124 l-26 -31 33 -52 c17 -29 38 -63 47 -75 14 -23 13 -23 -26 -23 -40 0 -42
2 -74 62 -18 35 -41 64 -50 66 -16 3 -18 -5 -18 -62 l0 -66 -30 0 -30 0 0 165
0 165 75 0 c67 0 79 -3 100 -25z m295 0 c0 -24 -2 -25 -66 -25 l-65 0 3 -42 3
-43 53 -3 c48 -3 53 -5 50 -25 -3 -19 -9 -22 -53 -23 l-50 -1 -3 -46 -3 -47
70 0 c69 0 71 -1 71 -25 l0 -25 -100 0 -100 0 0 165 0 165 95 0 c95 0 95 0 95
-25z m256 -134 c30 -84 54 -158 54 -163 0 -5 -14 -8 -32 -6 -27 3 -33 9 -46
46 l-14 43 -61 -3 -60 -3 -15 -42 c-11 -35 -18 -43 -38 -43 -23 0 -23 0 31
156 30 85 57 160 61 165 3 6 20 9 36 7 30 -3 32 -7 84 -157z m430 0 c30 -85
54 -159 54 -164 0 -4 -14 -7 -32 -5 -27 3 -33 9 -46 46 l-14 42 -58 0 -58 0
-18 -45 c-13 -37 -21 -45 -41 -45 -20 0 -24 4 -18 18 4 9 29 79 56 156 27 76
52 142 55 148 3 5 19 8 36 6 30 -3 32 -7 84 -157z m257 150 c16 -6 29 -23 37
-45 23 -71 -27 -146 -96 -146 l-34 0 0 -65 0 -65 -35 0 -35 0 0 165 0 165 69
0 c38 0 81 -4 94 -9z m250 0 c16 -6 29 -23 37 -45 23 -71 -27 -146 -96 -146
l-34 0 0 -65 0 -65 -35 0 -35 0 0 165 0 165 69 0 c38 0 81 -4 94 -9z m251 -2
c36 -17 51 -68 32 -112 -8 -19 -22 -39 -31 -44 -15 -9 -12 -18 29 -82 25 -39
46 -74 46 -77 0 -3 -17 -4 -37 -2 -35 3 -40 8 -72 66 -23 41 -41 62 -53 62
-16 0 -18 -9 -18 -65 l0 -65 -30 0 -30 0 0 165 0 165 70 0 c38 0 80 -5 94 -11z
m531 -109 c21 -66 42 -117 46 -112 4 4 23 57 41 117 29 93 38 111 56 113 13 2
22 -2 22 -10 0 -7 -22 -80 -50 -163 l-49 -150 -33 -3 -33 -3 -53 158 c-28 87
-52 162 -52 166 0 4 15 7 33 7 l33 0 39 -120z m364 93 c22 -58 101 -286 101
-295 0 -5 -14 -8 -32 -6 -27 3 -33 9 -46 46 l-14 43 -61 -3 -60 -3 -15 -42
c-11 -36 -18 -43 -39 -43 -20 0 -24 4 -18 18 4 9 29 79 55 155 27 75 52 142
55 147 3 6 19 10 34 10 22 0 31 -7 40 -27z m211 -113 l0 -140 65 0 c63 0 65
-1 65 -25 l0 -25 -100 0 -100 0 0 165 0 165 35 0 35 0 0 -140z m360 -25 l0
-165 -30 0 -30 0 0 165 0 165 30 0 30 0 0 -165z m195 58 c33 -56 62 -102 65
-102 3 -1 5 45 5 101 l0 103 28 3 27 3 0 -166 0 -166 -32 3 c-29 3 -38 13 -93
105 -33 56 -62 103 -65 103 -3 0 -4 -48 -2 -106 l3 -105 -28 3 -28 3 -3 150
c-1 82 0 155 3 163 3 8 16 12 32 10 23 -2 37 -20 88 -105z m435 82 c0 -23 -3
-25 -52 -25 l-53 0 0 -137 0 -138 -32 -3 -33 -3 0 140 0 141 -48 0 c-55 0 -62
4 -55 31 5 18 15 19 139 19 l134 0 0 -25z m230 0 c0 -24 -2 -25 -66 -25 l-65
0 3 -42 3 -43 53 -3 c48 -3 53 -5 50 -25 -3 -19 -9 -22 -53 -23 l-50 -1 -3
-46 -3 -47 70 0 c69 0 71 -1 71 -25 l0 -25 -100 0 -100 0 0 165 0 165 95 0
c95 0 95 0 95 -25z m213 16 c35 -14 52 -61 37 -105 -6 -20 -20 -42 -31 -50
-20 -13 -19 -16 25 -84 26 -39 46 -73 46 -77 0 -3 -17 -5 -37 -3 -35 3 -40 7
-71 66 -23 43 -39 62 -53 62 -17 0 -19 -7 -19 -65 l0 -65 -30 0 -30 0 0 165 0
165 69 0 c38 0 81 -4 94 -9z m242 -98 c33 -56 62 -102 65 -103 3 0 5 46 5 102
l0 103 28 3 27 3 0 -166 0 -166 -32 3 c-29 3 -38 13 -93 105 -33 56 -62 103
-65 103 -3 0 -4 -47 -2 -105 l3 -105 -30 0 -31 0 0 166 0 165 32 -3 c29 -3 38
-13 93 -105z m397 -58 l57 -165 -34 0 c-30 0 -35 4 -47 43 l-15 42 -59 3 -59
3 -15 -43 c-11 -31 -21 -44 -37 -46 -13 -2 -23 1 -23 6 0 8 52 161 105 310 2
6 19 12 37 12 l33 0 57 -165z m338 140 c0 -24 -3 -25 -55 -25 l-55 0 0 -140 0
-140 -30 0 -30 0 0 140 0 140 -49 0 c-51 0 -67 10 -57 35 4 12 32 15 141 15
l135 0 0 -25z m100 -140 l0 -165 -30 0 -30 0 0 165 0 165 30 0 30 0 0 -165z
m530 58 l65 -107 3 107 c3 106 3 107 27 107 l25 0 0 -165 0 -165 -29 0 c-26 0
-35 10 -92 107 l-64 108 -3 -108 c-3 -106 -3 -107 -27 -107 l-25 0 0 165 0
165 28 0 c24 0 35 -13 92 -107z m388 -35 c72 -207 69 -188 32 -188 -27 0 -33
5 -50 46 l-20 45 -57 -3 -56 -3 -15 -42 c-11 -36 -18 -43 -39 -43 -16 0 -23 5
-20 13 2 6 28 81 57 165 l53 152 32 0 33 0 50 -142z m172 2 l0 -140 65 0 c63
0 65 -1 65 -25 l0 -25 -100 0 -100 0 0 165 0 165 35 0 35 0 0 -140z m130 -625
l0 -135 -3725 0 -3725 0 0 135 0 135 3725 0 3725 0 0 -135z m-3800 -590 l63
-225 -44 -42 c-24 -24 -54 -56 -66 -73 l-23 -30 -22 30 c-13 17 -43 49 -67 73
l-45 43 64 224 c35 124 67 225 70 225 4 0 35 -101 70 -225z m-215 -359 c46
-21 104 -74 134 -122 10 -15 13 -16 18 -5 14 34 92 106 138 127 96 45 235 26
305 -41 l25 -24 75 20 c152 41 281 -14 346 -147 23 -48 26 -63 22 -127 -3 -40
-13 -87 -23 -107 -27 -55 -148 -210 -163 -210 -11 0 -72 42 -141 97 -3 2 23
32 56 66 85 86 113 131 113 180 0 97 -115 172 -188 121 -19 -13 -22 -24 -22
-87 0 -80 -23 -143 -67 -189 -15 -15 -25 -29 -22 -31 2 -2 57 -43 122 -92 64
-48 117 -93 117 -99 0 -7 -5 -17 -11 -23 -23 -23 138 -26 370 -9 l225 17 73
-80 c76 -82 194 -170 257 -191 39 -13 50 -33 14 -25 -13 2 -160 29 -328 59
-168 30 -530 96 -805 146 l-499 92 -336 -62 c-184 -34 -542 -99 -795 -145
-253 -47 -472 -87 -487 -89 -42 -8 -33 10 15 29 75 30 175 104 250 187 l74 80
84 -11 c125 -17 332 -25 432 -16 85 7 88 8 72 25 -16 17 -10 23 107 111 68 51
125 94 127 96 3 2 -7 16 -22 31 -44 46 -67 109 -67 188 0 81 -8 93 -68 101
-76 10 -142 -51 -142 -133 0 -51 41 -117 118 -191 52 -51 54 -54 36 -67 -10
-8 -44 -32 -74 -55 l-55 -42 -33 38 c-62 71 -122 160 -138 204 -47 133 13 281
139 346 72 36 138 40 216 13 l64 -21 26 21 c90 73 219 92 316 46z m-2885 -463
c41 -12 99 -16 225 -17 l170 -1 7 -94 c6 -81 5 -98 -12 -131 -11 -21 -24 -41
-29 -45 -6 -3 -29 8 -52 25 -57 41 -90 39 -127 -6 -17 -20 -36 -56 -42 -80
-15 -53 -6 -68 57 -96 39 -17 45 -17 79 -3 34 14 39 14 62 -1 23 -15 24 -19
18 -83 -9 -87 -31 -131 -79 -154 -35 -18 -39 -18 -63 -2 -14 9 -42 42 -62 73
l-37 57 -3 -33 c-6 -58 25 -95 171 -206 141 -107 163 -129 185 -179 15 -34 15
-181 2 -336 -12 -132 -6 -162 43 -208 45 -43 69 -53 127 -53 67 0 106 18 160
75 55 57 82 72 148 81 83 11 91 1 43 -51 -63 -69 -63 -69 89 -187 l55 -43
-101 -3 -101 -3 34 -64 c33 -62 76 -175 70 -182 -2 -1 -31 17 -65 42 -34 25
-64 45 -66 45 -3 0 -8 -20 -12 -45 l-6 -45 -42 26 c-72 45 -185 94 -289 124
-55 17 -160 57 -234 91 -73 33 -149 63 -168 66 l-35 6 0 -41 c0 -48 -12 -63
-186 -237 -170 -170 -169 -166 -169 -430 0 -142 -4 -216 -12 -230 -13 -22
-224 -228 -322 -315 -47 -41 -61 -59 -56 -72 4 -10 58 -65 121 -122 l114 -105
144 -3 144 -3 39 -31 c52 -42 92 -102 100 -147 l6 -38 -38 25 c-45 31 -101 36
-90 9 15 -35 17 -109 5 -153 l-12 -45 -23 50 c-25 54 -70 113 -79 104 -3 -3
-11 -39 -18 -80 -6 -40 -13 -76 -14 -78 -2 -2 -17 8 -34 23 -20 17 -43 26 -65
26 -57 0 -81 16 -138 92 -56 76 -187 208 -206 208 -6 0 -17 -13 -25 -29 -16
-29 -34 -41 -66 -41 -18 0 -50 62 -50 97 0 21 -16 7 -34 -29 -6 -12 -19 -24
-29 -26 -14 -3 -17 5 -17 47 0 56 -22 122 -95 279 -52 114 -65 188 -46 259 13
48 32 70 67 79 34 9 40 0 15 -25 -27 -27 -27 -63 2 -97 23 -26 24 -26 55 -10
17 9 44 33 59 53 33 44 34 28 -2 398 -14 149 -23 285 -20 303 7 38 31 63 198
206 88 76 133 121 146 150 28 59 48 169 61 341 6 83 16 168 21 190 15 55 68
176 88 199 15 18 15 18 -4 8 -22 -11 -84 -75 -106 -108 -12 -19 -14 4 -14 182
0 201 0 203 25 229 l24 26 -37 -16 c-47 -19 -130 -19 -167 0 -36 19 -39 35 -6
35 69 0 104 38 110 121 2 37 15 77 39 125 l36 71 -37 24 c-51 34 -84 85 -80
128 3 39 23 52 33 22 11 -35 63 -65 115 -65 39 -1 57 6 101 35 130 88 200 105
309 72z m6215 -9 c22 -9 65 -34 96 -56 31 -21 72 -41 91 -44 44 -8 101 18 129
57 24 34 39 30 39 -12 0 -42 -23 -81 -70 -121 l-41 -33 36 -77 c24 -53 35 -91
35 -123 0 -25 5 -55 10 -66 13 -24 61 -49 95 -49 34 0 32 -16 -5 -35 -37 -19
-120 -19 -168 0 -37 15 -37 15 -15 -4 33 -28 41 -59 32 -121 -10 -74 -10 -215
1 -270 9 -50 4 -65 -12 -35 -17 29 -89 105 -112 117 -20 10 -20 10 -4 -8 23
-26 77 -148 89 -201 5 -25 14 -104 19 -176 20 -252 44 -349 103 -410 18 -17
87 -79 154 -136 66 -57 129 -118 139 -137 18 -33 18 -41 -13 -351 l-30 -318
26 -45 c14 -24 41 -53 60 -64 l34 -20 23 28 c31 35 31 80 2 100 -28 20 -18 30
22 21 26 -6 36 -16 52 -53 33 -73 22 -164 -31 -277 -75 -158 -101 -232 -101
-285 0 -59 -20 -68 -45 -20 -9 17 -19 30 -23 30 -4 0 -15 -22 -25 -50 -13 -36
-23 -50 -37 -50 -32 0 -50 11 -66 41 -8 16 -19 29 -25 29 -18 0 -148 -131
-205 -207 -63 -83 -77 -93 -133 -93 -28 0 -48 -7 -69 -25 -17 -14 -33 -22 -35
-18 -3 5 -8 33 -12 63 -13 96 -16 99 -58 50 -20 -23 -39 -55 -42 -71 -10 -45
-21 -43 -35 6 -12 42 -9 109 6 148 10 27 -44 22 -89 -8 -33 -23 -37 -24 -37
-8 1 29 39 106 68 136 54 57 88 67 232 67 l130 0 111 102 c117 108 135 130
122 152 -4 8 -48 47 -98 88 -139 116 -282 269 -290 309 -3 19 -2 98 3 177 16
246 5 272 -204 483 -151 153 -156 159 -153 196 4 38 3 38 -31 37 -20 -1 -99
-30 -180 -67 -80 -36 -174 -73 -210 -82 -86 -22 -211 -74 -285 -118 l-60 -35
-7 40 c-4 23 -10 43 -12 45 -3 3 -32 -16 -66 -42 -34 -26 -63 -45 -66 -42 -7
7 43 135 76 194 l30 52 -103 3 -102 3 85 64 c47 36 88 70 92 75 16 23 7 48
-33 91 -48 52 -40 62 43 52 62 -8 110 -35 160 -91 43 -50 101 -71 176 -64 57
6 101 35 131 88 21 37 21 41 10 241 -16 275 -10 294 124 396 34 25 96 73 138
105 81 61 103 94 97 149 l-3 33 -39 -61 c-49 -77 -70 -90 -119 -70 -46 20 -63
47 -77 126 -19 106 5 145 73 116 41 -17 91 -7 126 26 19 18 22 28 16 57 -14
76 -58 132 -103 132 -17 0 -48 -14 -72 -31 l-43 -31 -18 23 c-28 36 -35 76
-29 169 l5 85 170 1 c123 1 185 6 225 18 64 18 147 14 205 -10z m-2960 -382
c88 -17 448 -83 800 -147 352 -65 646 -122 653 -128 10 -8 12 -256 10 -1241
l-3 -1231 -23 -65 c-65 -185 -163 -334 -341 -521 -304 -321 -738 -637 -1194
-869 l-127 -65 -108 54 c-310 155 -692 404 -929 607 -111 95 -313 295 -392
389 -123 145 -181 244 -231 394 l-30 89 0 1230 c0 767 4 1233 10 1237 8 5 339
66 1285 239 138 25 273 50 300 55 70 14 136 8 320 -27z m-2219 -128 c41 -24
44 -28 29 -44 -8 -9 -15 -21 -15 -27 0 -17 44 -49 94 -68 52 -19 49 -27 -16
-39 -62 -11 -79 -33 -79 -99 0 -63 29 -140 62 -160 35 -22 19 -30 -51 -25 -54
4 -79 12 -111 33 l-42 27 -64 -64 c-74 -72 -108 -126 -119 -183 l-7 -40 -18
43 c-10 23 -24 42 -31 42 -7 0 -23 -17 -34 -38 -31 -53 -114 -162 -124 -162
-5 0 -9 75 -8 168 1 92 0 175 -3 186 -3 14 16 29 91 70 124 69 202 146 260
258 47 91 94 148 123 148 10 0 39 -12 63 -26z m4052 -7 c17 -18 45 -59 61 -92
65 -135 125 -194 299 -294 48 -28 72 -48 68 -56 -12 -32 -16 -138 -9 -242 5
-62 5 -113 1 -113 -13 0 -58 54 -106 127 -45 70 -68 87 -77 61 -2 -7 -10 -26
-16 -43 l-12 -30 -8 38 c-14 63 -44 109 -117 180 l-69 69 -43 -28 c-34 -23
-57 -29 -111 -32 -70 -4 -85 3 -49 26 34 21 63 91 64 155 1 50 -3 62 -22 78
-13 10 -40 21 -60 25 -69 12 -69 20 -3 45 73 26 96 56 67 88 -16 18 -15 20 26
44 57 35 78 33 116 -6z m1858 -146 c27 -12 72 -44 99 -70 28 -27 66 -54 86
-60 61 -19 96 -72 144 -215 26 -76 35 -196 15 -196 -5 0 -10 9 -10 20 0 44
-18 17 -23 -35 -6 -57 -40 -131 -69 -149 -35 -22 -90 63 -108 170 -15 85 -27
109 -62 125 -54 24 -71 58 -74 146 -4 94 -15 117 -66 137 -76 31 -168 14 -193
-35 -35 -66 -11 -152 122 -439 206 -444 213 -463 213 -613 0 -106 -20 -156
-87 -217 -24 -23 -46 -40 -48 -38 -2 1 1 26 6 53 11 56 4 135 -15 174 -7 14
-16 55 -19 91 -7 73 -14 92 -190 490 -69 157 -134 314 -143 350 -42 165 25
287 181 331 53 15 187 3 241 -20z m-7608 4 c124 -37 185 -149 161 -297 -7 -45
-52 -157 -156 -393 -158 -357 -183 -424 -183 -490 0 -23 -9 -62 -20 -86 -21
-47 -26 -124 -11 -177 6 -19 6 -32 0 -32 -19 0 -93 77 -110 115 -23 50 -25
202 -4 292 8 34 71 185 141 335 140 302 160 350 180 423 34 126 -3 185 -116
185 -111 0 -149 -42 -148 -163 0 -79 -15 -108 -72 -137 -42 -21 -43 -24 -69
-151 -13 -63 -63 -149 -85 -149 -36 0 -86 101 -89 179 -1 23 -3 41 -4 41 -2 0
-9 -12 -16 -27 -11 -26 -12 -24 -15 36 -4 77 21 164 76 266 34 65 41 71 86 86
29 10 61 30 80 51 17 19 41 42 53 52 62 51 220 71 321 41z m770 -1238 c145
-94 262 -215 262 -271 0 -51 -122 -254 -184 -305 -9 -7 -16 -22 -16 -32 0 -20
-4 -20 245 -23 35 -1 69 8 115 29 45 20 86 30 133 33 61 4 71 2 93 -19 l26
-24 -57 -6 c-30 -4 -59 -10 -63 -13 -3 -4 1 -19 11 -34 32 -52 57 -107 57
-131 0 -22 -1 -23 -17 -9 -43 37 -139 65 -158 46 -4 -3 7 -32 24 -63 28 -52
43 -133 24 -123 -144 73 -245 94 -408 82 -231 -17 -316 -4 -382 58 -37 35 -34
44 80 212 46 68 87 173 87 221 l0 35 -101 0 -102 0 7 43 c13 81 52 146 148
243 50 52 96 94 101 94 4 0 39 -20 75 -43z m5969 -45 c96 -95 137 -161 149
-244 l6 -48 -102 0 -103 0 5 -49 c6 -58 67 -186 133 -279 25 -35 48 -74 51
-88 8 -33 -22 -65 -89 -95 -47 -21 -64 -23 -167 -19 -259 9 -331 6 -410 -19
-41 -12 -90 -31 -108 -42 -18 -10 -35 -19 -38 -19 -14 0 1 70 27 122 22 43 27
63 19 68 -20 12 -88 -6 -131 -35 l-42 -27 7 32 c6 34 18 59 52 117 10 17 16
35 12 39 -4 3 -33 9 -65 13 l-58 6 30 23 c42 34 136 28 220 -13 59 -29 62 -29
210 -26 83 1 154 6 158 11 5 4 -17 39 -50 78 -73 88 -143 209 -150 262 -6 40
-5 41 88 133 87 86 218 186 246 187 6 0 51 -40 100 -88z m-5076 -108 c41 -12
66 -28 106 -69 68 -70 88 -134 80 -251 -8 -107 -26 -174 -93 -344 -85 -216
-94 -263 -104 -504 -4 -115 -4 -239 1 -275 20 -156 7 -166 -58 -45 -128 238
-184 482 -149 655 16 86 53 166 131 284 107 164 135 245 115 339 -13 63 -38
91 -74 82 -19 -5 -28 -17 -37 -47 -23 -76 -99 -104 -153 -54 -47 44 -33 137
31 196 53 49 114 59 204 33z m4211 5 c48 -13 101 -67 117 -119 22 -75 -17
-140 -84 -140 -43 0 -71 23 -91 75 -32 86 -95 68 -114 -33 -18 -95 10 -176
116 -336 116 -176 139 -244 137 -406 -1 -174 -58 -363 -163 -550 -60 -105 -70
-91 -49 67 7 56 7 139 0 284 -12 233 -23 285 -102 484 -128 322 -132 483 -13
602 72 72 157 97 246 72z m-3973 -1004 c29 -75 32 -177 7 -252 -10 -29 -16
-63 -14 -75 3 -20 8 -23 37 -20 46 3 137 -16 150 -32 12 -15 -20 -67 -86 -138
-71 -78 -77 -113 -39 -226 14 -40 21 -72 16 -72 -13 0 -115 123 -146 177 -98
166 -119 416 -48 573 32 71 74 132 88 127 6 -2 22 -30 35 -62z m3674 13 c60
-88 81 -165 81 -298 1 -135 -12 -195 -64 -305 -36 -75 -140 -214 -167 -222 -8
-3 -4 21 12 68 39 114 32 161 -35 224 -41 39 -90 109 -90 130 0 22 45 37 120
39 59 2 65 4 68 24 2 12 -4 45 -13 72 -28 84 -19 215 21 293 8 15 18 27 23 27
5 0 25 -24 44 -52z m-4373 -411 c37 -18 82 -92 125 -204 21 -54 66 -157 100
-230 382 -803 1145 -1398 2020 -1575 149 -31 355 -30 503 1 216 45 452 127
667 230 655 315 1186 892 1439 1565 42 111 85 186 119 206 45 28 90 25 217
-15 96 -30 124 -35 195 -33 76 3 85 1 109 -21 35 -33 34 -52 -20 -363 -42
-242 -46 -272 -41 -383 6 -136 31 -226 88 -312 l33 -50 70 106 c165 250 467
482 707 543 60 15 104 19 171 16 83 -3 92 -5 113 -30 15 -17 25 -45 29 -85 12
-104 28 -166 67 -271 44 -115 48 -162 19 -209 -39 -64 -152 -123 -234 -123
-48 1 -109 34 -145 79 -18 22 -37 41 -41 41 -5 0 -39 -28 -75 -62 -45 -41
-104 -118 -185 -239 -129 -191 -173 -242 -225 -259 -30 -10 -41 -7 -104 24
-113 57 -211 63 -351 22 -72 -22 -117 -9 -182 52 -86 80 -162 199 -213 335
-12 32 -25 58 -28 58 -4 -1 -53 -58 -109 -128 -181 -227 -458 -490 -693 -659
-395 -284 -937 -513 -1390 -586 -119 -19 -437 -16 -555 6 -473 86 -927 277
-1337 562 -285 199 -574 480 -804 784 l-26 34 -37 -96 c-80 -207 -228 -378
-327 -378 -13 0 -53 9 -87 20 -36 11 -92 20 -127 20 -69 0 -173 -28 -220 -60
-41 -27 -63 -25 -117 9 -37 24 -68 63 -164 208 -112 169 -195 271 -257 315
l-27 20 -45 -50 c-56 -62 -89 -76 -164 -69 -89 8 -184 64 -218 130 -21 42 -12
102 32 210 23 56 42 126 51 190 21 134 33 162 80 177 57 19 203 7 293 -24 250
-87 514 -303 676 -554 44 -69 48 -72 65 -57 32 29 78 128 95 208 27 120 17
282 -34 559 -22 125 -41 241 -41 258 0 22 9 41 29 61 29 29 31 29 113 23 77
-5 92 -3 193 30 118 38 165 43 205 23z m1143 -443 c64 -23 136 -77 311 -236
222 -201 332 -289 428 -338 43 -23 78 -45 78 -51 0 -18 -72 2 -143 39 -66 34
-101 57 -336 216 -63 42 -157 98 -209 124 -157 78 -270 71 -367 -24 -42 -40
-95 -130 -95 -161 0 -25 -18 -13 -29 18 -15 43 -14 78 4 129 8 23 15 46 15 51
0 5 -21 9 -46 9 -65 0 -119 33 -150 92 l-14 26 73 -5 72 -5 75 49 c69 45 132
75 185 87 28 6 103 -4 148 -20z m2917 1 c20 -7 72 -36 115 -65 l80 -52 72 4
c40 3 71 2 70 -1 -32 -73 -87 -111 -162 -111 -45 0 -47 -1 -40 -22 24 -76 28
-118 16 -157 -11 -39 -31 -56 -31 -28 0 8 -14 42 -31 75 -52 104 -140 162
-248 162 -105 0 -230 -62 -486 -240 -77 -54 -178 -118 -225 -143 -87 -46 -160
-67 -160 -47 0 6 17 18 38 27 94 39 238 150 474 366 70 63 149 133 177 155
118 93 226 118 341 77z m-2773 -290 c100 -45 193 -105 193 -124 0 -17 -10 -18
-118 -17 -110 1 -121 -1 -171 -26 -29 -16 -60 -28 -69 -28 -9 0 -36 19 -59 42
-42 41 -44 42 -78 29 -90 -32 -64 59 32 116 83 49 175 51 270 8z m2668 3 c49
-25 82 -54 101 -89 11 -23 11 -29 -1 -39 -11 -9 -22 -9 -50 1 -34 13 -36 12
-78 -29 -23 -23 -50 -42 -59 -42 -9 0 -40 12 -69 28 -50 25 -61 27 -171 26
-126 -1 -138 4 -95 43 33 31 175 105 227 120 57 16 142 7 195 -19z m-2369
-214 c26 -9 87 -40 135 -70 155 -96 161 -98 344 -99 160 0 162 -1 157 -34 -3
-16 -133 -97 -202 -127 -52 -22 -81 -28 -145 -28 -95 -1 -125 12 -188 81 -124
138 -151 156 -206 137 -37 -13 -40 -55 -7 -103 57 -82 6 -162 -80 -126 -50 21
-68 69 -61 166 7 111 41 170 117 203 45 20 79 20 136 0z m1984 -12 c59 -44 90
-118 90 -215 0 -73 -20 -121 -59 -142 -83 -42 -147 51 -85 124 34 41 31 92 -7
105 -55 19 -81 1 -205 -136 -62 -69 -94 -83 -189 -83 -77 0 -85 3 -185 52
-108 54 -175 104 -167 126 3 9 45 12 158 12 177 1 199 6 309 75 83 52 152 89
190 101 38 13 122 2 150 -19z m-1096 -301 c3 -4 -16 -48 -42 -97 l-47 -89 0
-157 c0 -142 -2 -159 -21 -185 -47 -65 -120 -76 -212 -32 -69 34 -94 110 -44
135 34 17 61 6 84 -32 61 -103 107 -1 53 120 -30 68 -32 116 -5 171 25 52 69
94 144 139 61 37 81 43 90 27z m112 -27 c75 -45 119 -87 144 -139 27 -55 25
-103 -5 -175 -32 -76 -33 -135 -3 -151 19 -10 24 -8 40 12 11 13 26 32 33 42
8 9 28 17 45 17 24 0 33 -6 40 -26 23 -59 -27 -113 -126 -135 -45 -10 -56 -9
-90 7 -73 36 -79 56 -76 224 l3 148 -46 88 c-68 133 -61 149 41 88z m-81 -181
c5 -10 8 -59 9 -109 1 -82 4 -96 34 -153 37 -70 37 -67 -26 -141 l-30 -35 -46
48 c-25 26 -46 55 -46 64 0 9 12 41 28 72 23 47 27 69 28 141 0 47 4 95 8 108
9 26 31 29 41 5z m-3444 -1614 c51 -17 97 -55 119 -99 22 -43 26 -122 9 -167
-18 -49 -79 -103 -136 -119 -48 -14 -58 -14 -106 0 -35 10 -64 28 -89 53 -44
46 -58 79 -58 141 1 138 132 234 261 191z m1380 -30 c50 -25 63 -43 44 -59
-12 -10 -20 -7 -45 14 -62 52 -154 43 -209 -19 -40 -46 -48 -93 -26 -150 19
-52 60 -85 115 -92 49 -7 77 0 123 31 29 20 38 22 47 11 8 -10 4 -19 -22 -38
-82 -62 -199 -55 -265 15 -52 56 -66 135 -34 203 25 55 61 86 118 101 55 14
102 9 154 -17z m737 5 c4 -29 -28 -41 -45 -18 -10 13 -10 21 -1 31 16 19 42
12 46 -13z m160 4 c3 -13 -3 -16 -25 -15 -25 2 -28 -2 -31 -30 -3 -30 -1 -33
22 -33 19 0 26 -5 26 -20 0 -15 -7 -20 -25 -20 l-25 0 0 -115 c0 -108 -1 -115
-20 -115 -19 0 -20 7 -20 115 0 96 -3 115 -15 115 -9 0 -15 9 -15 21 0 15 5
19 15 15 12 -4 15 3 15 34 0 22 7 45 16 55 21 21 78 16 82 -7z m69 6 c3 -8 -2
-23 -11 -32 -15 -15 -17 -15 -32 0 -21 21 -11 48 16 48 11 0 23 -7 27 -16z
m862 2 c9 -11 8 -17 -4 -30 -19 -18 -45 -11 -45 13 0 32 28 42 49 17z m1942
-17 c50 -25 63 -43 44 -59 -12 -10 -20 -7 -45 14 -85 71 -225 20 -246 -90 -16
-86 59 -173 149 -174 37 0 109 30 122 50 5 8 11 7 21 -1 40 -33 -91 -95 -174
-83 -116 17 -189 140 -148 248 41 108 166 151 277 95z m1157 7 c4 -21 -14 -37
-35 -29 -14 5 -18 35 -6 47 12 12 38 1 41 -18z m402 -46 l0 -70 33 20 c47 29
93 26 128 -9 28 -29 29 -32 29 -135 0 -88 -3 -106 -15 -106 -12 0 -15 16 -16
83 -1 102 -8 128 -40 146 -36 20 -76 7 -99 -32 -16 -25 -20 -50 -20 -115 0
-74 -2 -83 -17 -80 -16 3 -18 21 -21 173 -1 93 0 175 2 182 3 7 12 13 21 13
12 0 15 -14 15 -70z m-6410 -6 l0 -66 71 66 c61 57 109 83 109 59 0 -3 -36
-40 -80 -80 l-80 -75 90 -96 c79 -86 87 -97 67 -101 -17 -2 -40 16 -99 80
l-78 84 0 -82 c0 -76 -2 -83 -20 -83 -19 0 -20 7 -20 180 0 173 1 180 20 180
18 0 20 -7 20 -66z m465 -111 c41 -88 75 -166 75 -172 0 -6 -7 -11 -15 -11 -8
0 -28 27 -45 60 l-30 60 -73 0 -73 0 -29 -60 c-19 -41 -34 -60 -47 -60 -10 0
-18 3 -18 6 0 20 165 353 171 347 5 -5 42 -81 84 -170z m155 -3 c0 -173 -1
-180 -20 -180 -19 0 -20 7 -20 180 0 173 1 180 20 180 19 0 20 -7 20 -180z
m1072 133 c3 -43 5 -48 28 -48 35 0 33 -29 -2 -33 l-28 -3 0 -115 c0 -95 -3
-114 -15 -114 -12 0 -15 19 -15 115 0 104 -2 115 -18 115 -10 0 -23 5 -30 12
-9 9 -12 9 -12 0 0 -6 -7 -9 -15 -6 -8 3 -25 -6 -40 -20 -23 -23 -25 -32 -25
-121 0 -88 -1 -95 -20 -95 -19 0 -20 7 -20 129 0 131 9 163 35 127 11 -15 14
-15 25 0 10 11 28 15 64 13 l51 -3 3 47 c4 65 30 65 34 0z m1090 0 c3 -43 5
-48 28 -48 35 0 33 -29 -2 -33 l-28 -3 0 -115 c0 -95 -3 -114 -15 -114 -12 0
-15 19 -15 114 0 111 -1 115 -22 118 -13 2 -23 10 -23 18 0 8 10 16 23 18 19
3 22 9 22 48 0 32 4 44 14 44 11 0 16 -14 18 -47z m928 -134 c0 -166 -1 -180
-17 -177 -16 3 -18 20 -21 168 -1 90 0 170 2 177 3 7 12 13 21 13 13 0 15 -25
15 -181z m3019 134 c-3 -45 -2 -48 21 -48 33 0 33 -28 0 -35 -25 -5 -25 -6
-25 -115 0 -97 -2 -110 -17 -113 -16 -3 -18 7 -18 112 0 111 -1 115 -22 118
-13 2 -23 10 -23 18 0 8 10 16 23 18 19 3 22 9 22 48 0 38 3 44 21 44 18 0 20
-5 18 -47z m-5335 -74 c19 -16 38 -40 41 -52 18 -62 27 -57 -104 -57 -67 0
-121 -3 -121 -6 0 -3 7 -21 15 -39 16 -33 50 -55 86 -55 26 0 76 26 87 45 5
10 15 13 25 9 13 -5 14 -10 6 -26 -26 -49 -123 -74 -184 -46 -30 13 -62 62
-65 98 -5 64 1 83 39 121 35 35 44 39 89 39 43 0 57 -5 86 -31z m416 -104 c0
-113 -2 -135 -15 -135 -13 0 -15 22 -15 135 0 113 2 135 15 135 13 0 15 -22
15 -135z m230 -1 c0 -124 -2 -135 -17 -132 -16 3 -18 18 -21 123 -3 129 0 145
23 145 13 0 15 -21 15 -136z m253 125 c41 -22 58 -41 46 -55 -8 -10 -18 -7
-47 13 -96 65 -211 -33 -157 -136 27 -52 120 -66 166 -25 24 21 58 11 38 -12
-22 -27 -67 -44 -115 -44 -146 0 -195 175 -71 250 36 22 106 26 140 9z m306
-13 c17 -16 19 -16 24 5 3 12 12 19 19 17 10 -4 14 -38 16 -136 2 -127 2 -132
-18 -132 -14 0 -20 7 -20 21 l0 20 -26 -20 c-19 -15 -41 -21 -77 -21 -44 0
-53 4 -88 39 -36 35 -39 43 -39 93 0 60 15 89 64 119 37 24 116 21 145 -5z
m301 -111 c0 -113 -2 -135 -15 -135 -13 0 -15 22 -15 135 0 113 2 135 15 135
13 0 15 -22 15 -135z m255 115 c36 -22 65 -73 65 -114 0 -79 -60 -136 -144
-136 -43 0 -53 4 -87 39 -36 35 -39 43 -39 93 0 33 6 62 16 77 42 59 129 78
189 41z m145 0 c0 -20 0 -20 33 0 47 29 93 26 127 -8 23 -23 29 -41 35 -93 10
-93 4 -143 -17 -147 -16 -3 -18 6 -18 91 0 80 -3 98 -21 121 -23 29 -47 33
-88 11 -37 -19 -51 -60 -51 -152 0 -62 -3 -74 -16 -71 -13 3 -15 22 -15 131 0
70 0 129 1 132 1 16 30 2 30 -15z m507 1 c5 -19 5 -19 36 0 47 28 93 25 128
-10 28 -29 29 -32 29 -136 0 -90 -2 -106 -15 -103 -12 2 -16 23 -19 102 -3 89
-5 101 -26 118 -30 25 -63 23 -97 -6 -26 -23 -28 -29 -31 -120 -4 -86 -6 -96
-23 -96 -18 0 -19 9 -19 128 0 71 3 132 7 135 12 13 25 7 30 -12z m481 -14
c23 -23 25 -29 12 -37 -10 -6 -21 -3 -36 11 -50 47 -140 29 -171 -35 -45 -95
69 -184 161 -127 33 21 56 21 56 1 0 -20 -69 -50 -114 -50 -88 0 -146 51 -146
127 0 94 57 147 153 140 47 -3 63 -9 85 -30z m867 13 c36 -22 65 -73 65 -114
0 -79 -60 -136 -144 -136 -43 0 -53 4 -87 39 -36 35 -39 43 -39 93 0 33 6 62
16 77 42 59 129 78 189 41z m145 0 c0 -11 3 -20 6 -20 3 0 17 9 31 20 77 60
203 -14 203 -120 0 -101 -119 -164 -207 -110 l-33 20 0 -65 c0 -51 -3 -65 -15
-65 -13 0 -15 27 -15 180 0 153 2 180 15 180 8 0 15 -9 15 -20z m307 -10 c8
-14 28 -58 46 -99 l33 -73 43 101 c34 79 47 101 63 101 11 0 18 -4 16 -8 -1
-5 -37 -86 -78 -180 -56 -129 -79 -172 -92 -172 -22 0 -22 3 6 65 l22 49 -53
118 c-29 64 -53 120 -53 123 0 16 36 -3 47 -25z m253 14 c0 -14 2 -14 22 0 31
22 70 21 66 -1 -2 -10 -10 -18 -18 -19 -8 -1 -21 -2 -28 -2 -24 -3 -42 -69
-42 -152 0 -72 -2 -81 -17 -78 -16 3 -18 18 -21 123 -1 65 0 125 2 132 7 18
36 16 36 -3z m140 -119 c0 -113 -2 -135 -15 -135 -13 0 -15 22 -15 135 0 113
2 135 15 135 13 0 15 -22 15 -135z m247 116 c31 -19 31 -19 36 1 3 11 12 18
19 16 15 -5 24 -182 13 -257 -12 -79 -82 -123 -172 -106 -50 9 -123 85 -81 85
6 0 22 -9 34 -21 64 -60 184 -29 184 48 l0 22 -46 -20 c-32 -15 -56 -19 -80
-15 -76 15 -128 99 -104 170 11 33 52 79 80 89 32 12 86 6 117 -12z m-1829
-200 c21 -13 10 -46 -16 -49 -27 -4 -40 22 -22 43 14 17 20 18 38 6z"/>
<path d="M6443 13472 c-7 -4 -95 -246 -196 -538 l-183 -529 184 -3 c101 -1
263 -1 361 0 l178 3 -148 518 c-82 284 -153 526 -159 537 -12 22 -18 24 -37
12z"/>
<path d="M2815 10756 c-46 -46 -41 -176 8 -211 54 -38 110 -2 122 79 18 116
-63 199 -130 132z"/>
<path d="M5191 10761 c-17 -17 -41 -78 -41 -106 0 -5 5 -27 11 -48 31 -112
137 -100 154 17 17 111 -62 199 -124 137z"/>
<path d="M8761 10763 c-33 -28 -47 -100 -31 -157 31 -111 138 -99 155 18 17
111 -57 194 -124 139z"/>
<path d="M3130 10720 c0 -36 4 -50 14 -50 28 0 48 13 57 37 13 35 -5 63 -41
63 -29 0 -30 -1 -30 -50z"/>
<path d="M3677 10687 c-9 -30 -17 -57 -17 -60 0 -4 18 -7 40 -7 22 0 40 1 40
3 0 10 -34 103 -39 110 -4 4 -15 -17 -24 -46z"/>
<path d="M4107 10687 c-9 -30 -17 -57 -17 -60 0 -4 18 -7 40 -7 22 0 40 1 40
3 0 10 -34 103 -39 110 -4 4 -15 -17 -24 -46z"/>
<path d="M4389 10720 c-2 -29 -2 -53 -1 -55 2 -2 17 1 33 7 53 18 51 90 -4 96
-24 3 -25 0 -28 -48z"/>
<path d="M4639 10720 c-2 -29 -2 -53 -1 -55 2 -2 17 1 33 7 53 18 51 90 -4 96
-24 3 -25 0 -28 -48z"/>
<path d="M4880 10720 c0 -55 15 -64 58 -34 42 29 23 84 -30 84 -27 0 -28 -2
-28 -50z"/>
<path d="M5807 10687 c-9 -30 -17 -57 -17 -60 0 -4 18 -7 41 -7 35 0 40 3 34
18 -3 9 -11 36 -18 60 -6 23 -14 42 -17 42 -4 0 -14 -24 -23 -53z"/>
<path d="M7420 10720 c0 -46 2 -50 23 -50 44 0 74 59 45 88 -7 7 -25 12 -40
12 -27 0 -28 -2 -28 -50z"/>
<path d="M8056 10730 c-9 -24 -36 -102 -36 -106 0 -2 18 -4 40 -4 46 0 46 3
20 75 -11 32 -20 45 -24 35z"/>
<path d="M9407 10694 c-24 -70 -23 -74 24 -74 45 0 45 2 10 84 l-16 38 -18
-48z"/>
<path d="M2380 9995 l0 -65 3715 0 3715 0 0 65 0 65 -3715 0 -3715 0 0 -65z"/>
<path d="M5640 8968 c-18 -13 -41 -39 -51 -58 -36 -66 -20 -127 57 -229 19
-24 34 -49 34 -56 0 -6 -30 -33 -67 -60 -38 -27 -70 -50 -72 -52 -2 -2 -2 -5
0 -8 3 -2 65 18 139 46 74 27 141 52 149 54 9 4 1 18 -27 49 -85 92 -105 175
-54 226 16 16 45 32 65 35 31 6 35 10 27 25 -27 50 -144 66 -200 28z"/>
<path d="M6096 8971 c-50 -33 -50 -46 0 -59 49 -13 84 -56 84 -103 0 -40 -48
-126 -91 -162 l-39 -34 152 -56 c84 -31 154 -55 155 -53 2 2 -28 27 -67 57
-38 29 -70 58 -70 63 0 6 16 34 36 61 73 101 88 158 58 222 -37 76 -149 109
-218 64z"/>
<path d="M2935 8568 c-26 -14 -85 -70 -85 -80 0 -4 23 6 50 22 61 36 74 37 65
8 -5 -16 -4 -20 3 -13 5 6 13 25 17 43 6 27 4 32 -12 32 -10 0 -27 -6 -38 -12z"/>
<path d="M8865 8548 c4 -18 12 -37 18 -43 7 -7 8 -5 4 7 -11 31 12 30 63 -1
28 -17 53 -31 57 -31 13 0 -62 72 -89 86 -46 24 -61 19 -53 -18z"/>
<path d="M5425 8140 c-264 -48 -608 -111 -765 -139 -157 -29 -297 -54 -312
-57 l-28 -6 0 -1197 c0 -1348 -6 -1243 80 -1418 69 -141 148 -242 330 -423
241 -241 506 -444 835 -639 171 -102 358 -201 379 -201 22 0 205 92 356 180
335 195 635 423 885 675 202 202 295 337 361 521 l34 95 0 1193 c0 948 -3
1196 -13 1204 -7 6 -199 45 -427 86 -228 42 -588 107 -799 146 -211 38 -395
70 -410 69 -14 0 -242 -40 -506 -89z m1187 -125 c725 -132 840 -154 850 -164
4 -3 8 -528 8 -1166 2 -1288 6 -1194 -65 -1335 -55 -108 -132 -208 -269 -348
-215 -220 -407 -377 -681 -558 -137 -90 -375 -230 -467 -275 l-46 -22 -134 73
c-423 233 -719 450 -1009 740 -183 183 -250 266 -310 385 -79 159 -73 54 -76
1348 l-4 1157 23 10 c13 5 187 39 388 75 409 74 1007 184 1030 189 59 14 188
-5 762 -109z"/>
<path d="M5920 7274 l0 -727 -102 156 c-79 120 -107 155 -120 151 -24 -7 -55
42 -41 64 13 22 -40 98 -66 94 -13 -2 -65 69 -202 274 -101 152 -187 281 -191
287 -7 12 -33 1 -77 -32 l-25 -19 27 -35 27 -35 -63 -45 c-34 -24 -90 -63
-125 -86 l-62 -42 17 -30 c9 -16 20 -29 23 -29 3 0 22 11 42 25 l37 25 106
-157 106 -158 -22 -15 c-60 -40 -61 -42 -37 -73 l23 -27 120 80 c66 44 123 80
126 80 4 0 15 -12 24 -27 13 -19 15 -31 8 -42 -13 -21 41 -97 66 -93 25 4 56
-44 41 -63 -11 -14 44 -104 182 -298 26 -37 48 -69 48 -72 0 -3 -286 -5 -635
-5 l-636 0 3 -397 3 -398 33 -77 c174 -403 588 -781 1200 -1095 79 -40 147
-73 153 -73 5 0 8 364 6 925 -1 509 0 925 3 925 3 0 52 -69 109 -153 57 -84
157 -232 224 -329 l120 -176 -57 -69 c-67 -81 -96 -151 -96 -234 0 -70 15
-104 65 -147 45 -40 71 -47 170 -46 143 1 288 71 397 193 117 130 137 294 46
378 -62 58 -200 73 -317 33 -35 -11 -70 -20 -78 -18 -16 3 -493 729 -486 741
2 4 305 7 674 7 l669 0 0 673 0 674 -707 127 c-390 70 -718 130 -730 133 l-23
5 0 -728z m745 576 c369 -66 676 -122 683 -125 9 -3 12 -145 12 -665 l0 -660
-651 0 c-517 0 -650 3 -646 13 2 6 55 86 117 176 87 127 111 168 103 180 -15
24 16 73 42 67 16 -4 27 5 49 40 21 33 26 48 18 56 -8 8 -7 19 6 40 9 15 20
28 24 28 5 0 63 -36 129 -81 l120 -80 19 23 c20 23 26 48 13 48 -5 0 -21 11
-38 24 l-29 24 103 156 c62 94 108 153 115 149 6 -3 23 -15 38 -25 33 -23 33
-23 57 10 l20 29 -116 79 c-64 43 -120 82 -126 85 -6 4 -2 20 12 42 11 19 21
37 21 41 0 3 -19 18 -41 33 -41 27 -42 27 -55 8 -7 -11 -93 -139 -191 -285
-142 -211 -182 -265 -198 -263 -27 3 -84 -82 -67 -99 18 -18 -14 -70 -40 -66
-17 2 -39 -25 -122 -154 -56 -86 -103 -157 -106 -157 -3 -1 -4 323 -2 720 l2
721 28 -6 c15 -3 329 -60 697 -126z m-841 -1469 c7 -11 -453 -720 -477 -735
-11 -7 -34 -4 -81 13 -75 26 -204 30 -258 8 -46 -19 -94 -70 -108 -113 -31
-93 20 -235 118 -330 207 -202 502 -234 590 -64 46 89 12 222 -83 328 -25 28
-45 55 -45 62 0 10 405 615 431 644 5 6 9 -395 9 -902 l0 -912 -122 61 c-346
173 -626 367 -843 584 -181 180 -301 350 -365 516 l-30 78 0 386 0 385 629 0
c371 0 632 -4 635 -9z m-653 -845 c-12 -18 -21 -38 -21 -44 0 -19 38 -23 64
-7 24 16 27 15 101 -35 74 -50 76 -52 69 -85 -5 -27 -2 -35 15 -44 18 -10 23
-7 43 24 13 19 26 35 30 35 10 0 28 -60 28 -94 0 -80 -65 -122 -174 -114 -178
15 -353 210 -293 328 19 38 74 70 119 70 l40 0 -21 -34z m1604 18 c179 -85
-25 -384 -261 -384 -60 0 -104 18 -128 52 -19 26 -21 94 -5 135 11 27 11 27
25 8 40 -59 41 -60 58 -46 9 8 16 29 16 50 0 34 5 39 74 84 l73 48 31 -18 c25
-14 32 -15 46 -4 15 12 14 16 -4 46 -11 18 -20 35 -20 39 0 12 62 6 95 -10z"/>
<path d="M3035 4870 c2 -14 19 -108 36 -210 27 -158 31 -201 26 -295 -10 -183
-56 -321 -136 -405 l-38 -40 50 -88 c91 -159 124 -202 156 -202 39 0 144 111
193 206 43 82 98 226 98 257 0 12 -30 69 -66 127 -86 138 -200 366 -258 515
-26 66 -52 129 -57 140 -8 18 -9 17 -4 -5z"/>
<path d="M8844 4838 c-51 -155 -168 -398 -285 -594 -44 -72 -79 -140 -79 -151
0 -38 87 -241 133 -311 26 -38 67 -88 92 -111 70 -64 85 -58 163 64 34 55 74
122 88 148 l25 48 -36 37 c-115 119 -159 375 -115 677 12 83 26 170 31 194 14
62 4 62 -17 -1z"/>
<path d="M8346 4704 c-4 -9 7 -39 24 -69 16 -29 30 -55 30 -59 0 -3 -29 -6
-65 -6 -53 0 -66 -3 -75 -19 -5 -11 -10 -22 -10 -25 0 -3 39 -6 86 -6 75 0 93
-4 136 -27 49 -27 50 -27 64 -8 8 10 14 21 14 24 0 3 -23 18 -50 33 -41 23
-57 41 -92 103 -24 41 -46 75 -49 75 -4 0 -10 -7 -13 -16z"/>
<path d="M3525 4700 c-3 -6 4 -28 16 -50 12 -22 21 -41 18 -43 -2 -2 -48 -29
-101 -60 -97 -57 -98 -58 -82 -82 l15 -23 102 60 c56 33 103 56 104 52 8 -23
44 -74 52 -74 26 0 17 28 -39 125 -60 102 -72 116 -85 95z"/>
<path d="M8168 4402 c-56 -88 -64 -108 -52 -115 9 -5 17 -7 18 -5 2 1 14 20
28 40 l24 37 97 -64 c96 -63 100 -64 121 -28 5 9 -25 33 -86 74 -51 33 -95 63
-97 65 -2 2 8 21 22 43 19 28 23 41 14 50 -6 6 -13 11 -16 11 -4 0 -36 -49
-73 -108z"/>
<path d="M3570 4394 c-97 -65 -111 -82 -87 -102 10 -9 22 -6 50 13 65 45 78
29 40 -49 -24 -50 -25 -58 -13 -81 7 -14 16 -25 20 -25 3 0 16 29 29 64 l24
63 42 -5 c37 -4 45 -1 64 23 14 19 19 35 15 49 -10 34 -65 116 -78 115 -6 0
-54 -29 -106 -65z m129 -21 c11 -24 10 -29 -9 -45 -23 -19 -45 -14 -69 15 -9
12 -5 19 21 36 42 26 42 26 57 -6z"/>
<path d="M3722 4215 c-44 -35 -86 -73 -91 -84 -36 -66 43 -175 114 -157 18 5
139 90 179 127 9 8 -9 39 -23 39 -4 0 -42 -27 -86 -60 -88 -68 -123 -75 -139
-29 -13 39 -5 52 78 116 41 32 75 63 75 68 0 6 -5 18 -13 27 -11 16 -20 11
-94 -47z"/>
<path d="M8070 4251 c-5 -11 -10 -22 -10 -24 0 -6 188 -147 205 -153 11 -5 43
33 33 40 -111 85 -208 156 -212 156 -3 0 -10 -9 -16 -19z"/>
<path d="M10027 4215 c-64 -18 -144 -58 -187 -93 -31 -27 -33 -31 -20 -47 31
-38 103 -75 144 -75 93 0 196 78 196 148 0 43 -7 55 -37 71 -26 13 -34 13 -96
-4z"/>
<path d="M1756 4198 c-40 -56 0 -135 89 -178 83 -40 157 -26 222 42 l33 34
-63 41 c-117 77 -250 106 -281 61z"/>
<path d="M7952 4098 c-7 -7 -12 -17 -12 -24 0 -12 183 -164 197 -164 4 0 30
30 57 66 40 53 47 67 35 75 -14 9 -20 4 -70 -59 l-18 -24 -85 71 c-47 39 -86
71 -88 71 -2 0 -9 -5 -16 -12z"/>
<path d="M3905 4038 c-25 -20 -27 -25 -21 -72 12 -92 11 -98 -6 -110 -23 -14
-45 -1 -74 42 -19 27 -24 30 -34 17 -10 -12 -8 -23 14 -56 46 -69 126 -84 156
-29 6 12 10 54 8 98 -3 71 -1 77 17 77 11 0 28 -14 40 -32 22 -36 24 -37 44
-24 30 19 -51 111 -97 111 -11 0 -32 -10 -47 -22z"/>
<path d="M7858 3990 c-16 -18 -13 -23 84 -111 l100 -91 21 21 c12 11 19 22 16
24 -2 1 -47 42 -100 90 -53 48 -98 87 -100 87 -3 0 -12 -9 -21 -20z"/>
<path d="M4054 3929 c-3 -6 9 -26 27 -45 l32 -33 -81 -89 c-81 -89 -81 -89
-61 -108 21 -19 22 -18 102 69 l82 89 34 -36 c27 -28 37 -33 48 -24 12 9 -2
28 -74 100 -48 48 -91 88 -95 88 -4 0 -10 -5 -14 -11z"/>
<path d="M7730 3853 l-49 -48 95 -100 94 -100 50 52 c41 42 50 58 50 87 0 27
-6 40 -25 52 -23 15 -38 15 -75 0 -13 -5 -15 1 -12 32 3 27 -1 44 -13 55 -29
30 -63 21 -115 -30z m85 -23 c17 -18 17 -21 0 -46 l-17 -26 -24 23 c-29 27
-30 37 -6 55 23 18 26 17 47 -6z m99 -92 c8 -14 6 -22 -11 -40 l-23 -22 -25
24 c-14 13 -25 29 -25 36 0 28 66 29 84 2z"/>
<path d="M7566 3701 c-17 -19 -14 -30 75 -269 8 -21 11 -22 24 -9 13 13 13 20
1 49 -14 33 -14 34 26 75 l41 42 37 -19 c37 -19 38 -19 55 0 10 11 16 22 14
24 -13 10 -238 126 -246 126 -6 0 -17 -8 -27 -19z m122 -89 c9 -6 4 -15 -17
-36 l-30 -28 -14 34 c-8 19 -18 45 -22 57 l-7 22 39 -20 c21 -11 44 -24 51
-29z"/>
<path d="M4192 3627 l-22 -23 23 -22 c29 -28 33 -28 53 3 16 24 16 27 -1 45
-23 25 -27 25 -53 -3z"/>
<path d="M7440 3600 c-12 -7 -5 -22 38 -84 29 -42 51 -76 48 -76 -3 0 -49 16
-103 36 -94 36 -120 37 -130 8 -3 -8 138 -211 149 -216 2 -1 11 3 21 9 17 9
15 15 -32 80 -28 38 -51 72 -51 75 0 4 46 -11 102 -33 98 -37 103 -38 120 -21
17 17 15 22 -57 122 -41 58 -79 106 -83 107 -4 2 -14 -2 -22 -7z"/>
<path d="M4403 3588 c-36 -18 -47 -58 -28 -109 27 -73 28 -79 15 -94 -20 -24
-47 -17 -77 20 -32 39 -38 42 -47 18 -8 -20 43 -76 85 -94 39 -16 83 3 99 42
11 25 9 38 -10 90 -12 33 -19 67 -16 75 9 24 43 16 71 -18 23 -27 28 -29 41
-17 12 13 10 19 -18 48 -29 30 -67 52 -86 50 -4 0 -17 -5 -29 -11z"/>
<path d="M4527 3398 c-67 -108 -69 -133 -12 -185 27 -25 44 -33 73 -33 46 0
67 20 135 127 43 68 45 73 27 83 -10 5 -21 10 -23 10 -2 0 -21 -27 -41 -60
-75 -121 -105 -141 -147 -99 -25 25 -21 39 44 142 48 76 50 80 32 93 -10 8
-21 14 -25 14 -3 0 -31 -42 -63 -92z"/>
<path d="M7198 3429 c-10 -5 -18 -14 -18 -18 0 -5 33 -59 73 -119 72 -110 72
-111 94 -94 l22 17 -72 112 c-39 61 -74 112 -77 112 -3 0 -13 -4 -22 -10z"/>
<path d="M7039 3337 c-15 -11 -14 -24 3 -152 11 -77 21 -141 22 -143 2 -1 10
0 18 3 12 5 14 17 11 48 -4 41 -4 42 44 68 l48 26 32 -24 c26 -20 35 -22 52
-13 12 6 21 14 20 18 0 10 -205 177 -221 179 -7 2 -20 -3 -29 -10z m100 -111
c11 -13 7 -19 -21 -36 l-33 -20 -6 28 c-4 15 -7 40 -8 55 l-1 28 28 -20 c16
-11 34 -27 41 -35z"/>
<path d="M4796 3300 c-66 -43 -94 -136 -61 -200 25 -48 130 -101 154 -77 16
16 14 27 -4 27 -9 0 -33 9 -54 20 -67 34 -74 110 -14 172 36 38 78 37 132 -2
35 -25 42 -28 47 -15 8 21 -19 50 -70 75 -53 25 -93 25 -130 0z"/>
<path d="M6848 3237 c-85 -41 -106 -55 -99 -66 8 -13 15 -12 51 4 24 11 44 15
49 9 5 -5 28 -53 51 -106 24 -54 46 -98 50 -98 3 0 14 6 24 13 18 13 16 19
-24 108 -23 52 -44 99 -47 106 -2 6 14 21 37 33 38 19 48 40 24 46 -5 2 -57
-21 -116 -49z"/>
<path d="M5022 3190 c-37 -23 -71 -88 -72 -135 0 -16 9 -44 19 -61 32 -52 150
-96 164 -61 3 9 -10 17 -39 25 -24 7 -53 21 -64 32 -41 41 -12 148 46 171 31
11 50 6 97 -26 30 -20 36 -21 41 -8 9 22 -1 33 -58 59 -62 29 -91 30 -134 4z"/>
<path d="M6662 3165 c-59 -18 -82 -41 -82 -82 0 -42 27 -70 77 -78 111 -18
127 -78 24 -92 -31 -4 -41 -10 -37 -20 4 -8 6 -17 6 -19 0 -10 49 -2 87 15 45
21 63 45 63 84 0 42 -30 68 -94 81 -90 18 -102 65 -21 80 20 4 35 13 35 21 0
22 -12 24 -58 10z"/>
<path d="M5265 3128 c-2 -7 -22 -62 -44 -122 -22 -60 -38 -113 -36 -117 3 -4
39 -19 80 -34 57 -21 79 -25 87 -17 15 15 5 24 -54 46 -28 10 -48 24 -48 32 0
12 15 49 25 62 1 1 21 -5 45 -13 53 -19 50 -19 50 5 0 14 -11 22 -40 31 -22 7
-40 18 -40 26 0 11 15 48 24 60 1 2 25 -6 53 -17 28 -10 53 -16 57 -13 17 18
-1 33 -66 57 -83 30 -87 30 -93 14z"/>
<path d="M6488 3103 c-23 -6 -23 -13 7 -114 30 -104 31 -114 3 -133 -53 -37
-78 -11 -112 116 -23 81 -36 98 -64 80 -11 -7 -8 -27 13 -101 14 -51 31 -101
38 -111 26 -42 99 -49 155 -13 41 26 44 53 15 165 -14 57 -28 106 -32 109 -3
3 -14 4 -23 2z"/>
<path d="M5476 3047 c-39 -39 -33 -69 24 -132 43 -47 49 -59 40 -75 -13 -24
-44 -25 -84 -5 -29 15 -45 9 -46 -18 0 -11 46 -27 95 -34 34 -4 46 -1 70 19
44 39 39 78 -18 136 -26 26 -47 55 -47 64 0 25 36 32 72 14 39 -20 38 -20 38
4 0 23 -23 37 -78 46 -35 5 -44 3 -66 -19z"/>
<path d="M6180 3029 c-48 -9 -90 -45 -90 -78 0 -34 40 -70 95 -86 91 -27 84
-88 -10 -88 -49 0 -49 0 -35 -26 8 -16 16 -17 57 -10 57 11 91 32 103 65 19
50 -16 92 -96 113 -81 22 -79 71 3 77 26 1 37 7 35 16 -6 22 -15 25 -62 17z"/>
<path d="M5690 3000 c-38 -38 -25 -74 48 -145 l47 -45 -23 -19 c-22 -19 -39
-18 -93 4 -11 4 -18 0 -22 -14 -6 -26 1 -30 62 -38 70 -8 100 2 116 39 18 44
5 73 -55 126 -50 44 -56 66 -19 77 11 4 33 -1 51 -9 39 -20 38 -20 38 8 0 27
-21 36 -87 36 -30 0 -49 -6 -63 -20z"/>
<path d="M5950 2865 c0 -33 2 -35 35 -35 33 0 35 2 35 35 0 33 -2 35 -35 35
-33 0 -35 -2 -35 -35z"/>
<path d="M2392 2063 c-76 -37 -109 -126 -77 -208 24 -63 72 -95 144 -95 69 0
113 26 142 86 40 84 8 177 -75 215 -51 23 -91 24 -134 2z m134 -49 c41 -20 51
-33 33 -44 -8 -5 -22 -1 -37 11 -14 10 -38 19 -54 19 -38 0 -88 -48 -88 -85 0
-37 50 -85 88 -85 16 0 40 9 54 19 24 19 57 14 44 -7 -9 -15 -71 -42 -96 -42
-36 0 -85 28 -103 59 -25 42 -21 84 10 121 43 52 89 62 149 34z"/>
<path d="M3168 1956 l-27 -54 55 -4 c30 -1 54 1 54 5 0 9 -49 107 -53 107 -2
0 -15 -24 -29 -54z"/>
<path d="M4094 1970 c-21 -8 -54 -47 -54 -62 0 -5 41 -8 90 -8 98 0 110 8 67
48 -27 25 -73 35 -103 22z"/>
<path d="M5294 1961 c-42 -25 -61 -80 -44 -122 28 -67 105 -90 155 -46 53 46
49 133 -8 167 -40 25 -64 25 -103 1z"/>
<path d="M5854 1961 c-36 -22 -58 -75 -48 -115 8 -34 59 -76 90 -76 90 0 137
104 77 170 -36 39 -78 47 -119 21z"/>
<path d="M7858 1965 c-38 -21 -61 -69 -54 -111 8 -39 57 -84 92 -84 33 0 81
25 94 49 45 85 -51 191 -132 146z"/>
<path d="M8184 1971 c-55 -24 -79 -94 -50 -150 48 -92 186 -50 186 58 0 61
-80 115 -136 92z"/>
<path d="M8964 1970 c-12 -4 -31 -21 -43 -36 -51 -65 -4 -154 81 -154 64 1 98
36 98 102 -1 69 -71 115 -136 88z"/>
</g>
</svg>
