<?xml version="1.0" standalone="no"?>
<!DOCTYPE svg PUBLIC "-//W3C//DTD SVG 20010904//EN"
 "http://www.w3.org/TR/2001/REC-SVG-20010904/DTD/svg10.dtd">
<svg version="1.0" xmlns="http://www.w3.org/2000/svg"
 width="680.000000pt" height="275.000000pt" viewBox="0 0 680.000000 275.000000"
 preserveAspectRatio="xMidYMid meet">

<g transform="translate(0.000000,275.000000) scale(0.100000,-0.100000)"
fill="white" stroke="none">
<path d="M5760 2741 c-19 -4 -242 -111 -495 -238 -430 -215 -463 -234 -501
-279 -42 -51 -107 -139 -137 -187 l-17 -27 62 24 c35 13 270 106 523 206 l460
181 75 73 c122 119 278 209 400 232 l45 8 -65 7 c-86 9 -306 9 -350 0z"/>
<path d="M5525 2701 c-228 -59 -443 -172 -600 -316 -47 -43 -26 -33 335 146
212 105 387 193 389 195 8 8 -15 3 -124 -25z"/>
<path d="M5295 2249 c-165 -65 -393 -156 -507 -200 l-207 -82 -47 -90 c-26
-50 -40 -88 -33 -85 8 3 217 65 465 139 l451 133 24 46 c13 25 56 93 96 153
39 59 69 107 65 106 -4 0 -142 -54 -307 -120z"/>
<path d="M2020 2327 c-47 -24 -36 -72 23 -102 11 -5 22 -16 25 -22 6 -21 -27
-27 -47 -9 -21 19 -51 21 -51 3 0 -43 92 -64 123 -29 29 32 22 70 -18 93 -37
22 -43 33 -23 45 6 4 17 -1 24 -11 7 -10 20 -15 29 -12 25 10 17 34 -16 46
-39 14 -38 14 -69 -2z"/>
<path d="M325 2318 c-2 -7 -10 -48 -18 -90 l-14 -78 24 0 c13 0 23 6 23 14 0
8 11 27 24 43 l24 28 17 -43 c14 -33 22 -42 41 -42 13 0 24 2 24 4 0 2 -11 28
-25 57 l-24 54 31 32 32 33 -31 0 c-22 0 -38 -9 -56 -30 -14 -16 -27 -30 -30
-30 -2 0 -2 14 1 30 4 25 1 30 -17 30 -12 0 -24 -6 -26 -12z"/>
<path d="M1151 2253 c-7 -42 -15 -82 -18 -90 -8 -20 106 -18 135 3 23 15 30
58 12 69 -6 4 -4 15 6 30 12 18 13 28 4 44 -9 18 -20 21 -68 21 l-58 0 -13
-77z m97 30 c-4 -22 -48 -31 -48 -10 0 19 10 27 32 27 13 0 18 -6 16 -17z m-3
-73 c0 -9 -11 -16 -27 -18 -23 -3 -28 1 -28 18 0 17 5 21 28 18 16 -2 27 -9
27 -18z"/>
<path d="M1837 2302 c-5 -25 -9 -28 -40 -24 -43 5 -60 -19 -55 -81 l3 -42 52
-2 c47 -2 53 0 57 20 31 147 32 157 7 157 -12 0 -20 -9 -24 -28z m-19 -84 c-4
-44 -38 -53 -38 -10 0 32 7 42 27 42 10 0 13 -10 11 -32z"/>
<path d="M2553 2318 c-13 -6 -23 -17 -23 -25 0 -7 -4 -13 -8 -13 -5 0 -8 -28
-8 -62 1 -61 2 -63 29 -66 27 -3 37 14 18 34 -13 13 -1 64 15 64 8 0 14 7 14
15 0 8 -5 15 -11 15 -7 0 -9 10 -5 25 4 14 5 25 4 24 -2 0 -13 -5 -25 -11z"/>
<path d="M3171 2280 c-6 -27 -14 -68 -17 -91 -7 -39 -6 -41 17 -37 21 3 25 11
40 91 l16 87 -23 0 c-19 0 -24 -8 -33 -50z"/>
<path d="M3666 2315 c-4 -11 1 -15 19 -15 16 0 25 6 25 15 0 8 -9 15 -19 15
-10 0 -21 -7 -25 -15z"/>
<path d="M2165 2293 c-25 -28 -31 -43 -17 -43 4 0 7 -21 7 -47 0 -45 2 -48 28
-51 19 -2 27 1 27 12 0 8 -4 18 -10 21 -17 11 -11 43 13 66 15 15 18 23 10 26
-7 3 -13 13 -13 24 0 26 -15 24 -45 -8z"/>
<path d="M3568 2297 c-20 -19 -24 -30 -22 -72 2 -28 3 -56 3 -62 1 -19 61 -17
61 1 0 8 -4 18 -10 21 -17 11 -11 43 13 66 15 15 18 23 10 26 -7 3 -13 13 -13
24 0 25 -12 24 -42 -4z"/>
<path d="M3763 2313 c-7 -2 -13 -9 -13 -15 0 -6 -8 -17 -17 -24 -12 -9 -14
-16 -8 -21 6 -5 10 -28 10 -53 0 -42 2 -45 28 -48 19 -2 27 1 27 12 0 8 -4 18
-10 21 -17 11 -11 43 13 66 15 15 18 23 10 26 -7 3 -13 13 -13 24 0 19 -5 21
-27 12z"/>
<path d="M4005 2293 c-25 -28 -31 -43 -17 -43 5 0 8 -21 8 -47 -1 -45 1 -48
27 -51 19 -2 27 1 27 12 0 8 -4 18 -10 21 -17 11 -11 43 13 66 15 15 18 23 10
26 -7 3 -13 13 -13 24 0 26 -15 24 -45 -8z"/>
<path d="M508 2263 c-44 -50 -24 -113 36 -113 52 0 86 52 67 104 -9 22 -17 26
-49 26 -25 0 -45 -6 -54 -17z m62 -17 c0 -2 3 -11 6 -19 5 -14 -20 -47 -36
-47 -14 0 -20 31 -10 51 9 16 40 28 40 15z"/>
<path d="M655 2266 c-2 -6 -8 -35 -13 -64 -9 -51 -8 -53 11 -50 15 2 23 13 28
38 4 19 18 42 33 53 14 10 26 22 26 26 0 13 -81 10 -85 -3z"/>
<path d="M767 2262 c-20 -22 -22 -83 -5 -100 16 -16 70 -15 92 1 18 13 18 14
2 20 -10 4 -26 3 -35 -3 -20 -10 -31 -4 -31 17 0 9 14 13 45 13 40 0 45 2 45
23 0 13 -5 28 -12 35 -19 19 -82 15 -101 -6z m71 -20 c2 -7 -7 -12 -23 -12
-24 0 -26 2 -15 15 14 17 31 16 38 -3z"/>
<path d="M927 2274 c-17 -17 -5 -26 28 -20 53 10 46 -18 -7 -30 -39 -8 -43
-12 -43 -39 0 -30 1 -30 57 -32 l57 -1 6 43 c11 70 6 80 -45 83 -25 2 -49 0
-53 -4z m57 -78 c-3 -8 -12 -17 -19 -20 -19 -7 -31 14 -14 25 21 13 39 11 33
-5z"/>
<path d="M1326 2237 c-4 -23 -9 -52 -13 -64 -4 -18 -1 -23 16 -23 15 0 23 10
31 40 6 21 19 45 28 52 36 26 33 35 -12 36 -44 0 -44 0 -50 -41z"/>
<path d="M1447 2273 c-16 -15 -5 -24 28 -21 35 3 51 -14 18 -20 -63 -11 -92
-44 -60 -70 13 -11 119 -14 113 -3 -2 3 -1 26 4 50 4 25 6 51 3 58 -5 14 -94
19 -106 6z m63 -73 c0 -16 -38 -32 -46 -19 -7 12 12 29 34 29 6 0 12 -4 12
-10z"/>
<path d="M1594 2266 c-2 -6 -7 -35 -12 -64 -9 -51 -8 -53 11 -50 16 2 23 13
30 45 7 39 30 62 42 43 3 -5 1 -27 -4 -49 -8 -36 -7 -41 9 -41 25 0 28 7 36
73 l7 56 -58 -1 c-31 -1 -59 -6 -61 -12z"/>
<path d="M2256 2264 c-3 -7 -8 -36 -12 -64 -6 -46 -5 -50 13 -50 16 0 22 9 27
39 4 26 14 44 31 55 14 9 25 20 25 25 0 15 -78 11 -84 -5z"/>
<path d="M2371 2266 c-9 -11 -7 -15 8 -19 11 -2 24 0 29 5 6 6 15 7 21 4 20
-13 11 -26 -17 -26 -40 0 -65 -21 -60 -51 3 -22 8 -24 59 -26 l57 -1 7 54 c3
29 4 58 0 64 -9 15 -91 12 -104 -4z m59 -65 c0 -12 -29 -35 -36 -28 -11 10 5
37 21 37 8 0 15 -4 15 -9z"/>
<path d="M2627 2262 c-20 -22 -22 -83 -5 -100 16 -16 70 -15 92 1 18 13 18 14
2 20 -10 4 -26 3 -35 -3 -20 -10 -31 -4 -31 17 0 9 14 13 45 13 40 0 45 2 45
23 0 13 -5 28 -12 35 -19 19 -82 15 -101 -6z m71 -20 c2 -7 -7 -12 -23 -12
-24 0 -26 2 -15 15 14 17 31 16 38 -3z"/>
<path d="M2785 2263 c-11 -10 -15 -29 -13 -57 3 -39 5 -41 36 -41 34 0 42 -15
18 -34 -10 -8 -16 -9 -21 -1 -7 12 -45 14 -45 2 0 -28 67 -43 99 -23 13 8 41
107 41 147 0 18 -6 21 -50 22 -33 0 -55 -4 -65 -15z m63 -40 c-4 -36 -38 -45
-38 -10 0 27 7 37 27 37 10 0 13 -9 11 -27z"/>
<path d="M2934 2255 c4 -14 9 -45 12 -69 6 -38 4 -46 -15 -55 -31 -17 -25 -33
11 -29 29 3 36 11 75 83 23 44 43 83 43 88 0 4 -8 7 -18 7 -12 0 -25 -14 -37
-40 -20 -44 -35 -38 -35 13 0 21 -5 27 -21 27 -18 0 -20 -4 -15 -25z"/>
<path d="M3256 2271 c-2 -3 -6 -24 -10 -46 -4 -22 -9 -48 -12 -58 -5 -15 -1
-18 17 -15 17 2 25 13 33 48 7 29 16 45 26 45 15 0 16 -15 6 -68 -5 -25 -3
-28 17 -25 18 2 24 12 31 50 12 69 6 77 -54 76 -28 -1 -52 -4 -54 -7z"/>
<path d="M3423 2273 c-7 -2 -13 -16 -13 -30 0 -18 8 -28 30 -36 17 -6 30 -15
30 -19 0 -14 -22 -20 -33 -9 -18 18 -49 14 -45 -6 3 -20 45 -29 84 -19 45 12
39 71 -8 78 -12 2 -23 9 -26 16 -3 9 6 11 37 6 36 -6 41 -4 35 10 -6 16 -61
21 -91 9z"/>
<path d="M3651 2230 c-15 -70 -14 -80 8 -80 14 0 20 10 25 38 4 20 9 49 12 65
5 22 2 27 -14 27 -16 0 -23 -10 -31 -50z"/>
<path d="M3831 2230 c-15 -70 -9 -78 54 -78 l53 1 11 55 c14 72 14 72 -8 72
-14 0 -22 -12 -30 -45 -7 -30 -17 -45 -27 -45 -14 0 -15 8 -10 45 7 40 5 45
-13 45 -15 0 -22 -10 -30 -50z"/>
<path d="M4106 2264 c-43 -43 -21 -114 35 -114 17 0 40 5 52 12 21 11 21 11 2
18 -11 4 -27 4 -36 -1 -11 -6 -21 -4 -28 5 -16 19 -3 26 46 26 46 0 53 12 33
51 -13 24 -81 26 -104 3z m68 -19 c4 -11 -1 -15 -19 -15 -26 0 -34 15 -12 23
20 9 25 8 31 -8z"/>
<path d="M4940 1894 c-245 -73 -451 -137 -458 -141 -12 -7 -62 -115 -62 -133
0 -4 197 32 438 81 240 49 438 89 438 89 1 0 13 28 27 63 14 34 37 88 51 120
14 31 22 57 18 56 -4 -1 -207 -61 -452 -135z"/>
<path d="M2961 1975 c-207 -38 -345 -185 -328 -350 14 -139 90 -201 362 -300
71 -25 142 -53 157 -61 74 -38 90 -101 37 -153 -38 -39 -97 -55 -176 -48 -104
8 -163 63 -163 152 l0 38 -77 -6 c-43 -4 -125 -9 -182 -13 l-104 -7 6 -63 c6
-77 37 -145 93 -201 85 -84 176 -112 395 -120 248 -9 383 30 493 140 73 73 99
133 100 227 1 172 -89 259 -379 364 -134 48 -187 76 -201 105 -29 58 34 111
133 111 100 0 150 -35 177 -123 6 -17 16 -18 158 -12 202 8 199 7 191 48 -18
98 -85 181 -186 228 -118 54 -340 74 -506 44z"/>
<path d="M3677 1433 c-70 -302 -127 -551 -127 -556 0 -4 84 -6 187 -5 l187 3
73 320 c40 176 95 420 123 541 27 122 50 227 50 233 0 8 -56 11 -183 11 l-183
0 -127 -547z"/>
<path d="M1551 1905 c-22 -87 -241 -1015 -241 -1021 0 -3 192 -4 428 -2 398 4
431 6 484 24 158 57 258 180 258 318 0 23 -11 64 -24 92 -25 53 -59 84 -122
110 l-36 15 59 28 c68 33 115 84 138 150 32 94 14 166 -60 238 -86 83 -98 85
-516 91 l-356 4 -12 -47z m539 -176 c84 -18 105 -79 50 -142 -38 -44 -89 -57
-214 -57 -110 0 -105 -7 -80 103 25 110 22 107 114 107 43 0 102 -5 130 -11z
m7 -431 c50 -51 28 -134 -45 -166 -47 -20 -322 -31 -322 -13 0 11 36 168 46
199 3 11 34 13 149 10 142 -3 145 -3 172 -30z"/>
<path d="M6555 1761 c-117 -30 -230 -67 -255 -82 -11 -7 -8 -8 10 -4 14 2 68
9 120 15 60 7 105 18 126 30 17 11 60 31 95 44 88 34 42 32 -96 -3z"/>
<path d="M5040 1709 c-129 -27 -325 -67 -436 -90 l-201 -42 -17 -54 c-10 -30
-15 -57 -12 -60 6 -6 837 84 844 92 9 9 70 205 63 204 -3 0 -112 -23 -241 -50z"/>
<path d="M6315 1650 c-136 -16 -145 -19 -245 -71 -104 -52 -333 -199 -346
-221 -5 -8 48 -9 194 -6 l201 4 113 110 c62 61 139 129 171 153 31 24 57 45
57 47 0 2 -1 3 -2 3 -2 -1 -66 -9 -143 -19z"/>
<path d="M5010 1500 c-80 -9 -251 -29 -380 -44 -129 -15 -244 -29 -256 -31
-15 -3 -23 -17 -32 -56 -7 -29 -11 -53 -10 -55 2 -1 163 1 358 6 195 5 382 9
416 10 l60 0 17 73 c10 39 20 82 23 95 8 27 9 27 -196 2z"/>
<path d="M5810 1323 l-136 -4 -104 -104 c-57 -57 -102 -107 -99 -109 3 -3 101
-11 218 -18 l213 -12 22 29 c11 17 56 74 99 127 l77 98 -77 -2 c-43 -1 -139
-4 -213 -5z"/>
<path d="M4660 1290 c-91 -4 -204 -8 -253 -9 -96 -1 -98 -3 -114 -82 l-5 -25
204 -12 c230 -14 471 -29 569 -37 l67 -5 12 68 c6 37 14 77 17 90 l5 22 -168
-2 c-93 -1 -243 -5 -334 -8z"/>
<path d="M4252 1099 c-11 -24 -17 -47 -13 -50 3 -3 179 -31 391 -63 212 -31
397 -59 412 -62 26 -5 28 -3 53 81 15 48 25 88 23 89 -1 2 -106 8 -233 15
-126 7 -250 14 -275 16 -25 2 -111 7 -192 11 l-146 6 -20 -43z"/>
<path d="M5397 1015 c-23 -33 -53 -76 -64 -95 l-22 -36 212 -32 c163 -24 213
-29 218 -19 4 6 37 57 73 112 38 59 60 101 53 103 -7 1 -105 8 -219 15 l-208
12 -43 -60z"/>
<path d="M4188 974 c-19 -31 -24 -46 -15 -49 6 -2 80 -19 162 -39 83 -20 262
-63 399 -96 138 -33 251 -58 253 -57 9 10 71 153 67 158 -2 3 -25 9 -51 12
-54 7 -724 104 -763 111 -21 3 -30 -3 -52 -40z"/>
<path d="M4124 878 c-52 -60 -81 -44 348 -187 216 -72 396 -131 400 -131 9 0
103 139 97 144 -2 2 -179 45 -394 95 -214 51 -399 95 -410 97 -13 3 -28 -3
-41 -18z"/>
<path d="M5290 853 c0 -6 -22 -47 -49 -91 -47 -78 -48 -82 -28 -87 12 -3 95
-23 185 -45 90 -22 172 -40 182 -40 13 0 32 23 61 73 23 39 50 86 60 103 l18
30 -192 28 c-106 15 -202 30 -214 33 -13 3 -23 1 -23 -4z"/>
<path d="M4016 767 l-39 -33 372 -162 372 -162 27 19 c35 25 107 99 101 104
-2 3 -177 62 -389 132 -212 70 -389 129 -395 131 -5 2 -27 -11 -49 -29z"/>
<path d="M3224 721 c3 -4 53 -40 113 -81 l108 -73 -53 55 c-36 37 -74 64 -113
81 -33 14 -57 22 -55 18z"/>
<path d="M3896 689 c-29 -16 -36 -23 -25 -29 346 -191 646 -350 659 -350 21 0
160 68 160 78 0 8 -711 316 -737 319 -10 1 -36 -7 -57 -18z"/>
<path d="M3488 575 c77 -76 102 -93 210 -146 68 -34 125 -59 128 -57 2 3 -68
62 -157 133 -128 101 -172 130 -212 141 -29 8 -53 14 -54 14 -1 0 37 -38 85
-85z"/>
<path d="M3780 648 c-19 -5 -42 -11 -49 -14 -9 -3 98 -79 260 -186 l274 -181
85 6 c162 11 167 5 -161 182 -162 87 -312 168 -334 180 -33 18 -46 21 -75 13z"/>
<path d="M5156 636 c-7 -12 -37 -47 -65 -78 l-51 -56 188 -64 c173 -59 188
-63 206 -49 36 30 137 164 129 171 -4 4 -30 13 -58 18 -27 6 -114 26 -192 45
l-142 34 -15 -21z"/>
<path d="M3561 626 c2 -2 87 -70 188 -150 144 -114 196 -150 236 -162 52 -15
208 -44 212 -40 2 2 -118 82 -266 179 -263 173 -269 177 -321 177 -29 0 -51
-2 -49 -4z"/>
<path d="M80 515 c0 -22 -4 -25 -40 -25 -33 0 -40 -3 -40 -20 0 -19 7 -20 110
-20 103 0 110 1 110 20 0 17 -7 20 -45 20 -41 0 -45 2 -45 25 0 20 -5 25 -25
25 -20 0 -25 -5 -25 -25z"/>
<path d="M245 395 l0 -135 28 0 c26 0 27 1 27 60 0 47 3 60 15 60 9 0 18 -7
21 -15 5 -11 23 -15 75 -15 67 0 69 -1 69 -25 0 -24 -3 -25 -55 -25 -52 0 -55
-1 -55 -25 l0 -25 110 0 110 0 0 -45 c0 -41 2 -45 25 -45 24 0 25 2 25 70 l0
70 -56 0 c-52 0 -55 1 -52 23 3 20 9 22 76 25 67 3 72 4 72 26 0 17 -5 22 -22
22 -13 -1 -22 4 -21 10 1 6 5 34 9 62 l7 52 -142 0 c-134 0 -141 -1 -141 -20
0 -19 7 -20 110 -20 l110 0 0 -26 c0 -59 -11 -64 -131 -64 -88 0 -111 3 -115
15 -4 8 -15 15 -25 15 -16 0 -19 8 -19 55 0 53 -1 55 -27 55 l-28 0 0 -135z"/>
<path d="M1230 400 l0 -130 25 0 c24 0 25 3 25 60 0 47 3 60 15 60 12 0 15
-14 15 -65 0 -63 1 -65 25 -65 l25 0 0 135 0 135 -25 0 c-23 0 -25 -4 -25 -45
0 -33 -4 -45 -15 -45 -11 0 -15 12 -15 45 0 41 -2 45 -25 45 l-25 0 0 -130z"/>
<path d="M2010 490 c0 -38 -2 -40 -30 -40 -25 0 -30 -4 -30 -25 0 -21 5 -25
30 -25 l30 0 0 -65 0 -65 30 0 30 0 0 130 0 130 -30 0 c-28 0 -30 -2 -30 -40z"/>
<path d="M2340 415 l0 -115 24 0 c19 0 25 6 28 28 2 19 9 28 26 30 14 2 22 10
22 22 0 12 -8 20 -22 22 -15 2 -23 10 -23 23 0 14 6 20 23 19 17 0 22 5 22 23
0 18 -5 23 -25 23 -18 0 -25 5 -25 20 0 15 -7 20 -25 20 l-25 0 0 -115z"/>
<path d="M2501 516 c-57 -32 -68 -111 -22 -157 36 -36 88 -39 137 -8 19 11 46
19 61 17 26 -3 28 -6 28 -51 0 -45 1 -47 28 -47 l27 0 0 130 0 130 -31 0 c-24
0 -30 -4 -25 -15 4 -12 -3 -15 -37 -15 -23 1 -53 7 -67 15 -31 18 -68 18 -99
1z m89 -57 c23 -42 -15 -98 -55 -83 -9 4 -21 18 -26 32 -21 54 55 101 81 51z
m118 -26 c-2 -11 -14 -19 -31 -21 -22 -3 -27 1 -27 17 0 17 6 21 31 21 24 0
30 -4 27 -17z"/>
<path d="M730 420 l0 -100 130 0 130 0 0 100 0 100 -25 0 c-20 0 -25 -5 -25
-25 0 -25 -1 -25 -80 -25 -79 0 -80 0 -80 25 0 20 -5 25 -25 25 l-25 0 0 -100z
m210 -30 l0 -31 -77 3 c-77 3 -78 3 -81 31 l-3 27 80 0 81 0 0 -30z"/>
<path d="M1060 495 c0 -23 4 -25 45 -25 33 0 45 -4 45 -15 0 -11 -12 -15 -45
-15 l-45 0 0 -65 0 -66 73 3 c66 3 72 5 75 26 3 20 0 22 -47 22 -39 0 -51 4
-51 15 0 11 12 15 45 15 l45 0 0 65 0 65 -70 0 c-68 0 -70 -1 -70 -25z"/>
<path d="M1430 420 l0 -100 135 0 135 0 0 25 0 25 -110 0 -110 0 0 50 0 50
105 0 105 0 0 25 0 25 -130 0 -130 0 0 -100z"/>
<path d="M1770 495 c0 -21 5 -25 30 -25 26 0 30 -4 30 -26 0 -26 -49 -85 -80
-96 -12 -5 -12 -8 5 -22 27 -21 29 -20 70 15 l35 31 31 -26 c37 -31 50 -32 67
-6 7 11 8 20 3 20 -5 0 -23 12 -40 26 -22 18 -31 35 -31 55 0 26 4 29 30 29
25 0 30 4 30 25 0 25 -1 25 -90 25 -89 0 -90 0 -90 -25z"/>
<path d="M2110 498 c0 -22 3 -23 60 -20 55 4 60 2 60 -17 0 -19 -6 -21 -60
-21 l-60 0 0 -60 0 -61 103 3 c96 3 102 4 105 25 3 21 1 21 -77 16 -78 -6 -81
-5 -81 16 0 19 5 21 60 21 l60 0 0 60 0 60 -85 0 c-81 0 -85 -1 -85 -22z"/>
<path d="M2830 498 c0 -23 2 -23 105 -20 l105 4 0 -35 c0 -20 -4 -47 -10 -61
-9 -26 -10 -26 -125 -26 -108 0 -115 -1 -115 -20 0 -18 7 -20 70 -20 l70 0 0
-80 0 -80 30 0 30 0 0 80 0 80 75 0 c68 0 75 2 75 20 0 16 -7 20 -31 20 -27 0
-30 3 -25 23 3 13 8 49 12 80 l7 57 -137 0 c-134 0 -136 0 -136 -22z"/>
<path d="M3280 488 c0 -47 -32 -92 -79 -114 -43 -20 -50 -34 -27 -53 18 -15
78 13 115 53 l25 26 30 -29 c17 -16 45 -36 62 -45 30 -14 33 -14 49 4 16 18
15 19 -23 39 -51 26 -81 64 -88 113 -6 34 -10 38 -35 38 -26 0 -29 -3 -29 -32z"/>
<path d="M4980 445 c-19 -19 -51 -47 -72 -61 -21 -15 -38 -30 -38 -33 0 -6
329 -151 343 -151 22 0 187 144 176 154 -2 2 -83 29 -179 61 -96 32 -180 60
-185 62 -6 2 -26 -12 -45 -32z"/>
<path d="M70 433 c-69 -27 -79 -97 -19 -128 50 -27 116 -16 146 24 32 41 -8
100 -72 106 -22 3 -47 2 -55 -2z m77 -59 c4 -11 -1 -22 -12 -30 -24 -18 -36
-18 -60 0 -16 12 -17 16 -6 30 18 21 70 21 78 0z"/>
<path d="M4746 280 l-88 -48 128 -70 c197 -108 167 -103 290 -43 62 30 103 55
98 60 -8 8 -302 138 -329 146 -5 2 -50 -18 -99 -45z"/>
<path d="M3284 283 l1 -38 -72 1 c-70 0 -73 -1 -73 -23 l0 -23 175 0 175 0 0
23 c0 22 -3 23 -72 23 l-73 -1 -3 38 c-3 33 -6 37 -31 37 -26 0 -28 -3 -27
-37z"/>
<path d="M1810 230 l0 -60 130 0 c128 0 130 0 130 23 0 22 -2 22 -100 19
l-100 -4 0 41 c0 39 -2 41 -30 41 l-30 0 0 -60z"/>
<path d="M2140 266 l0 -26 100 0 100 0 0 -40 c0 -36 3 -40 25 -40 24 0 25 3
25 60 l0 60 -109 0 c-60 0 -116 3 -125 6 -12 5 -16 0 -16 -20z"/>
<path d="M2500 230 l0 -60 135 0 c133 0 135 0 135 23 0 21 -3 22 -107 22
l-108 0 2 38 c2 35 1 37 -27 37 -30 0 -30 0 -30 -60z"/>
<path d="M1100 225 l0 -55 135 0 c133 0 135 0 135 23 0 21 -3 22 -107 22
l-108 0 -3 33 c-3 26 -7 32 -28 32 -23 0 -24 -3 -24 -55z"/>
<path d="M50 220 l0 -50 130 0 c128 0 130 0 130 23 0 21 -3 22 -102 22 l-103
0 -3 28 c-3 21 -9 27 -28 27 -22 0 -24 -4 -24 -50z"/>
<path d="M690 228 c0 -23 0 -23 170 -23 170 0 170 0 170 23 0 22 0 22 -170 22
-170 0 -170 0 -170 -22z"/>
<path d="M1390 225 l0 -25 170 0 170 0 0 25 0 25 -170 0 -170 0 0 -25z"/>
<path d="M4600 211 c-8 -5 -44 -17 -80 -26 -36 -9 -71 -19 -79 -21 -9 -3 33
-37 100 -81 104 -70 118 -76 158 -74 49 2 161 24 200 39 26 9 31 6 -190 126
-95 51 -88 49 -109 37z"/>
<path d="M3920 176 c0 -14 279 -126 313 -126 6 0 -18 22 -52 49 -59 45 -70 49
-145 59 -44 6 -89 14 -98 17 -10 4 -18 4 -18 1z"/>
<path d="M4170 144 c0 -1 31 -27 68 -57 56 -45 80 -57 127 -66 88 -17 252 -26
240 -13 -5 5 -57 40 -114 77 l-104 66 -108 -3 c-60 -2 -109 -4 -109 -4z"/>
</g>
</svg>
