<?xml version="1.0" standalone="no"?>
<!DOCTYPE svg PUBLIC "-//W3C//DTD SVG 20010904//EN"
 "http://www.w3.org/TR/2001/REC-SVG-20010904/DTD/svg10.dtd">
<svg version="1.0" xmlns="http://www.w3.org/2000/svg"
 width="3484.000000pt" height="926.000000pt" viewBox="0 0 3484.000000 926.000000"
 preserveAspectRatio="xMidYMid meet">

<g transform="translate(0.000000,926.000000) scale(0.100000,-0.100000)"
fill="white" stroke="none">
<path d="M9922 7628 c3 -476 3 -484 26 -539 30 -74 87 -138 154 -172 108 -55
136 -57 831 -57 l637 0 0 -2855 0 -2856 573 3 572 3 86 31 c153 55 287 163
346 279 62 121 57 -102 60 2772 l3 2622 668 3 667 3 65 23 c116 41 177 99 226
212 18 42 19 77 22 528 l3 482 -2471 0 -2471 0 3 -482z"/>
<path d="M18583 8093 c3 -10 426 -924 941 -2031 l936 -2014 0 -1449 0 -1450
573 3 572 3 73 27 c41 15 99 42 130 60 80 46 193 161 225 228 58 119 57 89 57
1386 l0 1191 936 2014 c515 1108 938 2022 941 2032 5 16 -40 17 -849 17 l-854
0 -427 -1063 c-417 -1037 -451 -1126 -518 -1350 -24 -79 -35 -104 -41 -92 -5
8 -24 76 -43 149 -29 114 -101 295 -494 1242 l-460 1109 -852 3 c-808 2 -851
1 -846 -15z"/>
<path d="M24772 4808 l3 -2383 23 -58 c49 -122 141 -195 272 -217 46 -8 438
-10 1375 -8 l1310 3 57 23 c80 32 148 97 184 174 l29 63 3 322 3 323 -1035 0
-1036 0 0 2070 0 2070 -595 0 -595 0 2 -2382z"/>
<path d="M31687 4893 l-3 -2268 -26 -160 c-15 -88 -35 -204 -46 -258 l-19 -97
608 0 607 0 5 23 c3 12 9 55 13 95 3 39 8 72 10 72 2 0 30 -21 63 -47 71 -58
204 -126 286 -146 206 -53 516 -48 750 12 310 79 537 266 674 555 155 326 221
709 221 1285 0 398 -25 626 -100 913 -57 223 -157 461 -244 582 -195 274 -557
419 -1001 403 -163 -6 -260 -28 -374 -84 -77 -38 -191 -117 -223 -155 -17 -19
-18 16 -18 761 l0 781 -590 0 -590 0 -3 -2267z m1682 82 c84 -42 154 -143 208
-300 102 -299 109 -1049 12 -1405 -58 -214 -178 -340 -323 -340 -112 1 -194
62 -266 201 -92 177 -124 389 -124 829 -1 517 47 768 182 936 79 100 206 133
311 79z"/>
<path d="M16376 6849 c-371 -33 -673 -164 -896 -388 -239 -240 -352 -517 -353
-866 -1 -248 76 -487 246 -767 57 -96 185 -279 252 -363 l24 -30 -107 -85
c-222 -176 -456 -437 -584 -650 -100 -166 -164 -325 -198 -490 -20 -95 -21
-127 -17 -340 4 -203 8 -251 31 -356 64 -302 186 -535 381 -729 55 -55 139
-126 186 -158 220 -146 507 -241 844 -278 146 -16 476 -16 595 0 356 48 727
177 913 317 l70 53 61 -78 c34 -43 93 -119 131 -169 l70 -91 698 -1 c459 0
698 3 695 10 -1 5 -202 266 -446 580 l-443 569 70 98 c216 301 357 657 431
1088 23 139 50 376 50 453 l0 52 -579 0 -579 0 -7 -92 c-16 -232 -86 -668
-106 -668 -11 0 -681 880 -677 889 2 5 55 49 118 97 410 313 547 455 656 679
72 148 95 239 101 400 15 372 -107 689 -366 946 -116 115 -188 167 -326 234
-248 119 -574 166 -939 134z m352 -902 c83 -54 122 -154 122 -312 0 -112 -16
-168 -75 -263 -51 -84 -207 -301 -216 -302 -11 0 -168 337 -189 408 -19 63
-22 90 -17 185 5 131 23 186 75 241 56 59 104 77 188 74 57 -3 79 -8 112 -31z
m-43 -2830 l427 -558 -49 -57 c-74 -84 -183 -155 -300 -193 -81 -26 -119 -32
-219 -37 -105 -4 -131 -2 -190 16 -196 60 -352 227 -409 437 -9 34 -19 119
-22 195 -6 153 5 225 56 355 34 88 157 317 209 391 33 46 34 46 52 28 9 -10
210 -270 445 -577z"/>
<path d="M909 5773 c-684 -686 -810 -817 -836 -868 -50 -96 -63 -156 -63 -279
1 -126 20 -201 79 -298 25 -40 623 -645 2120 -2141 1941 -1940 2091 -2087
2151 -2116 95 -46 162 -61 270 -61 108 0 176 16 270 61 51 26 96 63 213 177
l147 146 0 1018 0 1018 -628 1351 -627 1351 -5 -1418 -5 -1419 -32 -68 c-41
-85 -115 -160 -210 -210 -123 -64 -146 -67 -635 -67 l-438 0 0 2315 0 2315
-483 0 -482 0 -806 -807z"/>
<path d="M29480 5893 c-249 -37 -379 -74 -548 -153 -431 -203 -675 -512 -731
-923 -6 -43 -11 -87 -11 -98 0 -19 14 -19 560 -19 l559 0 11 43 c48 188 135
288 289 334 70 20 171 14 227 -15 91 -47 172 -161 209 -297 9 -33 19 -121 22
-196 l6 -137 -339 -6 c-385 -7 -546 -18 -689 -48 -254 -52 -435 -147 -590
-309 -256 -267 -357 -606 -299 -997 36 -248 133 -447 302 -624 153 -160 339
-251 625 -305 73 -14 147 -18 352 -18 287 0 322 5 540 71 127 38 138 37 150
-17 l7 -29 585 0 585 0 -6 27 c-13 67 -37 270 -46 403 -5 82 -10 577 -10 1135
0 1086 0 1088 -60 1267 -57 171 -152 325 -282 464 -289 305 -706 457 -1238
453 -85 -1 -166 -3 -180 -6z m587 -2355 c-5 -221 -20 -306 -72 -408 -73 -145
-218 -230 -390 -230 -83 0 -133 20 -195 76 -77 70 -115 153 -126 279 -19 213
82 417 235 471 26 9 110 13 295 14 l259 0 -6 -202z"/>
<path d="M6521 2669 c-10 -24 -40 -88 -65 -142 l-46 -99 2 -439 3 -439 323
323 322 322 -260 260 -259 259 -20 -45z"/>
</g>
</svg>
