<?xml version="1.0" standalone="no"?>
<!DOCTYPE svg PUBLIC "-//W3C//DTD SVG 20010904//EN"
 "http://www.w3.org/TR/2001/REC-SVG-20010904/DTD/svg10.dtd">
<svg version="1.0" xmlns="http://www.w3.org/2000/svg"
 width="1024.000000pt" height="414.000000pt" viewBox="0 0 1024.000000 414.000000"
 preserveAspectRatio="xMidYMid meet">

<g transform="translate(0.000000,414.000000) scale(0.100000,-0.100000)"
fill="white" stroke="none">
<path d="M1468 4015 c-2 -3 -38 -7 -79 -10 -88 -6 -281 -52 -399 -95 -129 -47
-321 -145 -434 -221 -110 -74 -220 -165 -208 -172 4 -2 1 -2 -6 0 -27 6 -203
-184 -295 -321 l-47 -68 0 -334 0 -334 28 11 c15 6 34 12 43 14 9 2 47 12 85
24 99 29 180 40 342 48 l142 6 0 464 c0 414 2 463 16 463 22 0 231 -48 287
-66 l47 -16 -2 -531 -3 -532 -195 -2 c-200 -2 -309 -15 -465 -54 -83 -21 -223
-75 -287 -112 l-38 -21 0 -551 0 -551 51 -75 c270 -391 676 -666 1159 -783 58
-14 114 -25 125 -25 11 0 46 -5 79 -10 86 -14 392 -11 509 4 627 86 1182 484
1468 1055 66 133 120 280 155 429 34 145 37 176 37 431 0 235 -7 346 -23 365
-6 7 -7 14 -4 18 8 8 -52 226 -87 315 -205 516 -597 910 -1107 1112 -127 50
-304 97 -437 115 -90 12 -447 20 -457 10z m1437 -1261 c22 -3 41 -7 42 -8 1 0
-18 -40 -41 -87 -23 -48 -49 -109 -58 -135 -18 -56 -4 -53 -173 -34 -436 50
-930 -16 -1024 -136 -31 -39 -28 -94 7 -126 52 -50 166 -95 283 -112 68 -10
315 -78 441 -121 288 -99 469 -230 530 -385 32 -80 31 -242 -1 -320 -80 -193
-277 -351 -566 -453 -271 -96 -536 -139 -860 -139 -276 0 -460 22 -700 82
l-150 37 -3 647 -2 646 180 0 180 0 0 -549 0 -549 32 -11 c133 -46 726 -55
893 -13 44 11 109 27 145 36 111 28 281 118 345 181 98 98 133 197 97 277 -23
54 -83 122 -133 154 -49 30 -189 79 -329 114 -63 16 -162 43 -220 60 -58 18
-114 34 -125 36 -21 4 -79 24 -198 68 -134 51 -251 143 -293 231 -31 64 -33
162 -5 235 38 99 131 183 261 236 125 51 352 106 490 119 41 4 80 10 85 14 6
3 33 4 61 2 29 -1 54 1 57 6 6 9 688 6 752 -3z"/>
<path d="M5155 3545 c-5 -1 -43 -9 -84 -16 -44 -8 -86 -22 -105 -36 -17 -12
-40 -27 -51 -32 -30 -14 -124 -107 -134 -133 -29 -79 -17 -242 23 -304 44 -66
195 -153 361 -209 84 -29 117 -52 142 -99 25 -48 25 -78 2 -128 -19 -41 -32
-53 -82 -78 -77 -38 -150 -39 -297 -5 -153 36 -141 43 -138 -77 l3 -103 30
-15 c41 -20 379 -21 445 -2 76 23 183 77 223 112 21 18 54 64 73 101 30 61 34
77 34 148 0 88 -4 100 -58 186 -36 56 -45 63 -143 112 -57 28 -124 59 -149 68
-75 28 -203 97 -227 123 -34 36 -24 85 27 137 44 45 101 65 187 65 44 0 219
-42 256 -62 10 -5 21 -7 24 -5 2 3 17 43 33 88 l29 84 -20 16 c-30 22 -112 47
-202 59 -73 9 -179 12 -202 5z"/>
<path d="M6236 3533 c-21 -2 -48 -10 -60 -18 -12 -7 -37 -16 -56 -20 -47 -10
-121 -48 -145 -75 -11 -12 -45 -39 -75 -60 -53 -36 -110 -102 -110 -127 0 -6
-11 -24 -24 -40 -33 -40 -58 -157 -62 -294 -4 -131 7 -177 71 -317 37 -80 41
-85 138 -158 126 -94 139 -101 245 -124 133 -28 208 -33 333 -21 131 13 197
27 257 52 l42 18 0 321 0 320 -230 0 -230 0 0 -100 0 -99 108 -3 107 -3 3
-147 3 -146 -77 -7 c-145 -14 -252 11 -339 77 -111 84 -124 99 -130 136 -4 20
-15 66 -26 101 -24 81 -24 143 0 212 10 30 21 70 25 90 8 42 29 66 117 131 69
50 83 57 174 84 90 27 269 24 354 -5 35 -12 65 -21 66 -19 2 2 12 35 22 73 11
39 24 78 28 87 6 15 -5 23 -61 49 -68 31 -72 31 -249 34 -99 2 -198 1 -219 -2z"/>
<path d="M3837 3523 c-4 -3 -7 -280 -7 -615 l0 -608 388 2 387 3 -3 55 c-2 30
-7 73 -11 95 l-6 40 -253 3 -252 2 0 148 c0 81 3 157 6 170 6 22 7 22 224 22
l217 0 7 79 c12 131 24 125 -230 117 l-214 -8 0 151 0 151 228 2 227 3 0 95 0
95 -351 2 c-193 2 -354 0 -357 -4z"/>
<path d="M9050 2095 c-8 -2 -84 -9 -167 -16 l-153 -12 0 -519 0 -518 110 0
110 0 0 226 0 227 73 -6 c116 -8 154 -24 193 -76 35 -48 84 -183 104 -286 7
-33 17 -66 22 -72 7 -9 47 -13 134 -13 68 0 124 3 124 6 0 3 -11 20 -24 37
-25 33 -76 181 -76 220 0 40 -59 148 -107 194 l-46 46 71 66 c89 82 112 131
112 236 0 72 -1 73 -46 128 -25 31 -59 62 -75 69 -16 7 -29 16 -29 20 0 22
-264 56 -330 43z m190 -175 c32 -14 70 -69 74 -106 5 -63 -43 -146 -98 -169
-17 -7 -84 -16 -149 -20 l-118 -7 3 153 3 154 55 6 c76 9 200 3 230 -11z"/>
<path d="M6405 2084 c-11 -2 -40 -10 -65 -16 -54 -13 -139 -67 -191 -120 -29
-30 -39 -51 -46 -93 -11 -61 1 -164 23 -206 29 -57 171 -141 319 -189 106 -35
146 -86 130 -167 -19 -103 -146 -137 -354 -93 -52 11 -96 20 -98 20 -1 0 -3
-41 -3 -90 0 -89 0 -91 27 -101 43 -16 250 -23 330 -10 76 12 187 58 241 100
19 14 47 53 64 86 26 50 31 72 32 135 1 71 -1 78 -38 135 -36 56 -81 104 -98
105 -4 0 -31 11 -60 24 -29 14 -87 38 -128 55 -80 33 -167 86 -183 112 -15 25
-1 61 38 101 37 37 94 58 157 58 29 0 179 -37 218 -54 12 -5 20 11 38 70 13
42 20 80 15 85 -28 27 -118 48 -229 53 -66 3 -128 3 -139 0z"/>
<path d="M6880 2000 l0 -80 163 -2 162 -3 3 -442 2 -443 110 0 c98 0 110 2
111 18 1 9 2 28 3 42 1 14 3 206 4 428 l2 402 155 0 155 0 0 80 0 80 -435 0
-435 0 0 -80z"/>
<path d="M7868 1748 c0 -183 -2 -418 -2 -523 l-1 -190 343 -3 342 -2 0 85 0
85 -225 0 -225 0 0 145 0 145 195 0 195 0 0 85 0 85 -195 0 -195 0 0 125 0
125 208 2 207 3 3 83 3 82 -326 0 -325 0 -2 -332z"/>
<path d="M5386 2048 c-14 -50 -33 -106 -91 -273 -36 -104 -74 -217 -84 -250
-29 -94 -101 -297 -117 -326 -7 -15 -22 -59 -33 -98 l-20 -72 111 3 111 3 43
125 42 125 171 0 172 0 52 -130 52 -130 103 -3 103 -3 -7 48 c-4 26 -20 76
-35 110 -15 35 -53 136 -83 225 -31 90 -83 242 -117 338 -33 96 -72 208 -86
248 l-25 72 -129 0 c-95 0 -131 -3 -133 -12z m200 -378 c25 -80 49 -157 54
-172 5 -14 6 -29 3 -32 -10 -10 -241 -7 -248 3 -3 5 17 78 45 162 28 84 55
171 61 193 17 70 21 74 31 31 5 -22 30 -105 54 -185z"/>
<path d="M3806 2018 c-7 -41 -43 -348 -51 -443 -3 -38 -10 -92 -15 -120 -5
-27 -16 -120 -25 -205 -8 -85 -18 -173 -21 -194 l-7 -39 69 6 c38 4 88 7 110
7 40 0 42 1 47 38 4 20 13 139 22 262 8 124 20 252 25 285 5 33 10 84 10 113
0 31 4 52 11 52 6 0 8 -7 5 -16 -3 -9 3 -37 15 -62 11 -26 29 -83 39 -127 10
-44 46 -159 80 -255 34 -96 64 -184 67 -195 3 -11 9 -37 15 -58 l9 -38 101 3
100 3 38 100 c21 55 52 143 69 195 17 52 47 140 67 195 20 55 49 144 64 198
30 107 39 126 41 81 1 -16 2 -42 4 -59 1 -16 8 -100 14 -185 7 -85 14 -162 16
-170 4 -15 21 -168 34 -300 l6 -65 94 -3 c52 -1 100 -1 106 2 9 3 7 37 -6 133
-9 70 -22 178 -29 238 -6 61 -18 164 -25 230 -8 66 -21 185 -30 265 -9 80 -20
149 -24 153 -4 4 -66 6 -136 5 l-129 -3 -38 -87 c-20 -48 -44 -111 -52 -140
-8 -29 -42 -129 -76 -223 -33 -93 -63 -189 -66 -211 -7 -43 -19 -72 -28 -63
-3 3 -12 29 -20 59 -8 30 -36 118 -61 195 -25 77 -54 169 -66 205 -11 36 -27
79 -34 95 -7 17 -23 63 -36 103 l-23 72 -137 0 -137 0 -6 -32z"/>
</g>
</svg>
